<?xml version="1.0" encoding="utf-8"?>
<!-- Generator: Adobe Illustrator 21.0.2, SVG Export Plug-In . SVG Version: 6.00 Build 0)  -->
<svg version="1.1" id="Layer_1" xmlns="http://www.w3.org/2000/svg" xmlns:xlink="http://www.w3.org/1999/xlink" x="0px" y="0px"
	 viewBox="0 0 100 100" style="enable-background:new 0 0 100 100;" xml:space="preserve">
<style type="text/css">
	.st0{clip-path:url(#SVGID_2_);fill:#252525;}
</style>
<g>
	<defs>
		<rect id="SVGID_1_" x="0.8" y="18" width="98.5" height="69.3"/>
	</defs>
	<clipPath id="SVGID_2_">
		<use xlink:href="#SVGID_1_"  style="overflow:visible;"/>
	</clipPath>
	<path class="st0" d="M58.2,58v-0.2l-1.3-17.3c0-0.5-0.2-0.9-0.6-1.2c-0.4-0.3-0.8-0.5-1.2-0.5H45c-0.5,0-0.9,0.2-1.2,0.5
		c-0.4,0.3-0.6,0.8-0.6,1.2l-1.3,17.3V58c0,0.4,0.1,0.8,0.4,1.1c0.3,0.3,0.7,0.4,1.1,0.4h13.2c0.4,0,0.8-0.1,1.1-0.4
		C58.1,58.8,58.2,58.5,58.2,58 M99.3,83.3c0,2.6-0.8,3.9-2.5,3.9H58.7c0.5,0,0.9-0.2,1.2-0.5c0.3-0.3,0.5-0.7,0.4-1.2l-1.1-13.9
		c0-0.5-0.2-0.9-0.6-1.2c-0.4-0.3-0.8-0.5-1.2-0.5H42.7c-0.5,0-0.9,0.2-1.2,0.5c-0.4,0.3-0.6,0.8-0.6,1.2l-1.1,13.9
		c0,0.5,0.1,0.9,0.4,1.2c0.3,0.3,0.7,0.5,1.2,0.5H3.3c-1.7,0-2.5-1.3-2.5-3.9c0-1.9,0.5-4,1.4-6.3l22.6-56.5
		c0.3-0.7,0.8-1.3,1.4-1.8c0.6-0.5,1.3-0.8,2.1-0.8h18.3c-0.5,0-0.9,0.2-1.2,0.5c-0.4,0.3-0.6,0.7-0.6,1.2l-0.8,10.4
		c0,0.5,0.1,0.9,0.4,1.2c0.3,0.3,0.7,0.5,1.2,0.5h9c0.5,0,0.9-0.2,1.2-0.5c0.3-0.3,0.5-0.7,0.4-1.2l-0.8-10.4c0-0.5-0.2-0.9-0.6-1.2
		C54.4,18.2,54,18,53.5,18h18.3c0.7,0,1.4,0.3,2.1,0.8c0.6,0.5,1.1,1.1,1.4,1.8L97.9,77C98.8,79.3,99.3,81.4,99.3,83.3"/>
</g>
</svg>
