<?xml version="1.0" encoding="utf-8"?>
<!-- Generator: Adobe Illustrator 21.0.2, SVG Export Plug-In . SVG Version: 6.00 Build 0)  -->
<svg version="1.1" id="Layer_1" xmlns="http://www.w3.org/2000/svg" xmlns:xlink="http://www.w3.org/1999/xlink" x="0px" y="0px"
	 viewBox="0 0 1000 1000" style="enable-background:new 0 0 1000 1000;" xml:space="preserve">
<g id="base">
	<polyline style="fill:#D3B379;" points="174.4,337.1 174.4,341.5 85.8,249.6 85.8,245.1 174.4,337.1 	"/>
	<polyline style="fill:#D3B379;" points="164.2,359.6 164.3,364 156.8,356.1 156.7,351.8 164.2,359.6 	"/>
	<polyline style="fill:#999B9D;" points="600.6,365.1 600.6,369.5 569.9,394.9 569.9,390.6 600.6,365.1 	"/>
	<polyline style="fill:#D3B379;" points="131,453.8 131,458.2 95.3,421.1 95.3,416.8 131,453.8 	"/>
	<polyline style="fill:#D3B379;" points="135.5,487.8 135.6,492.1 131,458.2 131,453.8 135.5,487.8 	"/>
	<polyline style="fill:#D3B379;" points="248,604.5 248,608.8 135.6,492.1 135.5,487.8 248,604.5 	"/>
	<polyline style="fill:#D3B379;" points="136.2,696.8 136.3,701 96.2,659.5 96.1,655.1 136.2,696.8 	"/>
	<path style="fill:#999C9E;" d="M934.3,710.8v4.3c0,1.1-0.3,2.4-1,3.6l-0.1-4.4C934,713.1,934.3,711.9,934.3,710.8"/>
	<path style="fill:#989A9D;" d="M933.3,714.3v4.3c-0.5,0.7-1,1.3-1.8,2v-4.4C932.3,715.6,932.8,715,933.3,714.3"/>
	<path style="fill:#96989B;" d="M931.6,716.3v4.3c-1,0.8-2.2,1.7-3.9,2.6v-4.4C929.3,718.1,930.6,717.1,931.6,716.3"/>
	<path style="fill:#95979A;" d="M927.6,718.9v4.3c-1.8,0.9-4,1.8-6.7,2.6c-17,5-44,13-45.4,13.5V735c1.4-0.5,28.3-8.5,45.4-13.5
		C923.6,720.6,925.9,719.8,927.6,718.9"/>
	<path style="fill:#D3B379;" d="M934.3,710.8c0,1.5,0,2.9,0,4.3c0,3.6-3,7.7-13.3,10.7c-17.1,5-44,13-45.4,13.5l-0.1-4.3
		c1.4-0.5,28.3-8.5,45.4-13.5C931.4,718.4,934.4,714.3,934.3,710.8"/>
	<path style="fill:#95979A;" d="M875.6,734.9l0.1,4.4c-0.3-1.1-4,0.8-10.1,2.8c-5.5,1.7-12.8,3.5-21.4,3c-7.8-0.5-16.4-2.5-25.5-7.8
		v-4.4c9.2,5.2,17.9,7.3,25.5,7.8c8.6,0.4,16-1.4,21.5-3.1C871.6,735.7,875.3,733.8,875.6,734.9"/>
	<path style="fill:#D3B379;" d="M875.6,734.9l0.1,4.4c-0.3-1.1-4,0.8-10.1,2.8c-5.5,1.7-12.8,3.5-21.4,3c-7.8-0.5-16.4-2.5-25.5-7.8
		v-4.4c9.2,5.2,17.9,7.3,25.5,7.8c8.6,0.4,16-1.4,21.5-3.1C871.6,735.7,875.3,733.8,875.6,734.9"/>
	<polyline style="fill:#D3B379;" points="775.6,746.9 775.6,751.1 768.2,724.6 768.1,720.1 775.6,746.9 	"/>
	<polyline style="fill:#D3B379;" points="818.5,733 818.6,737.3 775.6,751.3 775.6,746.9 818.5,733 	"/>
	<polyline style="fill:#D3B379;" points="658,759 658,763.3 588.7,691.3 588.6,687 658,759 	"/>
	<polyline style="fill:#D3B379;" points="768.1,720.1 768.2,724.6 658,763.3 658,759 768.1,720.1 	"/>
	<polyline style="fill:#D3B379;" points="588.6,687 588.7,691.3 442.1,813 442.1,808.5 588.6,687 	"/>
	<polyline style="fill:#D3B379;" points="326.7,775.9 326.7,780.3 277.8,820.8 277.7,816.5 326.7,775.9 	"/>
	<polyline style="fill:#D3B379;" points="277.7,816.5 277.8,820.8 82,779.4 81.9,775 277.7,816.5 	"/>
	<polyline style="fill:#D3B379;" points="367.2,818 367.3,822.4 326.7,780.3 326.7,775.9 367.2,818 	"/>
	<polyline style="fill:#D3B379;" points="410.9,829.3 410.9,833.5 400.6,830.5 400.6,826 410.9,829.3 	"/>
	<path style="fill:#999C9E;" d="M446.5,819.8v4.3c0,2.4-0.6,5-2.2,7.7v-4.3C445.9,824.8,446.5,822.3,446.5,819.8"/>
	<path style="fill:#989A9D;" d="M444.2,827.5v4.4c-0.9,1.3-2,2.7-3.5,4v-4.3C442.2,830.1,443.4,828.8,444.2,827.5"/>
	<path style="fill:#96989B;" d="M440.7,831.5v4.3c-0.6,0.6-1.3,1.1-2,1.7c-1.1,0.8-2.2,1.4-3.2,2v-4.3c1-0.6,2.1-1.2,3.2-2
		C439.4,832.7,440.1,832,440.7,831.5"/>
	<path style="fill:#95979A;" d="M435.4,835.1v4.3c-3.2,1.6-6.3,2.2-9.1,2c-9.1-0.4-15.2-7.6-15.5-7.9v-4.3c0.3,0.4,6.4,7.5,15.5,8
		C429.2,837.3,432.3,836.8,435.4,835.1"/>
	<path style="fill:#D3B379;" d="M446.5,819.8v4.3c0,4.2-1.8,8.9-7.8,13.4c-4.3,3.2-8.6,4.2-12.2,4c-9.1-0.5-15.2-7.5-15.6-7.9v-4.4
		c0.3,0.4,6.4,7.5,15.5,8c3.7,0.2,7.9-0.8,12.3-4C444.7,828.7,446.5,824,446.5,819.8"/>
	<polyline style="fill:#D3B379;" points="400.6,826 400.6,830.5 397.1,842 397.1,837.7 400.6,826 	"/>
	<path style="fill:#EAC77D;" d="M277.7,86.3l235.9,244.8l30.1-25l56.9,59l-30.7,25.5l240.8,249.8l17.4-14.4l20.2,21
		c8.6,0.4,27.5,3,41.8,22.3l4.1-3.3c1.7,1.8,33.9,35.2,37.5,39c3.6,3.7,6.4,11.5-10.7,16.5c-17,4.9-44,13-45.4,13.5
		c-0.2-1.1-3.9,0.8-10,2.8c-5.5,1.7-12.9,3.4-21.5,3c-7.7-0.4-16.4-2.5-25.6-7.7L775.6,747l-7.5-26.7L658,759.1l-69.3-72
		L442.1,808.5c0.5,0.7,11.5,13.6-3.5,24.5c-4.3,3.2-8.6,4.2-12.3,4.1c-9.1-0.5-15.2-7.6-15.5-8l-10.2-3.1l-3.5,11.5l-35.2-4.6
		l5.3-15l-40.6-42.2l-49,40.6L81.8,774.8l9.1-40.8l45.2-37.5l-40-41.6l84.9-70.1l40.4,41.9l26.7-22.1L135.5,487.8l-4.5-33.9
		l-35.7-37.1l69-57.2l-7.5-7.8l17.7-14.7l-88.7-91.9L277.7,86.3"/>
	<polyline style="fill:#D3B379;" points="397.1,837.7 397.1,842 362,837.4 361.9,833 397.1,837.7 	"/>
	<polyline style="fill:#D3D3D3;" points="659.7,617 659.8,621.3 632.7,643.8 632.6,639.4 659.7,617 	"/>
	<polyline style="fill:#D3D3D3;" points="632.6,639.4 632.7,643.8 611.1,621.4 611.1,617.1 632.6,639.4 	"/>
	<polyline style="fill:#D3D3D3;" points="164.6,326.9 164.6,331.1 79.9,243.3 79.9,238.9 164.6,326.9 	"/>
	<polyline style="fill:#D3D3D3;" points="188.5,307 188.5,311.4 164.6,331.1 164.6,326.9 188.5,307 	"/>
	<polyline style="fill:#D3D3D3;" points="270.6,392.5 270.7,396.8 224.3,348.6 224.3,344.2 270.6,392.5 	"/>
	<polyline style="fill:#D3D3D3;" points="222.7,342.6 222.8,346.9 199.9,323.2 199.9,318.8 222.7,342.6 	"/>
	<polyline style="fill:#D3D3D3;" points="328.3,365 328.4,369.3 244.7,287.2 244.7,282.8 328.3,365 	"/>
	<polyline style="fill:#D3D3D3;" points="198.7,317.6 198.8,321.9 188.5,311.4 188.5,307 198.7,317.6 	"/>
	<polyline style="fill:#D3D3D3;" points="422.3,236.3 422.3,240.6 352.6,298.6 352.5,294.3 422.3,236.3 	"/>
	<path style="fill:#D3D3D3;" d="M255.3,386"/>
	<polygon style="fill:#D3D3D3;" points="423.5,374.6 406.6,388.3 406.6,384 423.4,370.3 	"/>
	<polyline style="fill:#D3D3D3;" points="406.6,384 406.6,388.3 386,367 386,362.7 406.6,384 	"/>
	<polygon style="fill:#D3D3D3;" points="514,475.7 497.2,489.5 497.1,485.1 514,471.4 	"/>
	<polyline style="fill:#D3D3D3;" points="497.1,485.1 497.2,489.5 476.6,468.2 476.6,463.8 497.1,485.1 	"/>
	<path style="fill:#D3D3D3;" d="M314.5,504.1"/>
	<polyline style="fill:#D3D3D3;" points="404.9,515.9 404.9,520.3 380.8,540.3 380.8,535.9 404.9,515.9 	"/>
	<polyline style="fill:#D3D3D3;" points="380.8,535.9 380.8,540.3 360,518.7 360,514.3 380.8,535.9 	"/>
	<polyline style="fill:#D3D3D3;" points="414.6,607.3 414.7,611.7 390.6,631.7 390.5,627.3 414.6,607.3 	"/>
	<polyline style="fill:#D3D3D3;" points="390.5,627.3 390.6,631.7 369.8,610.2 369.8,605.8 390.5,627.3 	"/>
	<polyline style="fill:#D3D3D3;" points="455.1,567 455.1,571.3 431,591.3 430.9,586.9 455.1,567 	"/>
	<polyline style="fill:#D3D3D3;" points="430.9,586.9 431,591.3 410.2,569.7 410.2,565.4 430.9,586.9 	"/>
	<polyline style="fill:#D3D3D3;" points="481.4,421.6 481.4,425.9 457.3,445.9 457.3,441.6 481.4,421.6 	"/>
	<polyline style="fill:#D3D3D3;" points="457.3,441.6 457.3,445.9 436.6,424.4 436.5,420 457.3,441.6 	"/>
	<path style="fill:#E31B23;" d="M281.1,589.4"/>
	<polyline style="fill:#D3D3D3;" points="286.8,646 286.8,650.4 260.8,671.1 260.8,666.8 285.8,646.9 	"/>
	<polyline style="fill:#D3D3D3;" points="331.3,612.1 331.3,616.4 289.8,649.4 289.8,644.7 314.8,625.1 	"/>
	<polyline style="fill:#D3D3D3;" points="273.4,551 273.4,555.3 232,587.9 231.7,583.5 256.9,564 	"/>
	<polyline style="fill:#D3D3D3;" points="302.1,580.9 302.1,585.2 259.9,617.7 259.8,613.3 284.9,593.4 	"/>
	<polyline style="fill:#424549;" points="222.8,624.3 222.8,628.6 190,655.8 190,651.5 222.8,624.3 	"/>
	<polyline style="fill:#3F4246;" points="190,651.5 190,655.8 149.5,613.8 149.4,609.4 190,651.5 	"/>
	<polyline style="fill:#515459;" points="182.3,582.2 222.8,624.3 190,651.5 149.4,609.4 182.3,582.2 	"/>
	<polyline style="fill:#D3D3D3;" points="259.3,668.3 259.3,672.6 237.6,690.3 237.6,685.8 259.3,668.3 	"/>
	<polyline style="fill:#D3D3D3;" points="237.6,685.8 237.6,690.3 223.3,690.5 223.3,686.1 237.6,685.8 	"/>
	<polyline style="fill:#D3D3D3;" points="223.3,686.1 223.3,690.5 189.3,655.1 189.3,650.8 223.3,686.1 	"/>
	<polyline style="fill:#424549;" points="185.3,671.3 185.4,675.7 144.7,709.4 144.7,705 185.3,671.3 	"/>
	<polyline style="fill:#3F4246;" points="144.7,705 144.7,709.4 96.6,659.5 96.6,655.1 144.7,705 	"/>
	<polyline style="fill:#515459;" points="137.3,621.4 185.3,671.3 144.7,705 96.6,655.1 137.3,621.4 	"/>
	<polyline style="fill:#D3D3D3;" points="211.4,698 211.4,702.4 210.9,712 210.8,707.6 211.4,698 	"/>
	<polyline style="fill:#D3D3D3;" points="210.8,707.6 210.9,712 145.9,765.8 145.9,761.5 210.8,707.6 	"/>
	<polyline style="fill:#D3D3D3;" points="145.9,761.5 145.9,765.8 87.6,752.7 87.5,748.3 145.9,761.5 	"/>
	<polyline style="fill:#D3D3D3;" points="145.4,762.3 145.4,766.7 138,786.5 138,782.3 145.4,762.3 	"/>
	<polyline style="fill:#D3D3D3;" points="138,782.3 138,786.6 82,774.9 82,770.5 138,782.3 	"/>
	<polyline style="fill:#D3D3D3;" points="206,773.3 206.1,777.5 198.1,769.4 198.1,765 206,773.3 	"/>
	<polyline style="fill:#D3D3D3;" points="277.5,812.5 277.5,817 199.1,800.5 199,796 277.5,812.5 	"/>
	<polyline style="fill:#D3D3D3;" points="299.7,794.1 299.7,798.5 277.5,817 277.5,812.5 299.7,794.1 	"/>
	<polyline style="fill:#D3D3D3;" points="301.1,792.7 301.1,797 240.8,734.5 240.7,730.1 301.1,792.7 	"/>
	<polyline style="fill:#D3D3D3;" points="325.8,772.1 325.8,776.5 301.1,797 301.1,792.7 325.8,772.1 	"/>
	<polyline style="fill:#D3D3D3;" points="346.2,793.3 346.2,797.7 325.8,776.5 325.8,772.1 346.2,793.3 	"/>
	<polyline style="fill:#D3D3D3;" points="356,751.5 356,755.8 346.2,797.7 346.2,793.3 356,751.5 	"/>
	<path style="fill:#D3B379;" d="M453.5,684.6c-3.2,0-27.4-1.9-33.6,8.4c-6.2,10.3-6.8,28.2-2.2,41.8l-7.5,14.8l14.5,15.2l-1.9,34.2
		c0,0,13.3,0.3,21.1,8.2l72.9-59.9L453.5,684.6"/>
	<polygon style="fill:#D3D3D3;" points="307.3,381.2 296.2,390 296.2,394.4 326.6,370.4 326.4,366.5 	"/>
	<polygon style="fill:#D3D3D3;" points="339.5,356.1 328.4,364.9 328.4,369.3 379.1,329.6 378.9,325.7 	"/>
	<polyline style="fill:#D3D3D3;" points="618.8,579.3 618.8,583.6 594.9,603.5 594.9,599.2 618.8,579.3 	"/>
	<polyline style="fill:#D3D3D3;" points="594.9,599.2 594.9,603.5 566.5,574 566.4,569.6 594.9,599.2 	"/>
	<polyline style="fill:#9B005B;" points="336.2,677.7 336.2,679.5 323.2,696 323.1,694 336.2,677.7 	"/>
	<polyline style="fill:#3F4246;" points="323.1,694 323.2,696 308.4,685.9 308.4,684 323.1,694 	"/>
	<polyline style="fill:#515358;" points="321.4,667.6 336.2,677.7 323.1,694 308.4,684 321.4,667.6 	"/>
	<polyline style="fill:#D3D3D3;" points="552.7,609.6 552.7,613.9 536.2,627.7 536.1,623.3 552.7,609.6 	"/>
	<polyline style="fill:#D3D3D3;" points="536.1,623.3 536.2,627.7 528.6,619.8 528.6,615.4 536.1,623.3 	"/>
	<polyline style="fill:#D3D3D3;" points="534.7,626.1 534.8,630.6 514.8,647.1 514.8,642.8 534.7,626.1 	"/>
	<polyline style="fill:#D3D3D3;" points="514.8,642.8 514.8,647.1 513.8,606.3 513.8,601.9 514.8,642.8 	"/>
	<polyline style="fill:#D3D3D3;" points="513.6,644.8 513.6,649.1 504.9,656.3 504.9,652 513.6,644.8 	"/>
	<polyline style="fill:#D3D3D3;" points="504.9,651.9 504.9,656.3 470.8,620.9 470.8,616.6 504.9,651.9 	"/>
	<polyline style="fill:#D3D3D3;" points="509,701.1 509.1,705.5 453.5,647.9 453.4,643.5 481.5,672.8 	"/>
	<polyline style="fill:#D3D3D3;" points="581,634.6 581,639 540.6,672.5 540.6,668.1 581,634.6 	"/>
	<polyline style="fill:#D3D3D3;" points="540.6,668.1 540.6,672.5 517.9,648.9 517.9,644.6 540.6,668.1 	"/>
	<polyline style="fill:#D3D3D3;" points="601.8,654.5 601.9,658.8 598.9,664.1 598.8,659.9 601.8,654.5 	"/>
	<polyline style="fill:#D3D3D3;" points="598.8,659.9 598.9,664.1 576.3,683 576.2,678.6 598.8,659.9 	"/>
	<polyline style="fill:#D3D3D3;" points="576.2,678.6 576.3,683 574,680.6 574,676.1 576.2,678.6 	"/>
	<polyline style="fill:#D3D3D3;" points="560.9,687 560.9,691.3 543.8,673.6 543.8,669.3 560.9,687 	"/>
	<polyline style="fill:#D3D3D3;" points="574,676.1 574,680.6 560.9,691.4 560.9,687 574,676.1 	"/>
	<polyline style="fill:#D3D3D3;" points="560,689.1 560,693.6 553.9,698.6 553.9,694.3 560,689.1 	"/>
	<polyline style="fill:#D3D3D3;" points="516.3,715.7 516.3,720 508.2,711.6 508.1,707.3 516.3,715.7 	"/>
	<polyline style="fill:#D3D3D3;" points="556.8,697.3 556.8,701.6 534,720.5 534,716.1 556.8,697.3 	"/>
	<polyline style="fill:#D3D3D3;" points="534,716.1 534,720.5 516.3,720 516.3,715.7 534,716.1 	"/>
	<polyline style="fill:#D3D3D3;" points="707.3,642.1 707.3,646.4 705.5,658.7 705.5,654.4 707.3,642.1 	"/>
	<polyline style="fill:#D3D3D3;" points="705.5,654.4 705.5,658.7 679,662.7 678.9,658.4 705.5,654.4 	"/>
	<polyline style="fill:#D3D3D3;" points="678.9,658.4 679,662.7 665.1,648.4 665.1,644.1 678.9,658.4 	"/>
	<polyline style="fill:#D3D3D3;" points="670,670.7 670.1,675 648,749.9 648,745.5 668.8,674.7 	"/>
	<polyline style="fill:#D3D3D3;" points="648,745.5 648,749.9 590,689.3 590,685 648,745.5 	"/>
	<polyline style="fill:#D3D3D3;" points="692.7,676 692.7,680.4 671.7,754.5 671.7,750.1 691.8,678.6 	"/>
	<polyline style="fill:#D3D3D3;" points="671.7,750.1 671.7,754.5 657.2,759.8 657.2,755.4 671.7,750.1 	"/>
	<polyline style="fill:#D3D3D3;" points="657.2,755.4 657.2,759.8 648.8,751 648.8,746.8 657.2,755.4 	"/>
	<polyline style="fill:#D3D3D3;" points="717.9,682.3 718,686.7 705.1,742.9 705,738.6 715.2,694.1 	"/>
	<polyline style="fill:#D3D3D3;" points="705,738.6 705.1,742.9 673.9,753.9 673.9,749.5 705,738.6 	"/>
	<polyline style="fill:#D3D3D3;" points="767.8,715.3 768.2,720.1 707.5,741.6 707.5,737.3 767.8,715.3 	"/>
	<polyline style="fill:#D3D3D3;" points="797.8,734.9 797.8,739.1 776,746.4 776,742 797.8,734.9 	"/>
	<polyline style="fill:#D3D3D3;" points="776,742.1 776.1,746.4 761.1,696.6 761,692.1 776,742.1 	"/>
	<polyline style="fill:#D3D3D3;" points="730.9,641.4 731,645.8 696.9,610.7 696.9,606.3 730.3,640.9 	"/>
	<polyline style="fill:#D3D3D3;" points="730.9,641.4 731,645.8 762.3,652.6 762.3,648.3 730.9,641.4 	"/>
	<polyline style="fill:#D3D3D3;" points="764.3,648.8 764.3,653.1 789.8,658.9 789.8,654.5 764.3,648.8 	"/>
	<polyline style="fill:#D3D3D3;" points="789.8,654.4 789.9,658.8 815.8,640.7 815.8,636.4 789.8,654.4 	"/>
	<polyline style="fill:#D3D3D3;" points="727.6,562 727.6,566.4 685.2,601.6 685.2,597.1 727.6,562 	"/>
	<polyline style="fill:#D3D3D3;" points="685.2,597.1 685.2,601.6 668.8,584.5 668.7,580 685.2,597.1 	"/>
	<polyline style="fill:#D3D3D3;" points="708.2,542.7 708.3,547 665.9,582.2 665.8,577.8 708.2,542.7 	"/>
	<polyline style="fill:#D3D3D3;" points="665.8,577.8 665.9,582.2 649.4,565.1 649.3,560.7 665.8,577.8 	"/>
	<polyline style="fill:#D3D3D3;" points="697.2,515.4 697.2,519.8 646.1,562.1 646.1,557.8 697.2,515.4 	"/>
	<polyline style="fill:#D3D3D3;" points="646.1,557.7 646.1,562.1 611.5,526.9 611.4,522.5 627.1,538.8 	"/>
	<polyline style="fill:#D3D3D3;" points="659.1,478.1 659.1,482.5 608.6,524.5 608.6,520.1 659.1,478.1 	"/>
	<polyline style="fill:#D3D3D3;" points="608.6,520.1 608.6,524.5 576.1,490.8 576,486.5 608.6,520.1 	"/>
	<polyline style="fill:#D3D3D3;" points="623.3,441.6 623.3,445.9 572.3,488.3 572.3,483.9 623.3,441.6 	"/>
	<polyline style="fill:#D3D3D3;" points="572.3,483.9 572.3,488.3 528.6,443 528.6,438.6 572.3,483.9 	"/>
	<polyline style="fill:#D3D3D3;" points="513.9,331.3 513.9,335.7 453.6,368.4 453.5,364 513.9,331.3 	"/>
	<polyline style="fill:#D3D3D3;" points="453.5,364 453.6,368.4 426.4,340.4 426.4,336 453.5,364 	"/>
	<polyline style="fill:#D3D3D3;" points="462.6,300.5 462.6,304.8 423.5,337.1 423.5,332.9 462.6,300.5 	"/>
	<polyline style="fill:#D3D3D3;" points="423.5,332.7 423.5,337.1 391.4,302.4 391.3,298 410,317.4 	"/>
	<polyline style="fill:#43454A;" points="369.4,656 369.4,660.4 335,708.8 335,704.4 369.4,656 	"/>
	<polyline style="fill:#3F4246;" points="335,704.4 335,708.8 319,699.5 319,695.1 335,704.4 	"/>
	<polyline style="fill:#515459;" points="353.4,646 369.4,656 335,704.4 319,695.1 353.4,646 	"/>
	<polyline style="fill:#424549;" points="477.7,705.3 477.7,709.6 463.8,721.4 463.8,717 477.7,705.3 	"/>
	<polyline style="fill:#3F4246;" points="463.8,717 463.8,721.4 422.1,677.5 422,673.1 463.8,717 	"/>
	<polyline style="fill:#515459;" points="436.8,661.5 477.7,705.3 463.8,717 422,673.1 436.8,661.5 	"/>
	<polyline style="fill:#43454A;" points="878.6,691.4 878.6,695.8 876.6,713.1 876.6,708.8 878.6,691.4 	"/>
	<polyline style="fill:#3F4246;" points="876.6,708.8 876.6,713.1 814,706.1 814,701.7 876.6,708.8 	"/>
	<polyline style="fill:#515459;" points="816.6,684 878.6,691.4 876.6,708.8 814,701.7 816.6,684 	"/>
	<polyline style="fill:#D3D3D3;" points="360.3,750 360.3,754.4 344.6,738 344.6,733.7 360.3,750 	"/>
	<polyline style="fill:#D3D3D3;" points="367.6,814.9 367.7,819.3 349.4,800.3 349.4,796 367.6,814.9 	"/>
	<polyline style="fill:#D3D3D3;" points="410.9,826 410.9,830.5 401,827 401,822.7 410.9,826 	"/>
	<polyline style="fill:#D3D3D3;" points="397.6,834.5 397.6,838.9 362.4,834 362.4,829.7 397.6,834.5 	"/>
	<polyline style="fill:#D3D3D3;" points="401,822.7 401,827 397.6,838.9 397.6,834.5 401,822.7 	"/>
	<path style="fill:#D3D3D3;" d="M446.8,817v4.3c0,2.6-0.7,5.1-2.2,7.6v-4.3C446.1,822.1,446.8,819.5,446.8,817"/>
	<path style="fill:#D3D3D3;" d="M444.6,824.5v4.3c-0.9,1.3-1.9,2.6-3.3,3.9v-4.4C442.6,827.1,443.7,825.9,444.6,824.5"/>
	<path style="fill:#D3D3D3;" d="M441.2,828.4v4.4l-0.6,0.5c-1.6,1.3-3.1,2.3-4.7,3.1v-4.3c1.5-0.8,3.1-1.8,4.7-3.1L441.2,828.4"/>
	<path style="fill:#D3D3D3;" d="M436,832v4.3c-3.3,1.7-6.4,2.2-9.3,2.1c-9.2-0.5-15.5-7.7-15.8-8v-4.3c0.3,0.4,6.5,7.6,15.8,8
		C429.6,834.3,432.6,833.8,436,832"/>
	<path style="fill:#D3D3D3;" d="M446.8,817v4.3c0,4.2-1.8,8.3-6.2,12c-5,4.2-9.8,5.4-14,5.2c-9.2-0.5-15.5-7.7-15.8-8v-4.3
		c0.3,0.4,6.5,7.6,15.8,8c4.2,0.2,9-1,14-5.2C445,825.3,446.8,821,446.8,817"/>
	<path style="fill:#D3D3D3;" d="M934.2,708.8v4.4c0,1-0.2,1.9-0.9,2.9v-4.4C934,710.8,934.3,709.8,934.2,708.8"/>
	<path style="fill:#D3D3D3;" d="M933.3,711.8v4.3c-0.3,0.5-0.8,1.1-1.5,1.7v-4.3C932.5,712.9,933,712.3,933.3,711.8"/>
	<path style="fill:#D3D3D3;" d="M931.8,713.5v4.3c-0.8,0.8-1.9,1.5-3.3,2.2v-4.3C929.9,715,931,714.1,931.8,713.5"/>
	<path style="fill:#D3D3D3;" d="M928.5,715.6v4.3c-1.2,0.6-2.6,1.2-4.2,1.8v-4.4C926,716.8,927.3,716.3,928.5,715.6"/>
	<path style="fill:#D3B379;" d="M934.2,708.8v4.4c0,2.8-2.3,6-9.9,8.5v-4.3C931.9,714.8,934.3,711.6,934.2,708.8"/>
	<polygon style="fill:#D3D3D3;" points="514.5,570.3 503.4,579.2 503.4,583.6 514.6,574.3 514.5,570.4 	"/>
	<polyline style="fill:#D3D3D3;" points="503.4,579.2 503.4,583.6 491.2,570.8 491.2,566.5 503.4,579.2 	"/>
	<polyline style="fill:#D3D3D3;" points="571.8,532.3 571.8,536.6 547.9,556.5 547.9,552.2 571.8,532.3 	"/>
	<polyline style="fill:#D3D3D3;" points="547.9,552.2 547.9,556.5 532.5,540 532.4,535.6 547.9,552.2 	"/>
	<polyline style="fill:#D3D3D3;" points="260.8,666.8 260.8,671.1 220,629.6 220,625.3 260.8,666.8 	"/>
</g>
<g id="details">
	<polygon style="fill:#D3D3D3;" points="176.6,408.6 239.2,410.1 239.2,405.7 176.5,404.3 	"/>
	<polygon style="fill:#D3D3D3;" points="130.9,455.3 176.6,452.6 176.5,448.3 130.4,451 	"/>
	<polygon style="fill:#D3D3D3;" points="135.3,487.6 185.9,484.6 185.9,480.3 134.5,483.3 	"/>
	<polygon style="fill:#D3D3D3;" points="197.9,475.6 185.9,484.6 185.9,480.3 197.4,471.4 	"/>
	<polygon style="fill:#D3D3D3;" points="176.6,408.6 161.5,393.5 161.4,389.1 176.5,404.3 	"/>
	<polygon style="fill:#D3D3D3;" points="130.6,453.4 107.5,428.8 107.4,424.4 130.1,447.9 	"/>
	<polygon style="fill:#D3D3D3;" points="190.5,544.9 136.9,489.3 136.9,484.9 190,539.4 	"/>
	<polygon style="fill:#D3D3D3;" points="232,587.9 204.7,559.5 204.7,555.2 231.7,583.5 	"/>
	<polygon style="fill:#D3D3D3;" points="259.8,617.9 233.7,590.1 233.7,585.7 259.8,613.2 	"/>
	<polygon style="fill:#D3D3D3;" points="289.8,649.4 262,619.8 262,615.4 289.8,644.6 	"/>
	<polygon style="fill:#D3D3D3;" points="190.5,544.9 232.6,513.2 232.5,508.8 190,539.4 	"/>
	<polyline style="fill:#424549;" points="351.3,394 351.4,398.4 318.3,425 318.3,420.6 351.3,394 	"/>
	<polyline style="fill:#3F4246;" points="318.3,420.6 318.3,425 304.1,412.1 304.1,407.8 318.3,420.6 	"/>
	<polyline style="fill:#515459;" points="338.1,380.3 351.3,394 318.3,420.6 304.1,407.8 336.1,382.3 	"/>
	<polyline style="fill:#414448;" points="544.2,340.6 544.3,345 477,384.7 477,380.3 544.2,340.6 	"/>
	<polyline style="fill:#3F4246;" points="477,380.3 477,384.7 463.8,371.8 463.8,367.5 477,380.3 	"/>
	<polyline style="fill:#515459;" points="529.3,329.1 544.2,340.6 477,380.3 463.8,367.5 529.3,329.1 	"/>
	<polyline style="fill:#424549;" points="575.5,374.5 575.6,378.8 518.2,430.2 518.1,425.8 575.5,374.5 	"/>
	<polyline style="fill:#3F4246;" points="518.1,425.8 518.2,430.2 502.5,420.1 502.5,415.8 518.1,425.8 	"/>
	<polyline style="fill:#515459;" points="558.4,365.9 575.5,374.5 518.1,425.8 502.5,415.8 558.4,365.9 	"/>
	<line style="fill:none;" x1="509.1" y1="701.3" x2="481.5" y2="672.8"/>
	<polygon style="fill:#D3D3D3;" points="270.7,396.8 296.2,394.4 296.2,390 270.6,392.5 	"/>
	<polyline style="fill:#424549;" points="506.7,516.4 506.7,520.8 473.6,547.4 473.6,543 506.7,516.4 	"/>
	<polyline style="fill:#3F4246;" points="473.6,543 473.6,547.4 459.4,534.5 459.4,530.1 473.6,543 	"/>
	<polyline style="fill:#515459;" points="493.4,502.7 506.7,516.4 473.6,543 459.4,530.1 491.4,504.7 	"/>
	<path style="fill:#D3B379;" d="M190.3,414.8c4.9-3.2,89.9,6.1,89.9,6.1s10.6-3,16,12.8c5.4,15.7,67.2,118.5,67.2,118.5
		s2.9,7.2,2.3,13c-0.7,5.8-0.7,12.7-3.9,17.1S338,606.5,338,606.5S192.2,452.1,189.1,449.2c-3-3-3.9-11.1-3.8-14.9
		C185.8,417.8,187.4,416.7,190.3,414.8z"/>
	<polyline style="fill:#D3D3D3;" points="244.7,282.3 244.7,286.7 198.7,321.8 198.7,317.6 244.7,282.3 	"/>
	<polyline style="fill:#D3D3D3;" points="267.5,308.3 267.5,313.2 222.8,346.9 222.7,342.6 267.5,308.3 	"/>
</g>
<g id="landmarks-shops">
	<polygon id="r101" style="fill:#EFEFEF;" points="362.1,286.1 422.3,236.3 271.7,79.9 79.9,238.9 164.6,326.9 188.5,307 
		198.6,317.5 244.7,282.8 270.2,308 328.3,365 378.8,325.6 376.8,302.8 	"/>
	<polygon id="r101a" style="fill:#EFEFEF;" points="326.5,366.4 269.2,309.8 224.3,344.2 270.6,392.5 296.2,390 	"/>
	<polygon id="k113" style="fill:#EFEFEF;" points="402.9,348.8 423.5,370.1 406.6,384 386,362.7 	"/>
	<polyline id="k110" style="fill:#EFEFEF;" points="384.1,494.4 404.9,515.9 380.8,535.9 360,514.3 384.1,494.4 	"/>
	<polyline id="r109b" style="fill:#EFEFEF;" points="711.1,544.9 727.6,562 685.2,597.1 668.7,580.1 711.1,544.9 	"/>
	<polyline id="r109a" style="fill:#EFEFEF;" points="691.7,525.5 708.2,542.7 665.9,577.8 649.4,560.8 691.7,525.5 	"/>
	<polyline id="r108" style="fill:#EFEFEF;" points="662.5,480.1 697,515.5 645.9,557.9 611.4,522.5 662.5,480.1 	"/>
	<polyline id="r107" style="fill:#EFEFEF;" points="626.7,444.5 659.1,478.1 608.6,520.1 576,486.4 626.7,444.5 	"/>
	<polygon id="r104" style="fill:#EFEFEF;" points="465.2,304.3 488.4,305 513.9,331.3 453.5,364 426.4,336 465,304.3 	"/>
	<polygon id="k111" style="fill:#EFEFEF;" points="493.5,450 514,471.4 497.1,485.1 476.6,463.8 	"/>
	<polyline id="k109" style="fill:#EFEFEF;" points="393.8,585.8 414.6,607.3 390.5,627.3 369.8,605.8 393.8,585.8 	"/>
	<polyline id="k105" style="fill:#EFEFEF;" points="434.3,545.4 455.1,567 430.9,586.9 410.2,565.4 434.3,545.4 	"/>
	<polyline id="k117" style="fill:#EFEFEF;" points="460.6,400 481.4,421.6 457.3,441.6 436.5,420 460.6,400 	"/>
	<polyline id="r131" style="fill:#EFEFEF;" points="247.7,604.4 286.9,646 260.8,666.8 220.4,625.7 240.2,610.8 	"/>
	<polyline id="r130" style="fill:#EFEFEF;" points="219.3,626.5 259.3,668.1 237.6,685.8 223.3,686.1 189.3,650.6 219.3,626.5 	"/>
	<polyline id="r129" style="fill:#EFEFEF;" points="187.4,672.3 211.4,698 210.8,707.6 145.9,761.5 87.5,748.3 90.6,734.1 
		134.7,697.6 144.6,707.8 187.4,672.3 	"/>
	<polyline id="r129a" style="fill:#EFEFEF;" points="87.6,749 145.4,762.3 138,782.3 82,770.5 87.6,749 	"/>
	<polyline id="r102" style="fill:#EFEFEF;" points="430.5,265.6 462.6,300.5 423.5,332.9 391.3,298 430.5,265.6 	"/>
	<polyline id="k108" style="fill:#EFEFEF;" points="638.3,594.6 659.7,617 632.6,639.4 611.1,617.1 638.3,594.6 	"/>
	<polyline id="r128" style="fill:#EFEFEF;" points="238.8,731.4 299.7,794.1 277.5,812.5 199,796 206.1,773.3 198.1,765 
		238.8,731.4 	"/>
	<polyline id="r127" style="fill:#EFEFEF;" points="272,704.1 317.6,711.7 356,751.5 346.2,793.3 325.8,772.1 301.1,792.7 
		240.7,730.1 272,704.1 	"/>
	<polyline id="k107" style="fill:#EFEFEF;" points="590.3,549.7 618.8,579.3 594.9,599.2 566.4,569.6 590.3,549.7 	"/>
	<path id="r120" style="fill:#EFEFEF;" d="M528.8,601.4c0.5,0.1,8.8,0.5,23.9,8.2l-16.5,13.7l-7.5-7.9L528.8,601.4"/>
	<path id="r120a" style="fill:#EFEFEF;" d="M521.2,601.3c1.6,0.1,3.2,0.3,4.7,0.7l0.1,15.2l8.8,9l-20,16.6l-1-40.9
		C515.3,601.4,518.1,601.1,521.2,601.3"/>
	<path id="r121" style="fill:#EFEFEF;" d="M512.7,601.3l0.9,43.5l-8.7,7.2l-34.1-35.4C471.3,616,481.6,605,512.7,601.3"/>
	<path id="r122" style="fill:#EFEFEF;" d="M469.7,619.1l35.4,37.2l11.5-9.5l24.8,25.5l1.3-1.1l17.2,18.1l-6,4.8l2.9,3.1L534,716
		l-17.7-0.5l-8.2-8.2l1-6.2l-55.7-57.8C453.8,642.6,461.6,624.4,469.7,619.1"/>
	<polyline id="r119" style="fill:#EFEFEF;" points="558.3,611 581,634.6 540.6,668.1 517.9,644.6 558.3,611 	"/>
	<polyline id="r118" style="fill:#EFEFEF;" points="584,636 601.8,654.5 598.8,659.9 576.2,678.6 574,676.1 560.9,687 543.8,669.3 
		584,636 	"/>
	<polyline id="k115" style="fill:#EFEFEF;" points="689.4,623.9 707.3,642.1 705.5,654.4 678.9,658.4 665.1,644.1 689.4,623.9 	"/>
	<polyline id="r117" style="fill:#EFEFEF;" points="621.3,658.9 670,670.6 648,745.5 590,685 620.2,660 	"/>
	<polyline id="r116b" style="fill:#EFEFEF;" points="671.9,671 692.7,676 671.7,750.1 657.2,755.4 648.7,746.8 670.8,674.3 	"/>
	<polyline id="r116" style="fill:#EFEFEF;" points="694.2,676.4 709,679.9 718,682.1 705,738.6 673.9,749.5 693.2,679.6 	"/>
	<polygon id="r113" style="fill:#EFEFEF;" points="717,695.3 707.5,737.3 767.8,715.3 776,742 797.8,734.9 785.5,698.3 719.9,682.6 
			"/>
	<polyline id="r111" style="fill:#EFEFEF;" points="792.8,613.8 815.6,636.4 789.8,654.4 764.3,648.7 767.1,634.1 792.8,613.8 	"/>
	<polyline id="r110" style="fill:#EFEFEF;" points="745.2,565.7 790.7,612.6 765.4,633.3 762.3,648.3 730.9,641.4 696.7,606.2 
		745.2,565.7 	"/>
	<polyline id="r105" style="fill:#EFEFEF;" points="569.3,386 623.3,441.6 572.3,483.9 528.6,438.6 569.3,386 	"/>
	<path id="r126" style="fill:#EFEFEF;" d="M368.9,713.5l9.2,9.5l5.2-4.4l43.6,45.3l-1.8,32.6h1.2c13.1,0.7,29.8,19.6,14.4,32.4
		c-5,4.1-9.8,5.4-14,5.1c-9.2-0.5-15.5-7.7-15.8-8l-9.9-3.4l-3.5,11.9l-35.2-4.9l5.2-14.8l-18.2-18.9l10.9-46l-15.7-16.3
		L368.9,713.5"/>
	<path id="k112" style="fill:#EFEFEF;" d="M928.8,702h0.2c3,0.9,12.3,9.7-4.6,15.4C924.4,716.6,925.9,701.8,928.8,702"/>
	<polygon id="k106" style="fill:#EFEFEF;" points="491.2,566.5 503.4,579.2 514.5,570.3 501.8,557.6 	"/>
	<polyline id="k118" style="fill:#EFEFEF;" points="556.3,515.7 571.8,532.3 547.9,552.2 532.4,535.6 556.3,515.7 	"/>
	<polygon id="fc07" style="fill:#EFEFEF;" points="176.5,404.4 239.2,405.9 195.4,362.9 161.1,389.5 	"/>
	<polygon id="fc06" style="fill:#EFEFEF;" points="130.4,451 176.5,448.3 174.7,405.9 153.7,385.6 107.4,424.5 130,447.9 	"/>
	<polygon id="fc05" style="fill:#EFEFEF;" points="134.5,483.3 185.8,480.2 197.5,471.3 177.9,450.4 130.7,453.3 134.4,482.5 	"/>
	<polygon id="fc04" style="fill:#EFEFEF;" points="199.5,473.3 187.5,482.6 187.5,482.6 187.4,482.6 187,482.6 186.2,482.7 
		137.5,485.6 190.1,540.1 232.6,508.7 	"/>
	<polygon id="fc03" style="fill:#EFEFEF;" points="273.8,551.2 246.5,522.6 204.7,555.2 231.7,583.6 	"/>
	<polygon id="fc02" style="fill:#EFEFEF;" points="302.1,581 275.8,553.3 233.7,585.6 260,613.3 	"/>
	<polygon id="fc01" style="fill:#EFEFEF;" points="304.1,583.3 262,615.6 289.8,644.7 331.6,612 	"/>
	<polyline id="r101c" style="fill:#EFEFEF;" points="244.1,285 267.5,308.3 222.7,342.6 199.9,318.8 244.1,285 	"/>
</g>
<g id="services">
	<g>
		<path style="fill:#C41530;" d="M477.5,735.3h2.2l4.3,11.2h-2.2l-0.9-2.3h-4.6l-0.9,2.3h-2.2L477.5,735.3z M478.6,738.2l-1.5,3.8h3
			L478.6,738.2z"/>
		<path style="fill:#C41530;" d="M483.6,735.3h6.2v2.1h-2v9.1h-2.2v-9.1h-2V735.3z"/>
		<path style="fill:#C41530;" d="M491.7,735.3h2.1l2.6,7.8l2.6-7.8h2.1l1.9,11.2h-2.1l-1.2-7l-2.4,7h-1.9l-2.3-7l-1.2,7h-2.1
			L491.7,735.3z"/>
	</g>
	<g>
		<path style="fill:#C41530;" d="M598.2,318.9c-0.5-0.7-0.8-1.4-0.7-2.3l2.5-22.1c0.1-0.9,0.5-1.5,1.2-2.1c0.6-0.5,1.4-0.7,2.3-0.7
			l2.5,0.3c0.9,0.1,1.6,0.5,2.1,1.1c0.5,0.7,0.7,1.4,0.6,2.3l-1.1,9.9l13.3-10.6c0.7-0.5,1.4-0.7,2.2-0.6s1.4,0.6,2,1.2l1.9,2.4
			c0.5,0.7,0.8,1.4,0.7,2.2c0,0.8-0.4,1.5-1,2l-13.3,10.6l10,1.2c0.8,0.1,1.5,0.5,2.1,1.1c0.5,0.7,0.8,1.4,0.6,2.3l-0.3,2.5
			c-0.1,0.9-0.5,1.5-1.1,2.1c-0.7,0.5-1.4,0.7-2.3,0.6l-22.1-2.5C599.4,320,598.7,319.6,598.2,318.9z"/>
	</g>
	<g>
		<path style="fill:#C41530;" d="M162.2,815.6c0.8,0.3,1.4,0.9,1.7,1.7l8.3,20.6c0.3,0.8,0.3,1.6,0,2.4c-0.3,0.8-0.9,1.3-1.7,1.7
			l-2.4,1c-0.8,0.3-1.6,0.3-2.4,0c-0.8-0.3-1.3-0.9-1.7-1.7l-3.7-9.3l-6.6,15.6c-0.3,0.8-0.9,1.3-1.6,1.5c-0.8,0.2-1.5,0.2-2.3-0.1
			l-2.8-1.2c-0.8-0.3-1.4-0.9-1.7-1.6c-0.4-0.7-0.4-1.5,0-2.2l6.6-15.6l-9.3,3.7c-0.8,0.3-1.6,0.3-2.4,0c-0.8-0.3-1.3-0.9-1.6-1.7
			l-1-2.4c-0.3-0.8-0.3-1.6,0-2.4c0.3-0.8,0.9-1.3,1.7-1.7l20.6-8.3C160.6,815.3,161.3,815.3,162.2,815.6z"/>
	</g>
	<g>
		<path style="fill:#C41530;" d="M488.3,788.3c0.6-0.6,1.3-1,2.1-1l22.2-1.2c0.9,0,1.6,0.2,2.2,0.8c0.6,0.5,0.9,1.3,1,2.1l0.1,2.6
			c0,0.9-0.2,1.6-0.8,2.2c-0.6,0.6-1.3,1-2.2,1l-10,0.5l12.6,11.4c0.6,0.6,0.9,1.2,0.9,2c0,0.8-0.3,1.5-0.9,2.1l-2.1,2.3
			c-0.6,0.6-1.3,1-2,1.1c-0.8,0.1-1.5-0.1-2.1-0.7l-12.6-11.4l0.5,10c0.1,0.8-0.2,1.6-0.8,2.2c-0.6,0.6-1.3,1-2.1,1l-2.6,0.1
			c-0.9,0-1.6-0.2-2.2-0.8c-0.6-0.6-1-1.3-1-2.2l-1.2-22.2C487.4,789.7,487.7,789,488.3,788.3z"/>
	</g>
	<g>
		<path style="fill:#C41530;" d="M941,722.3c0.6-0.6,1.3-1,2.1-1l22.2-1.2c0.9,0,1.6,0.2,2.2,0.8c0.6,0.5,0.9,1.3,1,2.1l0.1,2.6
			c0,0.9-0.2,1.6-0.8,2.2c-0.6,0.6-1.3,1-2.2,1l-10,0.5l12.6,11.4c0.6,0.6,0.9,1.2,0.9,2c0,0.8-0.3,1.5-0.9,2.1l-2.1,2.3
			c-0.6,0.6-1.3,1-2,1.1c-0.8,0.1-1.5-0.1-2.1-0.7l-12.6-11.4l0.5,10c0.1,0.8-0.2,1.6-0.8,2.2c-0.6,0.6-1.3,1-2.1,1l-2.6,0.1
			c-0.9,0-1.6-0.2-2.2-0.8c-0.6-0.6-1-1.3-1-2.2l-1.2-22.2C940.1,723.7,940.4,723,941,722.3z"/>
	</g>
	<g>
		<path style="fill:#C41530;" d="M137.5,659.8c0,2.1-1.8,3.8-3.8,3.8h-27.5c-2.1,0-3.8-1.7-3.8-3.8v-27.5c0-2.1,1.8-3.8,3.8-3.8
			h27.5c2.1,0,3.8,1.7,3.8,3.8V659.8"/>
		<g>
			<path style="fill:#FFFFFF;" d="M129.3,648.1c0,0.4-0.1,0.7-0.4,1c-0.3,0.3-0.6,0.4-1,0.4c-0.5,0-0.9-0.2-1.2-0.6l-3.3-5h-0.7v1.9
				l3.6,6c0.1,0.1,0.1,0.3,0.1,0.5c0,0.3-0.1,0.5-0.3,0.7c-0.2,0.2-0.4,0.3-0.7,0.3h-2.8v4c0,0.4-0.2,0.8-0.5,1.2
				c-0.3,0.3-0.7,0.5-1.2,0.5h-2.3c-0.4,0-0.8-0.2-1.2-0.5c-0.3-0.3-0.5-0.7-0.5-1.2v-4h-2.8c-0.3,0-0.5-0.1-0.7-0.3
				c-0.2-0.2-0.3-0.4-0.3-0.7c0-0.2,0-0.3,0.1-0.5l3.6-6v-1.9h-0.7l-3.3,5c-0.3,0.4-0.7,0.6-1.2,0.6c-0.4,0-0.7-0.1-1-0.4
				c-0.3-0.3-0.4-0.6-0.4-1c0-0.3,0.1-0.5,0.2-0.8l3.7-5.6c0.7-1,1.6-1.6,2.6-1.6h5.6c1,0,1.9,0.5,2.6,1.6l3.7,5.6
				C129.2,647.6,129.3,647.8,129.3,648.1z M122.3,634.1c0.6,0.6,1,1.4,1,2.3c0,0.9-0.3,1.7-1,2.3c-0.6,0.6-1.4,1-2.3,1
				s-1.7-0.3-2.3-1c-0.6-0.6-1-1.4-1-2.3c0-0.9,0.3-1.7,1-2.3c0.6-0.6,1.4-1,2.3-1S121.6,633.5,122.3,634.1z"/>
		</g>
	</g>
	<g>
		<path style="fill:#C41530;" d="M176.2,686.8c0,2.1-1.8,3.8-3.8,3.8H145c-2.1,0-3.8-1.7-3.8-3.8v-27.5c0-2.1,1.8-3.8,3.8-3.8h27.5
			c2.1,0,3.8,1.7,3.8,3.8V686.8"/>
		<g>
			<path style="fill:#FFFFFF;" d="M155.4,683.4c1,0,1.9-0.3,2.8-0.9l2,2c-1.4,1.1-2.9,1.6-4.7,1.6c-1.4,0-2.7-0.3-3.9-1
				c-1.2-0.7-2.1-1.6-2.8-2.8c-0.7-1.2-1-2.5-1-3.8c0-1.8,0.5-3.3,1.6-4.7l2,2c-0.6,0.8-0.8,1.8-0.8,2.8c0,1.4,0.5,2.5,1.4,3.5
				C152.8,682.9,154,683.4,155.4,683.4z M167,672.3c0.3,0.3,0.5,0.7,0.4,1.2l-0.6,7.8c0,0.4-0.2,0.7-0.5,1c-0.3,0.3-0.6,0.4-1,0.4
				c-0.1,0-0.1,0-0.1,0c-0.4,0-0.8-0.2-1-0.5c-0.3-0.3-0.4-0.7-0.4-1.1l0.5-6l-2,0.1c0.5,1.1,0.8,2.2,0.8,3.4c0,2-0.7,3.8-2.1,5.2
				l-1.9-1.9c0.9-0.9,1.3-2.1,1.3-3.3c0-1.4-0.5-2.5-1.4-3.5c-1-1-2.1-1.5-3.5-1.5c-1.3,0-2.4,0.4-3.3,1.3l-1.9-1.9
				c1.1-1.1,2.5-1.7,4-2l3.7-4.2l-2.1-1.2l-2.6,2.3c-0.3,0.3-0.7,0.4-1.1,0.4s-0.8-0.2-1-0.5c-0.3-0.3-0.4-0.7-0.4-1.1
				c0-0.4,0.2-0.8,0.5-1l3.4-3c0.2-0.2,0.5-0.3,0.8-0.4c0.3,0,0.6,0,0.9,0.2l6.9,4c0.3,0.2,0.6,0.5,0.7,1c0.2,0.6,0,1.2-0.4,1.6
				l-2.9,3.3l5.2-0.3C166.3,671.8,166.7,672,167,672.3z M166,665.1c-0.5,0.5-1.1,0.7-1.8,0.7s-1.3-0.2-1.8-0.7
				c-0.5-0.5-0.7-1.1-0.7-1.8s0.2-1.3,0.7-1.8c0.5-0.5,1.1-0.7,1.8-0.7s1.3,0.2,1.8,0.7c0.5,0.5,0.7,1.1,0.7,1.8
				S166.5,664.6,166,665.1z"/>
		</g>
	</g>
	<g>
		<path style="fill:#C41530;" d="M203.6,631.9c0,2.1-1.8,3.8-3.8,3.8h-27.5c-2.1,0-3.8-1.7-3.8-3.8v-27.5c0-2.1,1.8-3.8,3.8-3.8
			h27.5c2.1,0,3.8,1.7,3.8,3.8V631.9"/>
		<g>
			<path style="fill:#FFFFFF;" d="M193.6,615.1v6.1c0,0.4-0.1,0.7-0.4,1c-0.3,0.3-0.6,0.4-1,0.4c-0.4,0-0.7-0.1-1-0.4
				c-0.3-0.3-0.4-0.6-0.4-1V616h-0.9v13.3c0,0.4-0.2,0.8-0.5,1.2c-0.3,0.3-0.7,0.5-1.2,0.5c-0.4,0-0.8-0.2-1.2-0.5
				c-0.3-0.3-0.5-0.7-0.5-1.2v-6.8h-0.9v6.8c0,0.4-0.2,0.8-0.5,1.2c-0.3,0.3-0.7,0.5-1.2,0.5c-0.4,0-0.8-0.2-1.2-0.5
				c-0.3-0.3-0.5-0.7-0.5-1.2V616h-0.9v5.1c0,0.4-0.1,0.7-0.4,1c-0.3,0.3-0.6,0.4-1,0.4c-0.4,0-0.7-0.1-1-0.4
				c-0.3-0.3-0.4-0.6-0.4-1v-6.1c0-0.8,0.3-1.4,0.8-2c0.5-0.5,1.2-0.8,2-0.8h9.3c0.8,0,1.4,0.3,2,0.8
				C193.3,613.7,193.6,614.3,193.6,615.1z M188.4,606.3c0.6,0.6,1,1.4,1,2.3c0,0.9-0.3,1.7-1,2.3c-0.6,0.6-1.4,1-2.3,1
				c-0.9,0-1.7-0.3-2.3-1c-0.6-0.6-1-1.4-1-2.3c0-0.9,0.3-1.7,1-2.3c0.6-0.6,1.4-1,2.3-1C187,605.3,187.8,605.6,188.4,606.3z"/>
		</g>
	</g>
	<g>
		<path style="fill:#C41530;" d="M505.4,727.7c0,2.1-1.8,3.8-3.8,3.8h-27.5c-2.1,0-3.8-1.7-3.8-3.8v-27.5c0-2.1,1.8-3.8,3.8-3.8
			h27.5c2.1,0,3.8,1.7,3.8,3.8V727.7"/>
		<g>
			<g>
				<path style="fill:#FFFFFF;" d="M498.6,719.7c0,0.3,0,0.6-0.1,1c-0.1,0.4-0.2,0.8-0.3,1c-0.2,0.5-0.8,1-1.8,1.5
					c-0.9,0.5-1.8,0.7-2.7,0.7c-0.3,0-0.5,0-0.8-0.1c-0.3,0-0.5-0.1-0.8-0.2c-0.3-0.1-0.5-0.2-0.7-0.2c-0.2-0.1-0.4-0.2-0.8-0.3
					c-0.4-0.1-0.6-0.2-0.7-0.3c-1-0.3-1.8-0.7-2.5-1.2c-1.2-0.8-2.5-1.8-3.8-3.1c-1.3-1.3-2.4-2.6-3.1-3.8c-0.5-0.7-0.9-1.6-1.2-2.5
					c0-0.1-0.1-0.3-0.3-0.7s-0.2-0.7-0.3-0.8c-0.1-0.1-0.1-0.4-0.2-0.7c-0.1-0.3-0.1-0.6-0.2-0.8s-0.1-0.5-0.1-0.8
					c0-0.9,0.2-1.8,0.7-2.7c0.5-1,1.1-1.6,1.5-1.8c0.2-0.1,0.6-0.2,1-0.3c0.4-0.1,0.8-0.1,1-0.1c0.1,0,0.2,0,0.3,0
					c0.2,0.1,0.4,0.4,0.8,1.1c0.1,0.2,0.3,0.4,0.4,0.8s0.4,0.6,0.5,0.9c0.2,0.3,0.3,0.5,0.5,0.8c0,0,0.1,0.2,0.3,0.4
					c0.1,0.2,0.2,0.4,0.3,0.5c0.1,0.1,0.1,0.3,0.1,0.4c0,0.2-0.1,0.4-0.4,0.7c-0.3,0.3-0.6,0.6-0.9,0.8c-0.3,0.2-0.6,0.5-0.9,0.8
					s-0.4,0.5-0.4,0.7c0,0.1,0,0.2,0.1,0.3c0,0.1,0.1,0.2,0.1,0.3c0,0.1,0.1,0.2,0.2,0.3c0.1,0.2,0.2,0.3,0.2,0.3
					c0.7,1.3,1.6,2.5,2.5,3.4c1,1,2.1,1.8,3.4,2.5c0,0,0.1,0.1,0.3,0.2c0.2,0.1,0.3,0.2,0.3,0.2c0.1,0,0.2,0.1,0.3,0.1
					c0.1,0,0.2,0.1,0.3,0.1c0.2,0,0.4-0.1,0.7-0.4s0.5-0.6,0.8-0.9c0.2-0.3,0.5-0.6,0.8-0.9c0.3-0.3,0.5-0.4,0.7-0.4
					c0.1,0,0.3,0,0.4,0.1c0.1,0.1,0.3,0.2,0.5,0.3c0.2,0.1,0.3,0.2,0.4,0.3c0.2,0.1,0.5,0.3,0.8,0.5s0.6,0.3,0.9,0.5
					s0.6,0.3,0.8,0.4c0.7,0.3,1,0.6,1.1,0.8C498.5,719.5,498.6,719.6,498.6,719.7z"/>
			</g>
		</g>
	</g>
	<g>
		<path style="fill:#C41530;" d="M352,372.8h2.2l4.3,11.2h-2.2l-0.9-2.3h-4.6l-0.9,2.3h-2.2L352,372.8z M353.1,375.8l-1.5,3.8h3
			L353.1,375.8z"/>
		<path style="fill:#C41530;" d="M358.1,372.8h6.2v2.1h-2v9.1h-2.2v-9.1h-2V372.8z"/>
		<path style="fill:#C41530;" d="M366.2,372.8h2.1l2.6,7.8l2.6-7.8h2.1l1.9,11.2h-2.1l-1.2-7l-2.4,7h-1.9l-2.3-7l-1.2,7h-2.1
			L366.2,372.8z"/>
	</g>
	<g>
		<path style="fill:#C41530;" d="M377.5,496.5c0,2.1-1.8,3.8-3.8,3.8h-27.5c-2.1,0-3.8-1.7-3.8-3.8V469c0-2.1,1.8-3.8,3.8-3.8h27.5
			c2.1,0,3.8,1.7,3.8,3.8V496.5"/>
		<g>
			<path style="fill:#FFFFFF;" d="M367.5,479.7v6.1c0,0.4-0.1,0.7-0.4,1c-0.3,0.3-0.6,0.4-1,0.4c-0.4,0-0.7-0.1-1-0.4
				c-0.3-0.3-0.4-0.6-0.4-1v-5.1h-0.9V494c0,0.4-0.2,0.8-0.5,1.2c-0.3,0.3-0.7,0.5-1.2,0.5c-0.4,0-0.8-0.2-1.2-0.5
				c-0.3-0.3-0.5-0.7-0.5-1.2v-6.8h-0.9v6.8c0,0.4-0.2,0.8-0.5,1.2c-0.3,0.3-0.7,0.5-1.2,0.5c-0.4,0-0.8-0.2-1.2-0.5
				c-0.3-0.3-0.5-0.7-0.5-1.2v-13.3h-0.9v5.1c0,0.4-0.1,0.7-0.4,1c-0.3,0.3-0.6,0.4-1,0.4c-0.4,0-0.7-0.1-1-0.4
				c-0.3-0.3-0.4-0.6-0.4-1v-6.1c0-0.8,0.3-1.4,0.8-2c0.5-0.5,1.2-0.8,2-0.8h9.3c0.8,0,1.4,0.3,2,0.8
				C367.2,478.3,367.5,478.9,367.5,479.7z M362.3,470.9c0.6,0.6,1,1.4,1,2.3s-0.3,1.7-1,2.3c-0.6,0.6-1.4,1-2.3,1
				c-0.9,0-1.7-0.3-2.3-1c-0.6-0.6-1-1.4-1-2.3s0.3-1.7,1-2.3c0.6-0.6,1.4-1,2.3-1C360.9,469.9,361.7,470.2,362.3,470.9z"/>
		</g>
	</g>
	<g>
		<path style="fill:#C41530;" d="M370.5,461.9c-0.4,0-0.8-0.2-1.1-0.5l-8-8c-0.3-0.3-0.5-0.7-0.5-1.1c0-0.4,0.2-0.8,0.5-1.1l0.9-0.9
			c0.3-0.3,0.7-0.5,1.1-0.5s0.8,0.2,1.1,0.5l3.6,3.6v-8.7c0-0.4,0.2-0.8,0.5-1c0.3-0.3,0.7-0.4,1.1-0.4h1.6c0.4,0,0.8,0.1,1.1,0.4
			c0.3,0.3,0.5,0.6,0.5,1v8.7l3.6-3.6c0.3-0.3,0.7-0.5,1.1-0.5c0.4,0,0.8,0.2,1.1,0.5l0.9,0.9c0.3,0.3,0.5,0.7,0.5,1.1
			c0,0.4-0.2,0.8-0.5,1.1l-8,8C371.4,461.7,371,461.9,370.5,461.9z"/>
	</g>
	<g>
		<path style="fill:#C41530;" d="M349.5,443.8c0.4,0,0.8,0.2,1.1,0.5l8,8c0.3,0.3,0.5,0.7,0.5,1.1c0,0.4-0.2,0.8-0.5,1.1l-0.9,0.9
			c-0.3,0.3-0.7,0.5-1.1,0.5s-0.8-0.2-1.1-0.5l-3.6-3.6v8.7c0,0.4-0.2,0.8-0.5,1c-0.3,0.3-0.7,0.4-1.1,0.4h-1.6
			c-0.4,0-0.8-0.1-1.1-0.4c-0.3-0.3-0.5-0.6-0.5-1v-8.7l-3.6,3.6c-0.3,0.3-0.7,0.5-1.1,0.5c-0.4,0-0.8-0.2-1.1-0.5l-0.9-0.9
			c-0.3-0.3-0.5-0.7-0.5-1.1c0-0.4,0.2-0.8,0.5-1.1l8-8C348.6,443.9,349,443.8,349.5,443.8z"/>
	</g>
	<g>
		<path style="fill:#C41530;" d="M615.5,717.5c0,2.1-1.8,3.8-3.8,3.8h-27.5c-2.1,0-3.8-1.7-3.8-3.8V690c0-2.1,1.8-3.8,3.8-3.8h27.5
			c2.1,0,3.8,1.7,3.8,3.8V717.5"/>
		<g>
			<path style="fill:#FFFFFF;" d="M605.4,700.7v6.1c0,0.4-0.1,0.7-0.4,1c-0.3,0.3-0.6,0.4-1,0.4c-0.4,0-0.7-0.1-1-0.4
				c-0.3-0.3-0.4-0.6-0.4-1v-5.1h-0.9v13.3c0,0.4-0.2,0.8-0.5,1.2c-0.3,0.3-0.7,0.5-1.2,0.5c-0.4,0-0.8-0.2-1.2-0.5
				c-0.3-0.3-0.5-0.7-0.5-1.2v-6.8h-0.9v6.8c0,0.4-0.2,0.8-0.5,1.2c-0.3,0.3-0.7,0.5-1.2,0.5c-0.4,0-0.8-0.2-1.2-0.5
				c-0.3-0.3-0.5-0.7-0.5-1.2v-13.3h-0.9v5.1c0,0.4-0.1,0.7-0.4,1c-0.3,0.3-0.6,0.4-1,0.4c-0.4,0-0.7-0.1-1-0.4
				c-0.3-0.3-0.4-0.6-0.4-1v-6.1c0-0.8,0.3-1.4,0.8-2c0.5-0.5,1.2-0.8,2-0.8h9.3c0.8,0,1.4,0.3,2,0.8
				C605.1,699.2,605.4,699.9,605.4,700.7z M600.2,691.8c0.6,0.6,1,1.4,1,2.3c0,0.9-0.3,1.7-1,2.3c-0.6,0.6-1.4,1-2.3,1
				c-0.9,0-1.7-0.3-2.3-1c-0.6-0.6-1-1.4-1-2.3c0-0.9,0.3-1.7,1-2.3c0.6-0.6,1.4-1,2.3-1C598.8,690.9,599.6,691.2,600.2,691.8z"/>
		</g>
	</g>
	<g>
		<path style="fill:#C41530;" d="M608.4,682.9c-0.4,0-0.8-0.2-1.1-0.5l-8-8c-0.3-0.3-0.5-0.7-0.5-1.1c0-0.4,0.2-0.8,0.5-1.1l0.9-0.9
			c0.3-0.3,0.7-0.5,1.1-0.5s0.8,0.2,1.1,0.5l3.6,3.6v-8.7c0-0.4,0.2-0.8,0.5-1c0.3-0.3,0.7-0.4,1.1-0.4h1.6c0.4,0,0.8,0.1,1.1,0.4
			c0.3,0.3,0.5,0.6,0.5,1v8.7l3.6-3.6c0.3-0.3,0.7-0.5,1.1-0.5c0.4,0,0.8,0.2,1.1,0.5l0.9,0.9c0.3,0.3,0.5,0.7,0.5,1.1
			c0,0.4-0.2,0.8-0.5,1.1l-8,8C609.3,682.7,608.9,682.9,608.4,682.9z"/>
	</g>
	<g>
		<path style="fill:#C41530;" d="M587.4,664.7c0.4,0,0.8,0.2,1.1,0.5l8,8c0.3,0.3,0.5,0.7,0.5,1.1c0,0.4-0.2,0.8-0.5,1.1l-0.9,0.9
			c-0.3,0.3-0.7,0.5-1.1,0.5c-0.4,0-0.8-0.2-1.1-0.5l-3.6-3.6v8.7c0,0.4-0.2,0.8-0.5,1c-0.3,0.3-0.7,0.4-1.1,0.4h-1.6
			c-0.4,0-0.8-0.1-1.1-0.4c-0.3-0.3-0.5-0.6-0.5-1v-8.7l-3.6,3.6c-0.3,0.3-0.7,0.5-1.1,0.5c-0.4,0-0.8-0.2-1.1-0.5l-0.9-0.9
			c-0.3-0.3-0.5-0.7-0.5-1.1c0-0.4,0.2-0.8,0.5-1.1l8-8C586.6,664.9,586.9,664.7,587.4,664.7z"/>
	</g>
	<g>
		<g>
			<path style="fill:#C41530;" d="M357.4,422.4c0,2.1-1.8,3.8-3.8,3.8h-27.5c-2.1,0-3.8-1.7-3.8-3.8v-27.5c0-2.1,1.8-3.8,3.8-3.8
				h27.5c2.1,0,3.8,1.7,3.8,3.8V422.4"/>
		</g>
		<path style="fill:#FFFFFF;" d="M350.7,400h-5.5c-0.8,0-1.6,0.4-2.1,1l-3.9,4.6v-0.2c0-1.3-1-2.3-2.3-2.3c-1.3,0-2.3,1-2.3,2.3v5.4
			c0,0,0,0.1,0,0.1l-1.4,1.7l-4.1,0c-1.5,0-2.7,1.2-2.7,2.7c0,1.5,1.2,2.7,2.7,2.7h0l5.4,0c0.8,0,1.6-0.4,2.1-1l9.9-11.6h4.2
			c1.5,0,2.7-1.2,2.7-2.7C353.4,401.2,352.2,400,350.7,400L350.7,400z M350.7,400"/>
		<path style="fill:#FFFFFF;" d="M348.8,410c-0.2-0.2-0.6-0.2-0.9,0l-3.6,3.6c-0.1,0.1-0.1,0.3-0.1,0.4c0.1,0.1,0.2,0.2,0.4,0.2h1.7
			v4.6c0,0.3,0.3,0.6,0.6,0.6h2.8c0.3,0,0.6-0.3,0.6-0.6v-4.6h1.7c0.2,0,0.3-0.1,0.4-0.2c0.1-0.1,0-0.3-0.1-0.4L348.8,410z
			 M348.8,410"/>
		<path style="fill:#FFFFFF;" d="M336.9,402.2c1.2,0,2.2-1,2.2-2.2c0-1.2-1-2.2-2.2-2.2c-1.2,0-2.2,1-2.2,2.2
			C334.7,401.2,335.7,402.2,336.9,402.2L336.9,402.2z M336.9,402.2"/>
	</g>
	<g>
		<g>
			<path style="fill:#C41530;" d="M521,370.1c0,2.1-1.8,3.8-3.8,3.8h-27.5c-2.1,0-3.8-1.7-3.8-3.8v-27.5c0-2.1,1.8-3.8,3.8-3.8h27.5
				c2.1,0,3.8,1.7,3.8,3.8V370.1"/>
		</g>
		<path style="fill:#FFFFFF;" d="M514.2,347.7h-5.5c-0.8,0-1.6,0.4-2.1,1l-3.9,4.6v-0.2c0-1.3-1-2.3-2.3-2.3c-1.3,0-2.3,1-2.3,2.3
			v5.4c0,0,0,0.1,0,0.1l-1.4,1.7l-4.1,0c-1.5,0-2.7,1.2-2.7,2.7c0,1.5,1.2,2.7,2.7,2.7h0l5.4,0c0.8,0,1.6-0.4,2.1-1l9.9-11.6h4.2
			c1.5,0,2.7-1.2,2.7-2.7C516.9,349,515.7,347.7,514.2,347.7L514.2,347.7z M514.2,347.7"/>
		<path style="fill:#FFFFFF;" d="M512.3,357.7c-0.2-0.2-0.6-0.2-0.9,0l-3.6,3.6c-0.1,0.1-0.1,0.3-0.1,0.4c0.1,0.1,0.2,0.2,0.4,0.2
			h1.7v4.6c0,0.3,0.3,0.6,0.6,0.6h2.8c0.3,0,0.6-0.3,0.6-0.6V362h1.7c0.2,0,0.3-0.1,0.4-0.2c0.1-0.1,0-0.3-0.1-0.4L512.3,357.7z
			 M512.3,357.7"/>
		<path style="fill:#FFFFFF;" d="M500.4,349.9c1.2,0,2.2-1,2.2-2.2c0-1.2-1-2.2-2.2-2.2c-1.2,0-2.2,1-2.2,2.2
			C498.2,348.9,499.2,349.9,500.4,349.9L500.4,349.9z M500.4,349.9"/>
	</g>
	<g>
		<g>
			<path style="fill:#C41530;" d="M557.3,405.4c0,2.1-1.8,3.8-3.8,3.8H526c-2.1,0-3.8-1.7-3.8-3.8v-27.5c0-2.1,1.8-3.8,3.8-3.8h27.5
				c2.1,0,3.8,1.7,3.8,3.8V405.4"/>
		</g>
		<path style="fill:#FFFFFF;" d="M550.5,383H545c-0.8,0-1.6,0.4-2.1,1l-3.9,4.6v-0.2c0-1.3-1-2.3-2.3-2.3c-1.3,0-2.3,1-2.3,2.3v5.4
			c0,0,0,0.1,0,0.1l-1.4,1.7l-4.1,0c-1.5,0-2.7,1.2-2.7,2.7c0,1.5,1.2,2.7,2.7,2.7h0l5.4,0c0.8,0,1.6-0.4,2.1-1l9.9-11.6h4.2
			c1.5,0,2.7-1.2,2.7-2.7C553.3,384.2,552,383,550.5,383L550.5,383z M550.5,383"/>
		<path style="fill:#FFFFFF;" d="M548.7,393c-0.2-0.2-0.6-0.2-0.9,0l-3.6,3.6c-0.1,0.1-0.1,0.3-0.1,0.4c0.1,0.1,0.2,0.2,0.4,0.2h1.7
			v4.6c0,0.3,0.3,0.6,0.6,0.6h2.8c0.3,0,0.6-0.3,0.6-0.6v-4.6h1.7c0.2,0,0.3-0.1,0.4-0.2c0.1-0.1,0-0.3-0.1-0.4L548.7,393z
			 M548.7,393"/>
		<path style="fill:#FFFFFF;" d="M536.8,385.2c1.2,0,2.2-1,2.2-2.2c0-1.2-1-2.2-2.2-2.2c-1.2,0-2.2,1-2.2,2.2
			C534.5,384.2,535.5,385.2,536.8,385.2L536.8,385.2z M536.8,385.2"/>
	</g>
	<g>
		<path style="fill:#C41530;" d="M512.9,409.6c0,2.1-1.8,3.8-3.8,3.8h-27.5c-2.1,0-3.8-1.7-3.8-3.8v-27.5c0-2.1,1.8-3.8,3.8-3.8
			h27.5c2.1,0,3.8,1.7,3.8,3.8V409.6"/>
	</g>
	<g>
		<path style="fill:#FFFFFF;" d="M495.3,384.7c0.7,0,1.3,0.3,1.8,0.8c0.5,0.5,0.7,1.1,0.7,1.8c0,0.7-0.2,1.3-0.7,1.8
			c-0.5,0.5-1.1,0.7-1.8,0.7c-0.7,0-1.3-0.3-1.8-0.8c-0.5-0.5-0.7-1.1-0.7-1.9c0-0.7,0.2-1.3,0.7-1.8S494.6,384.7,495.3,384.7z
			 M493.4,391.2h4V407h-4V391.2z"/>
	</g>
	<g>
		<g>
			<path style="fill:#C41530;" d="M512.8,544.3c0,2.1-1.8,3.8-3.8,3.8h-27.5c-2.1,0-3.8-1.7-3.8-3.8v-27.5c0-2.1,1.8-3.8,3.8-3.8
				H509c2.1,0,3.8,1.7,3.8,3.8V544.3"/>
		</g>
		<path style="fill:#FFFFFF;" d="M506.1,522h-5.5c-0.8,0-1.6,0.4-2.1,1l-3.9,4.6v-0.2c0-1.3-1-2.3-2.3-2.3c-1.3,0-2.3,1-2.3,2.3v5.4
			c0,0,0,0.1,0,0.1l-1.4,1.7l-4.1,0c-1.5,0-2.7,1.2-2.7,2.7c0,1.5,1.2,2.7,2.7,2.7h0l5.4,0c0.8,0,1.6-0.4,2.1-1l9.9-11.6h4.2
			c1.5,0,2.7-1.2,2.7-2.7C508.8,523.2,507.6,522,506.1,522L506.1,522z M506.1,522"/>
		<path style="fill:#FFFFFF;" d="M504.2,532c-0.2-0.2-0.6-0.2-0.9,0l-3.6,3.6c-0.1,0.1-0.1,0.3-0.1,0.4c0.1,0.1,0.2,0.2,0.4,0.2h1.7
			v4.6c0,0.3,0.3,0.6,0.6,0.6h2.8c0.3,0,0.6-0.3,0.6-0.6v-4.6h1.7c0.2,0,0.3-0.1,0.4-0.2c0.1-0.1,0-0.3-0.1-0.4L504.2,532z
			 M504.2,532"/>
		<path style="fill:#FFFFFF;" d="M492.3,524.2c1.2,0,2.2-1,2.2-2.2c0-1.2-1-2.2-2.2-2.2c-1.2,0-2.2,1-2.2,2.2
			C490.1,523.2,491.1,524.2,492.3,524.2L492.3,524.2z M492.3,524.2"/>
	</g>
	<g>
		<g>
			<path style="fill:#C41530;" d="M363,689.3c0,2.1-1.8,3.8-3.8,3.8h-27.5c-2.1,0-3.8-1.7-3.8-3.8v-27.5c0-2.1,1.8-3.8,3.8-3.8h27.5
				c2.1,0,3.8,1.7,3.8,3.8V689.3"/>
		</g>
		<path style="fill:#FFFFFF;" d="M356.2,666.9h-5.5c-0.8,0-1.6,0.4-2.1,1l-3.9,4.6v-0.2c0-1.3-1-2.3-2.3-2.3c-1.3,0-2.3,1-2.3,2.3
			v5.4c0,0,0,0.1,0,0.1l-1.4,1.7l-4.1,0c-1.5,0-2.7,1.2-2.7,2.7c0,1.5,1.2,2.7,2.7,2.7h0l5.4,0c0.8,0,1.6-0.4,2.1-1l9.9-11.6h4.2
			c1.5,0,2.7-1.2,2.7-2.7C359,668.2,357.7,666.9,356.2,666.9L356.2,666.9z M356.2,666.9"/>
		<path style="fill:#FFFFFF;" d="M354.4,676.9c-0.2-0.2-0.6-0.2-0.9,0l-3.6,3.6c-0.1,0.1-0.1,0.3-0.1,0.4c0.1,0.1,0.2,0.2,0.4,0.2
			h1.7v4.6c0,0.3,0.3,0.6,0.6,0.6h2.8c0.3,0,0.6-0.3,0.6-0.6v-4.6h1.7c0.2,0,0.3-0.1,0.4-0.2c0.1-0.1,0-0.3-0.1-0.4L354.4,676.9z
			 M354.4,676.9"/>
		<path style="fill:#FFFFFF;" d="M342.5,669.1c1.2,0,2.2-1,2.2-2.2c0-1.2-1-2.2-2.2-2.2c-1.2,0-2.2,1-2.2,2.2
			C340.2,668.1,341.2,669.1,342.5,669.1L342.5,669.1z M342.5,669.1"/>
	</g>
	<g>
		<g>
			<path style="fill:#C41530;" d="M458.2,701.5c0,2.1-1.8,3.8-3.8,3.8H427c-2.1,0-3.8-1.7-3.8-3.8V674c0-2.1,1.8-3.8,3.8-3.8h27.5
				c2.1,0,3.8,1.7,3.8,3.8V701.5"/>
		</g>
		<path style="fill:#FFFFFF;" d="M451.5,679.1H446c-0.8,0-1.6,0.4-2.1,1l-3.9,4.6v-0.2c0-1.3-1-2.3-2.3-2.3c-1.3,0-2.3,1-2.3,2.3
			v5.4c0,0,0,0.1,0,0.1l-1.4,1.7l-4.1,0c-1.5,0-2.7,1.2-2.7,2.7s1.2,2.7,2.7,2.7h0l5.4,0c0.8,0,1.6-0.4,2.1-1l9.9-11.6h4.2
			c1.5,0,2.7-1.2,2.7-2.7C454.2,680.3,453,679.1,451.5,679.1L451.5,679.1z M451.5,679.1"/>
		<path style="fill:#FFFFFF;" d="M449.6,689.1c-0.2-0.2-0.6-0.2-0.9,0l-3.6,3.6c-0.1,0.1-0.1,0.3-0.1,0.4c0.1,0.1,0.2,0.2,0.4,0.2
			h1.7v4.6c0,0.3,0.3,0.6,0.6,0.6h2.8c0.3,0,0.6-0.3,0.6-0.6v-4.6h1.7c0.2,0,0.3-0.1,0.4-0.2c0.1-0.1,0-0.3-0.1-0.4L449.6,689.1z
			 M449.6,689.1"/>
		<path style="fill:#FFFFFF;" d="M437.7,681.3c1.2,0,2.2-1,2.2-2.2c0-1.2-1-2.2-2.2-2.2c-1.2,0-2.2,1-2.2,2.2
			C435.5,680.3,436.5,681.3,437.7,681.3L437.7,681.3z M437.7,681.3"/>
	</g>
	<g>
		<g>
			<path style="fill:#C41530;" d="M865.8,711.6c0,2.1-1.8,3.8-3.8,3.8h-27.5c-2.1,0-3.8-1.7-3.8-3.8v-27.5c0-2.1,1.8-3.8,3.8-3.8
				H862c2.1,0,3.8,1.7,3.8,3.8V711.6"/>
		</g>
		<path style="fill:#FFFFFF;" d="M859.1,689.2h-5.5c-0.8,0-1.6,0.4-2.1,1l-3.9,4.6v-0.2c0-1.3-1-2.3-2.3-2.3c-1.3,0-2.3,1-2.3,2.3
			v5.4c0,0,0,0.1,0,0.1l-1.4,1.7l-4.1,0c-1.5,0-2.7,1.2-2.7,2.7s1.2,2.7,2.7,2.7h0l5.4,0c0.8,0,1.6-0.4,2.1-1l9.9-11.6h4.2
			c1.5,0,2.7-1.2,2.7-2.7C861.8,690.5,860.6,689.2,859.1,689.2L859.1,689.2z M859.1,689.2"/>
		<path style="fill:#FFFFFF;" d="M857.2,699.2c-0.2-0.2-0.6-0.2-0.9,0l-3.6,3.6c-0.1,0.1-0.1,0.3-0.1,0.4c0.1,0.1,0.2,0.2,0.4,0.2
			h1.7v4.6c0,0.3,0.3,0.6,0.6,0.6h2.8c0.3,0,0.6-0.3,0.6-0.6v-4.6h1.7c0.2,0,0.3-0.1,0.4-0.2c0.1-0.1,0-0.3-0.1-0.4L857.2,699.2z
			 M857.2,699.2"/>
		<path style="fill:#FFFFFF;" d="M845.3,691.5c1.2,0,2.2-1,2.2-2.2c0-1.2-1-2.2-2.2-2.2c-1.2,0-2.2,1-2.2,2.2
			C843.1,690.5,844.1,691.5,845.3,691.5L845.3,691.5z M845.3,691.5"/>
	</g>
</g>
<g id="text">
	<rect x="647.2" y="262.1" style="fill:none;" width="219.5" height="62.4"/>
	<text transform="matrix(1 0 0 1 669.0102 280.4999)"><tspan x="0" y="0" style="fill:#242324; font-family:'CenturyGothic-Bold'; font-size:25px;">Exit for Lightrail, </tspan><tspan x="-16.5" y="30" style="fill:#242324; font-family:'CenturyGothic-Bold'; font-size:25px;">Bus and Taxi Rank</tspan></text>
	<rect x="32.2" y="867.9" style="fill:none;" width="219.5" height="62.4"/>
	<text transform="matrix(1 0 0 1 62.7225 886.2999)"><tspan x="0" y="0" style="fill:#242324; font-family:'CenturyGothic-Bold'; font-size:25px;">Exit for Airport </tspan><tspan x="13.2" y="30" style="fill:#242324; font-family:'CenturyGothic-Bold'; font-size:25px;">Express Bus</tspan></text>
	<g>
		<path style="fill:#C41530;" d="M235.7,832.2l3.4,0.6l-2.2,11.4c-0.2,1-0.2,1.7-0.1,2.1c0.1,0.4,0.3,0.8,0.7,1.1
			c0.3,0.3,0.8,0.5,1.4,0.6c0.6,0.1,1.1,0.1,1.6-0.1s0.8-0.5,1.1-0.9c0.2-0.4,0.5-1.2,0.7-2.4l2.1-11l3.4,0.6l-2,10.5
			c-0.3,1.8-0.7,3-1,3.6c-0.3,0.7-0.8,1.2-1.5,1.8c-0.7,0.5-1.4,0.9-2.2,1.1c-0.8,0.2-1.7,0.2-2.7,0c-1.3-0.2-2.3-0.7-3.2-1.5
			c-0.8-0.8-1.4-1.6-1.6-2.6c-0.2-1-0.2-2.5,0.2-4.6L235.7,832.2z"/>
		<path style="fill:#C41530;" d="M250.7,834.6l3.3,0.6l-3.4,18.1l-3.3-0.6L250.7,834.6z"/>
		<path style="fill:#C41530;" d="M257.2,836.1l3.3,0.6l-0.9,4.8l1.9,0.4l-0.5,2.8l-1.9-0.4l-1.9,10.2l-3.3-0.6l1.9-10.2l-1.7-0.3
			l0.5-2.8l1.7,0.3L257.2,836.1z"/>
		<path style="fill:#C41530;" d="M265.3,837c0.6,0.1,1,0.4,1.4,0.9c0.3,0.5,0.4,1,0.3,1.6c-0.1,0.6-0.4,1-0.9,1.4
			c-0.5,0.3-1,0.4-1.6,0.3c-0.6-0.1-1-0.4-1.4-0.9c-0.3-0.5-0.4-1-0.3-1.6c0.1-0.6,0.4-1,0.9-1.4S264.8,836.9,265.3,837z
			 M262.7,842.1l3.3,0.6l-2.5,13l-3.3-0.6L262.7,842.1z"/>
		<path style="fill:#C41530;" d="M268.7,843.2l3.3,0.6l-0.3,1.5c0.7-0.5,1.4-0.9,2.1-1c0.7-0.2,1.5-0.2,2.3,0c0.8,0.2,1.5,0.5,2.1,1
			c0.6,0.5,1,1.2,1.3,2.1c0.7-0.7,1.4-1.1,2.2-1.4c0.8-0.3,1.7-0.3,2.6-0.1c0.9,0.2,1.7,0.5,2.3,1.1s1,1.2,1.2,2
			c0.2,0.8,0.1,1.9-0.2,3.5l-1.5,7.7l-3.3-0.6l1.3-6.6c0.3-1.5,0.3-2.5,0-3.1c-0.3-0.6-0.8-1-1.5-1.1c-0.6-0.1-1.1,0-1.6,0.2
			c-0.5,0.2-0.9,0.6-1.2,1.1c-0.3,0.5-0.6,1.4-0.8,2.7l-1.1,5.9l-3.3-0.6l1.2-6.3c0.2-1.2,0.3-2,0.2-2.6c-0.1-0.6-0.3-1-0.6-1.3
			c-0.3-0.3-0.7-0.5-1.2-0.6c-0.5-0.1-1.1,0-1.6,0.2c-0.5,0.2-0.9,0.6-1.3,1.2c-0.3,0.5-0.6,1.4-0.9,2.7l-1.1,5.8l-3.3-0.6
			L268.7,843.2z"/>
		<path style="fill:#C41530;" d="M297.5,848.4c1.2,0.2,2.3,0.8,3.3,1.6s1.7,1.8,2.1,3c0.4,1.2,0.5,2.4,0.3,3.6
			c-0.2,1.2-0.8,2.3-1.6,3.3c-0.8,1-1.8,1.6-3,2c-1.2,0.4-2.4,0.5-3.7,0.2c-1.9-0.4-3.3-1.3-4.4-2.9c-1.1-1.6-1.4-3.3-1.1-5.2
			c0.4-2,1.5-3.6,3.2-4.7C294.1,848.3,295.8,848,297.5,848.4z M296.9,851.4c-1-0.2-1.9,0-2.7,0.6c-0.8,0.6-1.3,1.4-1.5,2.5
			c-0.2,1.1-0.1,2.1,0.5,2.9c0.5,0.8,1.3,1.3,2.3,1.5c1,0.2,1.9,0,2.8-0.6c0.8-0.6,1.3-1.4,1.5-2.6c0.2-1.1,0-2.1-0.5-2.9
			C298.8,852.2,298,851.6,296.9,851.4z"/>
		<path style="fill:#C41530;" d="M314.4,847.1l3.6,0.7c1.9,0.4,3.3,0.8,4.1,1.3c0.8,0.5,1.3,1.2,1.7,2.1c0.4,0.9,0.4,1.9,0.2,3
			c-0.2,1.2-0.7,2.1-1.4,2.8c-0.7,0.7-1.7,1.1-2.8,1.3l2.7,8.6l-3.7-0.7l-2.6-8.2l-0.3-0.1l-1.4,7.5l-3.4-0.6L314.4,847.1z
			 M316.4,854.7l1.1,0.2c1.1,0.2,1.8,0.2,2.3,0c0.5-0.2,0.7-0.6,0.9-1.3c0.1-0.4,0-0.7-0.1-1.1c-0.1-0.3-0.4-0.6-0.7-0.8
			c-0.3-0.2-0.9-0.4-1.8-0.5l-0.9-0.2L316.4,854.7z"/>
		<path style="fill:#C41530;" d="M336.9,851l3.3,0.6l-3.4,18.1l-3.3-0.6l0.3-1.4c-0.8,0.5-1.5,0.8-2.2,0.9c-0.7,0.1-1.4,0.1-2.2,0
			c-1.7-0.3-3-1.2-4-2.8c-1-1.5-1.3-3.3-0.9-5.2c0.4-2,1.3-3.6,2.7-4.6c1.4-1.1,3-1.4,4.7-1.1c0.8,0.1,1.5,0.4,2.1,0.9
			s1.2,1,1.7,1.7L336.9,851z M332,858c-1-0.2-1.9,0-2.7,0.6c-0.8,0.6-1.3,1.4-1.5,2.6c-0.2,1.1,0,2.1,0.5,3s1.3,1.4,2.3,1.6
			c1,0.2,1.9,0,2.8-0.6c0.8-0.6,1.3-1.5,1.5-2.6c0.2-1.1,0.1-2.1-0.5-3C333.8,858.7,333,858.2,332,858z"/>
	</g>
	<g>
		<path style="fill:#C41530;" d="M699.8,796.5l9.5-2.8l0.9,3.2l-3.1,0.9l4.1,14l-3.3,1l-4.1-14l-3.1,0.9L699.8,796.5z"/>
		<path style="fill:#C41530;" d="M710.6,792.9l3.2-0.9l1.8,6.2c0.5-0.7,1-1.3,1.5-1.8c0.6-0.5,1.2-0.8,1.8-1
			c1.3-0.4,2.5-0.2,3.6,0.4c1,0.5,1.7,1.5,2.1,3l2.5,8.4l-3.2,0.9l-1.6-5.6c-0.4-1.5-0.8-2.5-1.1-2.9c-0.3-0.5-0.6-0.8-1.1-1
			c-0.4-0.2-0.9-0.2-1.4,0c-0.6,0.2-1.1,0.6-1.5,1.1c-0.3,0.6-0.5,1.2-0.5,2c0,0.4,0.2,1.3,0.6,2.7l1.5,5.1l-3.2,0.9L710.6,792.9z"
			/>
		<path style="fill:#C41530;" d="M731.8,791.6c1.2-0.4,2.4-0.4,3.7-0.1s2.3,0.9,3.2,1.7c0.9,0.9,1.5,1.9,1.9,3.1
			c0.4,1.2,0.4,2.4,0.1,3.6c-0.3,1.2-0.9,2.3-1.7,3.2c-0.9,0.9-1.9,1.5-3.1,1.9c-1.8,0.5-3.6,0.3-5.3-0.6c-1.7-0.9-2.8-2.3-3.3-4.2
			c-0.6-2-0.3-3.9,0.7-5.6C728.9,793.1,730.2,792.1,731.8,791.6z M732.8,794.6c-1,0.3-1.7,0.9-2.2,1.8c-0.5,0.9-0.5,1.9-0.2,2.9
			c0.3,1.1,0.9,1.9,1.8,2.4c0.9,0.5,1.8,0.6,2.8,0.3c1-0.3,1.7-0.9,2.2-1.8c0.5-0.9,0.5-1.9,0.2-3c-0.3-1.1-0.9-1.9-1.8-2.4
			C734.7,794.4,733.8,794.3,732.8,794.6z"/>
		<path style="fill:#C41530;" d="M740.8,789.4l3.2-0.9l0.4,1.5c0.4-0.8,0.8-1.4,1.4-1.9c0.6-0.5,1.3-0.9,2.1-1.1
			c0.8-0.2,1.6-0.2,2.3,0c0.8,0.2,1.4,0.6,2,1.3c0.3-0.9,0.7-1.7,1.4-2.3c0.6-0.6,1.4-1,2.2-1.3c0.9-0.3,1.8-0.3,2.6-0.1
			s1.5,0.6,2,1.2c0.5,0.6,1,1.7,1.4,3.2l2.2,7.5l-3.2,0.9l-1.9-6.5c-0.4-1.4-0.9-2.4-1.4-2.8c-0.5-0.4-1.1-0.5-1.8-0.3
			c-0.5,0.2-1,0.5-1.3,0.9c-0.3,0.4-0.5,1-0.6,1.6c0,0.6,0.1,1.5,0.5,2.7l1.7,5.8l-3.2,0.9l-1.8-6.2c-0.3-1.1-0.7-1.9-1-2.4
			c-0.3-0.5-0.7-0.8-1.1-0.9c-0.4-0.2-0.9-0.2-1.3,0c-0.5,0.2-1,0.5-1.3,0.9c-0.3,0.4-0.5,1-0.6,1.6c0,0.6,0.1,1.6,0.5,2.8l1.7,5.7
			l-3.2,0.9L740.8,789.4z"/>
		<path style="fill:#C41530;" d="M772.3,780.1l3.2-0.9l3.7,12.7l-3.2,0.9l-0.4-1.3c-0.5,0.8-1,1.4-1.5,1.8c-0.6,0.4-1.2,0.8-1.9,1
			c-1.6,0.5-3.3,0.3-4.8-0.7c-1.6-0.9-2.6-2.3-3.2-4.2c-0.6-2-0.5-3.8,0.3-5.3c0.8-1.6,2-2.6,3.7-3.1c0.8-0.2,1.5-0.3,2.3-0.2
			c0.8,0.1,1.5,0.3,2.2,0.8L772.3,780.1z M769.7,783.7c-1,0.3-1.7,0.9-2.2,1.8c-0.4,0.9-0.5,1.9-0.2,3c0.3,1.1,0.9,1.9,1.8,2.4
			c0.9,0.5,1.8,0.6,2.8,0.3c1-0.3,1.7-0.9,2.2-1.8c0.5-0.9,0.5-1.9,0.2-3c-0.3-1.1-0.9-1.9-1.8-2.4
			C771.7,783.5,770.7,783.4,769.7,783.7z"/>
		<path style="fill:#C41530;" d="M786.6,777.8l-1.4,2.6c-1-0.6-1.9-0.7-2.5-0.6c-0.4,0.1-0.6,0.3-0.8,0.5c-0.2,0.2-0.2,0.4-0.1,0.7
			c0.1,0.2,0.2,0.3,0.3,0.4c0.2,0.1,0.5,0.2,1.1,0.3l1.3,0.2c1.4,0.2,2.4,0.6,3.1,1.1c0.6,0.5,1.1,1.2,1.3,2
			c0.3,1.1,0.2,2.2-0.4,3.2c-0.6,1-1.6,1.7-3,2.1c-1.9,0.5-3.6,0.3-5.1-0.9l1.3-2.7c0.5,0.3,1,0.6,1.6,0.7c0.6,0.1,1.1,0.1,1.5,0
			c0.4-0.1,0.7-0.3,0.9-0.6c0.2-0.3,0.3-0.6,0.2-0.8c-0.1-0.5-0.7-0.8-1.8-1l-1.2-0.2c-2.4-0.4-3.8-1.4-4.2-3c-0.3-1-0.2-2,0.4-2.9
			c0.6-0.9,1.5-1.6,2.7-1.9c0.8-0.2,1.7-0.3,2.5-0.1C785.2,777,785.9,777.3,786.6,777.8z"/>
		<path style="fill:#C41530;" d="M803.4,768.7l-1.8,2.9c-1.2-0.9-2.2-1.3-3.1-1c-0.4,0.1-0.7,0.3-1,0.7c-0.2,0.3-0.3,0.6-0.2,0.9
			c0.1,0.3,0.3,0.5,0.5,0.7c0.4,0.3,1.4,0.8,3.1,1.5c1.6,0.7,2.5,1.1,2.9,1.3c0.9,0.5,1.5,1,2,1.5c0.5,0.5,0.8,1.2,1,1.9
			c0.4,1.4,0.3,2.7-0.4,3.9s-1.8,2-3.4,2.5c-1.2,0.4-2.4,0.4-3.5,0c-1.1-0.3-2.1-1.1-3.2-2.1l2.3-2.5c1.3,1.3,2.5,1.8,3.5,1.4
			c0.6-0.2,1-0.5,1.3-0.9c0.3-0.4,0.4-0.9,0.2-1.3c-0.1-0.4-0.4-0.7-0.8-1c-0.4-0.3-1.2-0.7-2.4-1.2c-2.3-1-3.9-1.8-4.7-2.5
			c-0.8-0.7-1.3-1.4-1.6-2.2c-0.4-1.2-0.2-2.4,0.5-3.5c0.7-1.1,1.7-1.9,3-2.3c0.9-0.3,1.7-0.3,2.6-0.1
			C801.1,767.4,802.2,767.9,803.4,768.7z"/>
		<path style="fill:#C41530;" d="M805.4,765.3l3.2-0.9l1.4,4.7l1.9-0.6l0.8,2.8l-1.9,0.6l2.9,10l-3.2,0.9l-2.9-10l-1.6,0.5l-0.8-2.8
			l1.6-0.5L805.4,765.3z"/>
	</g>
	<g>
		<path style="fill:#C41530;" d="M639,392.8l2.5,2.4l-4.7,4.9l4.3,4.2l4.7-4.9l2.5,2.4l-12.4,13l-2.5-2.4l5.5-5.7l-4.3-4.2l-5.5,5.7
			l-2.5-2.4L639,392.8z"/>
		<path style="fill:#C41530;" d="M654.5,414.1l2.4,2.3l-9.2,9.6l-2.4-2.3l1-1c-0.9,0-1.7-0.1-2.3-0.4c-0.7-0.3-1.3-0.6-1.8-1.2
			c-1.2-1.2-1.8-2.7-1.8-4.5c0-1.8,0.7-3.5,2.1-4.9c1.4-1.5,3-2.3,4.8-2.4c1.8-0.1,3.3,0.4,4.5,1.6c0.6,0.6,1,1.2,1.3,1.9
			c0.3,0.7,0.4,1.5,0.5,2.3L654.5,414.1z M650.1,413.7c-0.7-0.7-1.6-1-2.6-1c-1,0.1-1.9,0.5-2.7,1.3c-0.8,0.8-1.2,1.7-1.2,2.8
			c0,1,0.3,1.9,1.1,2.6c0.8,0.7,1.6,1.1,2.6,1c1,0,1.9-0.5,2.7-1.3c0.8-0.8,1.2-1.7,1.2-2.7C651.2,415.3,650.8,414.4,650.1,413.7z"
			/>
		<path style="fill:#C41530;" d="M657.9,417.4l2.5,2.4l-3.3,8.4l8.5-3.4l2.5,2.4l-18.6,7.3l-2.5-2.4l6-2.3L657.9,417.4z"/>
		<path style="fill:#C41530;" d="M682.3,437.8l-3.4-0.1c0.2-1.5,0-2.6-0.7-3.2c-0.3-0.3-0.7-0.5-1-0.5s-0.7,0.1-0.9,0.3
			c-0.2,0.2-0.3,0.5-0.4,0.8c0,0.4,0,1.6,0.2,3.4c0.2,1.7,0.3,2.7,0.3,3.1c0,1-0.1,1.8-0.3,2.5c-0.2,0.7-0.6,1.3-1.1,1.8
			c-1,1.1-2.2,1.6-3.6,1.6c-1.4,0-2.7-0.6-3.9-1.7c-0.9-0.9-1.5-1.9-1.8-3c-0.3-1.1-0.2-2.4,0.3-3.8l3.3,0.7c-0.5,1.7-0.3,3,0.5,3.8
			c0.4,0.4,0.9,0.6,1.4,0.7c0.5,0,0.9-0.1,1.3-0.4c0.3-0.3,0.5-0.7,0.5-1.2c0.1-0.5,0-1.4-0.1-2.7c-0.3-2.5-0.4-4.3-0.2-5.3
			c0.2-1,0.6-1.8,1.2-2.5c0.9-0.9,1.9-1.3,3.2-1.3c1.3,0,2.5,0.5,3.5,1.5c0.6,0.6,1.1,1.4,1.4,2.2S682.4,436.3,682.3,437.8z"/>
		<path style="fill:#C41530;" d="M686.3,437.8l2.4,2.3l-3.4,3.5l1.4,1.4l-2,2.1l-1.4-1.4l-7.2,7.5l-2.4-2.3l7.2-7.5l-1.2-1.2l2-2.1
			l1.2,1.2L686.3,437.8z"/>
	</g>
</g>
</svg>
