<?xml version="1.0" encoding="utf-8"?>
<!-- Generator: Adobe Illustrator 21.0.2, SVG Export Plug-In . SVG Version: 6.00 Build 0)  -->
<svg version="1.1" id="Layer_1" xmlns="http://www.w3.org/2000/svg" xmlns:xlink="http://www.w3.org/1999/xlink" x="0px" y="0px"
	 viewBox="0 0 1000 1000" style="enable-background:new 0 0 1000 1000;" xml:space="preserve">
<g id="Layer_1_1_">
	<path style="fill:#007236;" d="M678.6,757.5l0.4,4.3l0.1,0.8c0.1,2.5-0.3,4.9-1.3,7.1l-0.4-4.3c0.9-2.2,1.4-4.6,1.3-7.1
		L678.6,757.5"/>
	<path style="fill:#D3D3D3;" d="M678.6,757.5l0.4,4.3l0.1,0.8c0.4,9.5-7.5,17.6-17.8,18.2c-9.9,0.5-18.4-6.3-19.2-15.4l-0.4-4.3
		c0.9,9.1,9.3,15.9,19.2,15.4c10.3-0.5,18.2-8.7,17.8-18.2L678.6,757.5"/>
	<path style="fill:#D3B379;" d="M307.2,294.7l0.4,4.3c-0.6-6.1-1.9-11.6-4.2-16.2c-15.5-31.2-42.6-34.9-44-35.1l-0.4-4.3
		c1.4,0.2,28.5,3.9,44,35.1C305.4,283.1,306.7,288.6,307.2,294.7"/>
	<path style="fill:none;" d="M307.2,294.7c0.1,1.4,0.3,2.9,0.4,4.3c-0.6-6.1-1.9-11.6-4.2-16.2c-15.5-31.2-42.6-34.9-44-35.1
		l-0.4-4.3c1.4,0.2,28.5,3.9,44,35.1C305.4,283.1,306.7,288.6,307.2,294.7"/>
	<polyline style="fill:#D3B379;" points="263.5,308.8 263.9,313 244.8,380.7 244.3,376.4 263.5,308.8 	"/>
	<polyline style="fill:#D3B379;" points="301.1,448.5 301.5,452.8 212.8,377 212.4,372.7 301.1,448.5 	"/>
	<polyline style="fill:#D3B379;" points="613.8,400.1 614.2,404.5 579.2,439.1 578.8,434.8 613.8,400.1 	"/>
	<polyline style="fill:#D3B379;" points="172.2,760.7 172.6,765.1 97,746.2 96.6,741.8 172.2,760.7 	"/>
	<polyline style="fill:#D3B379;" points="271.3,767.1 271.7,771.4 261.6,784 261.2,779.7 271.3,767.1 	"/>
	<polyline style="fill:#D3B379;" points="261.2,779.7 261.6,784 244.1,780.9 243.7,776.6 261.2,779.7 	"/>
	<polyline style="fill:#D3B379;" points="352.2,777.2 352.6,781.5 271.7,771.4 271.3,767.2 352.2,777.2 	"/>
	<a xlink:href="#sydneyspaddys" >
		<path style="fill:#EAC77D;" d="M302.3,140.3c2.3-0.1,4.7,0.5,6.8,2.1c7.3,5.6,289.9,245.1,304.8,257.7l-35,34.7l51.5,44.4
			l35.7-35.3l254,214.6l-2.4,42.8L706,788.8l-58.6-46.4l-51.6,52.8c0.9,0.5,18,10.8,4.2,24.9c-4,4.1-7.8,5.6-11.3,5.8
			c-3.9,0.2-7.4-1.3-10.1-2.9c-2.7-1.5-4.8-3.1-6-3c-2.9,2.5-2.7,5.5-2.7,5.7l-169-15.3l4.6-26.6l-26.2-3.1l-4.1,26.2l-24.7-2.7
			l1.6-26.9l-80.9-10.1l-10.1,12.6l-17.5-3.1l-2.2,14.9l-73.6-7.8l4.3-23l-75.6-18.9L187.2,455l21.5-3.8l48.2,42.1l44.2-44.8
			l-88.8-75.8l27.6-83.3c1.1,0.3,22.4,5.1,23.5,19.3l-19.1,67.6l42.5,12.5c1.6-4,32-78.6,16.2-110.4c-15.5-31.2-42.6-34.9-44-35.1
			c1.4-4.4,28.2-86.7,30.5-93.4C291.1,145.3,296.6,140.6,302.3,140.3"/>
	</a>
	<polyline style="fill:#D3B379;" points="243.7,776.6 244.1,780.9 241.9,795.8 241.5,791.5 243.7,776.6 	"/>
	<polyline style="fill:#D3B379;" points="241.5,791.5 241.9,795.8 168.3,788 167.9,783.7 241.5,791.5 	"/>
	<polyline style="fill:#D3B379;" points="405.5,783.8 405.9,788.1 379.8,785 379.3,780.7 405.5,783.8 	"/>
	<polyline style="fill:#D3B379;" points="379.4,780.7 379.8,785 375.7,811.2 375.2,806.8 379.4,780.7 	"/>
	<polyline style="fill:#D3B379;" points="375.2,806.8 375.7,811.2 350.9,808.5 350.5,804.1 375.2,806.8 	"/>
	<polyline style="fill:#D3B379;" points="647.4,742.3 647.8,746.7 596.2,799.5 595.8,795.2 647.4,742.3 	"/>
	<polyline style="fill:#D3B379;" points="706,788.8 706.4,793.1 647.8,746.7 647.4,742.3 706,788.8 	"/>
	<polyline style="fill:#D3B379;" points="917.9,701.3 918.6,705.2 706.4,793.1 706,788.8 917.6,701.3 	"/>
	<polyline style="fill:#989A9D;" points="572.5,820 573,824.3 572,825.4 571.5,821.1 572.5,820 	"/>
	<path style="fill:#999C9E;" d="M571.5,821.1l0.4,4.3c-0.5,0.7-0.9,1.3-1.1,1.9l-0.4-4.3C570.7,822.4,571,821.7,571.5,821.1"/>
	<path style="fill:#9B9DA0;" d="M570.4,823l0.4,4.3c-0.6,1.5-0.6,2.7-0.6,2.7l-0.4-4.3C569.8,825.6,569.8,824.5,570.4,823"/>
	<path style="fill:none;" d="M572.6,820l0.4,4.3c-2.9,2.6-2.7,5.5-2.7,5.7l-0.4-4.3C569.8,825.5,569.7,822.6,572.6,820"/>
	<polyline style="fill:#D3B379;" points="569.9,825.7 570.3,830 401.3,814.8 400.9,810.4 569.9,825.7 	"/>
	<path style="fill:#9B9DA0;" d="M605.3,808l0.4,4.3c0.2,1.8-0.1,3.8-1,5.9l-0.4-4.3C605.2,811.8,605.4,809.8,605.3,808"/>
	<path style="fill:#999C9E;" d="M604.3,813.9l0.4,4.3c-0.6,1.4-1.5,2.8-2.7,4.3l-0.4-4.3C602.8,816.7,603.7,815.3,604.3,813.9"/>
	<path style="fill:#989A9D;" d="M601.6,818.2l0.4,4.3c-0.5,0.6-1.1,1.2-1.7,1.9c-0.8,0.8-1.6,1.5-2.4,2.2l-0.4-4.3
		c0.8-0.7,1.6-1.4,2.4-2.2C600.6,819.5,601.1,818.8,601.6,818.2"/>
	<path style="fill:#96989B;" d="M597.5,822.3l0.4,4.3c-1.2,1-2.4,1.7-3.6,2.3l-0.4-4.3C595.1,824,596.3,823.3,597.5,822.3"/>
	<path style="fill:#95979A;" d="M594,824.6l0.4,4.3c-1.8,0.9-3.6,1.3-5.3,1.4c-3.9,0.2-7.4-1.3-10.1-2.9c-2.8-1.5-4.9-3.1-6-3
		l-0.4-4.3c1.1-0.1,3.2,1.5,6,3c2.7,1.6,6.2,3,10.1,2.8C590.3,825.8,592.1,825.5,594,824.6"/>
	<path style="fill:none;" d="M605.3,808c0.1,1.4,0.3,2.9,0.4,4.3c0.3,3.5-0.9,7.6-5.3,12.1c-4,4.1-7.8,5.7-11.3,5.8
		c-3.9,0.2-7.4-1.3-10.1-2.8c-2.7-1.5-4.8-3.1-6-3.1l-0.4-4.3c1.1-0.1,3.2,1.5,6,3c2.7,1.5,6.2,3.1,10.1,2.9
		c3.5-0.2,7.3-1.8,11.3-5.8C604.3,815.6,605.6,811.5,605.3,808"/>
	<polyline style="fill:#3F4246;" points="397.4,650.8 397.8,655.2 391.9,650.6 391.5,646.3 397.4,650.8 	"/>
	<polyline style="fill:#43454A;" points="408.5,640 408.9,644.3 397.8,655.2 397.4,650.8 408.5,640 	"/>
	<polyline style="fill:#43454A;" points="391.5,646.3 391.9,650.6 370.2,673.6 369.8,669.3 391.5,646.3 	"/>
	<polyline style="fill:#3F4246;" points="364.3,683.9 364.6,688.2 350.6,676 350.2,671.7 364.3,683.9 	"/>
	<polyline style="fill:#434549;" points="374.9,674.4 375.3,678.7 364.6,688.2 364.3,683.9 374.9,674.4 	"/>
	<polyline style="fill:#43454A;" points="350.2,671.7 350.6,676 329.9,697.2 329.4,692.9 350.2,671.7 	"/>
	<polyline style="fill:#3F4246;" points="329.4,692.9 329.9,697.2 283.3,658.9 282.9,654.6 329.4,692.9 	"/>
	<polyline style="fill:#515358;" points="336.3,578.5 408.5,640 397.4,650.9 391.5,646.3 369.8,669.3 374.9,674.4 364.3,683.9 
		350.1,671.7 329.4,692.9 282.9,654.6 290.4,627.4 336.3,578.5 	"/>
	<polyline style="fill:#434549;" points="647.7,743 648.2,747.3 638.1,756.5 637.7,752.2 647.7,743 	"/>
	<polyline style="fill:#3F4246;" points="637.7,752.2 638.1,756.5 590.9,716 590.5,711.7 637.7,752.2 	"/>
	<polyline style="fill:#515358;" points="600.2,701.4 647.7,743 637.7,752.2 590.5,711.7 600.2,701.4 	"/>
	<polyline style="fill:#D3D3D3;" points="602.9,788 603.3,792.3 596.4,799 596,794.6 602.9,788 	"/>
	<polyline style="fill:none;" points="571.9,821.1 572.3,825.4 572.1,825.5 571.6,821.2 571.9,821.1 	"/>
	<polyline style="fill:#D3D3D3;" points="569.5,826 569.9,830.3 546.1,828.2 545.7,823.9 569.5,826 	"/>
	<path style="fill:#4D4D4F;" d="M571,821.8l0.4,4.3c-0.4,0.4-0.6,0.9-0.8,1.4l-0.4-4.3C570.4,822.8,570.7,822.3,571,821.8"/>
	<path style="fill:#D3D3D3;" d="M571.6,821.2l0.4,4.3c-1.8,1.5-2.2,4.7-2.2,4.8l-0.4-4.3C569.5,825.8,569.8,822.6,571.6,821.2"/>
	<path style="fill:#D3D3D3;" d="M606.5,809.7l0.4,4.3c0.3,3.5-0.8,7.3-4.5,11.2c-3.8,4-7.8,5.5-11.7,5.7c-4.3,0.2-8.4-1.2-11.7-2.6
		c-3.3-1.5-5.7-3-6.7-2.9l-0.4-4.3c1,0,3.4,1.5,6.8,2.9c3.3,1.5,7.3,2.9,11.7,2.6c3.8-0.2,7.9-1.7,11.7-5.7
		C605.7,817,606.8,813.2,606.5,809.7"/>
	<polyline style="fill:#D3D3D3;" points="389.6,210.1 390.1,214.5 259.5,247.6 259,243.2 389.6,210.1 	"/>
	<polyline style="fill:#B58D7F;" points="599.3,796.3 599.2,796.3 600.2,795.3 599.3,796.3 	"/>
	<polyline style="fill:#B68D7F;" points="241.9,795.8 241.9,795.1 242.1,795.1 241.9,795.8 	"/>
	<polyline style="fill:#515358;" points="611.3,711.1 591.1,711.1 592.2,709.9 609.9,709.9 611.3,711.1 	"/>
	<path style="fill:#00ACA2;" d="M272.5,202L272.5,202c0.1-0.4,0.2-0.8,0.3-1.2l0,0C272.8,201.2,272.7,201.6,272.5,202"/>
	<polyline style="fill:#434549;" points="643,752 643,747.3 644.2,746.3 644.2,750.9 643.9,751.2 643,752 	"/>
	<polyline style="fill:#515358;" points="643,747.3 643,738.8 644.2,739.8 644.2,746.3 643,747.3 	"/>
	<path style="fill:#D3D3D3;" d="M945.4,691.7c-0.5,1.6-1.5,2.9-2.6,3.5c-3.4,1.9-24.7,10.1-25.5,10.5l0.3-4.5l2.4-42.8
		c2.5,2.1,18.6,16.7,23.3,20.6C946.3,681.6,946.4,688.6,945.4,691.7"/>
	<path style="fill:#C41530;" d="M388,672.2c0,2.1-1.8,3.8-3.8,3.8h-27.5c-2.1,0-3.8-1.7-3.8-3.8v-27.5c0-2.1,1.8-3.8,3.8-3.8h27.5
		c2.1,0,3.8,1.7,3.8,3.8V672.2"/>
	<circle style="fill:#FFFFFF;" cx="370.4" cy="649.1" r="3.1"/>
	<circle style="fill:#FFFFFF;" cx="381.3" cy="658.9" r="1.6"/>
	<g>
		<path style="fill:#FFFFFF;" d="M360.7,670.8c-0.9,0-1.7-0.8-1.7-1.7v-9.9c0-0.4,0.2-0.8,0.4-1.1l5.4-5.9c0.5-0.5,1.2-0.7,1.8-0.4
			c0.6,0.3,1.1,0.9,1.1,1.6v3.6h1.5c0.9,0,1.7,0.8,1.7,1.7c0,0.9-0.8,1.7-1.7,1.7h-3.1c-0.9,0-1.7-0.8-1.7-1.7v-0.9l-2.1,2.3v9.2
			C362.4,670.1,361.7,670.8,360.7,670.8z"/>
	</g>
	<g>
		<path style="fill:#FFFFFF;" d="M381.8,664h-15.5c-0.6,0-1.1-0.5-1.1-1.1s0.5-1.1,1.1-1.1h15.5c0.6,0,1.1,0.5,1.1,1.1
			S382.4,664,381.8,664z"/>
	</g>
	<g>
		<path style="fill:#FFFFFF;" d="M378.2,660.5h-3.4c-0.4,0-0.7-0.2-0.8-0.6l-1.2-3h-1.1c-0.5,0-0.9-0.4-0.9-0.9s0.4-0.9,0.9-0.9h1.8
			c0.4,0,0.7,0.2,0.8,0.6l1.2,3h1.5l-0.7-1.6c-0.2-0.5,0-1,0.5-1.2c0.5-0.2,1,0,1.2,0.5l1.2,2.9c0.1,0.3,0.1,0.6-0.1,0.9
			C378.8,660.3,378.5,660.5,378.2,660.5z"/>
	</g>
</g>
<g id="landmarks-shops">
	<path id="g101" style="fill:#EFEFEF;" d="M659.4,742.2c10.2-0.5,18.9,6.7,19.3,16.2c0.4,9.5-7.5,17.6-17.8,18.2
		c-10.2,0.5-18.9-6.7-19.3-16.2C641.3,750.8,649.2,742.7,659.4,742.2"/>
	<path id="r126g" style="fill:#EFEFEF;" d="M584.5,772.5L603,788l-6.9,6.6c0.9,0.7,18.6,12.9,6,26.3c-3.8,4-7.8,5.5-11.7,5.7
		c-4.3,0.3-8.4-1.2-11.7-2.6c-3.3-1.4-5.7-2.9-6.8-2.9l-0.3,0.1c-1.8,1.4-2.2,4.7-2.2,4.8l-23.8-2.1l0.8-14.6L584.5,772.5"/>
	<path id="r101b" style="fill:#EFEFEF;" d="M301.7,139.7c2.4-0.1,4.6,0.4,6,1.6c4.2,3.4,78.1,65.6,82,68.8l-130.6,33.1
		c1.4-4.3,28.3-86.9,31-95.1C291.7,142.7,297.1,140,301.7,139.7"/>
	<path id="k112g" style="fill:#EFEFEF;" d="M945.2,687.5c-0.5,1.6-1.5,2.9-2.6,3.5c-3.4,1.9-21.7,8.6-24.9,10.3l2.4-42.8
		c2.5,2.1,17.9,15.3,22.6,19.2C945.8,680.2,946.2,684.4,945.2,687.5"/>
</g>
<g id="Text">
	<g>
		<path style="fill:#C41530;" d="M333.5,837.4l3.4,0.4l-1.3,11.5c-0.1,1-0.1,1.7,0,2.1c0.1,0.4,0.4,0.8,0.7,1.1
			c0.4,0.3,0.8,0.5,1.4,0.5c0.6,0.1,1.1,0,1.6-0.2c0.5-0.2,0.8-0.5,1-0.9c0.2-0.4,0.4-1.2,0.5-2.4l1.3-11.1l3.4,0.4l-1.2,10.6
			c-0.2,1.8-0.5,3-0.7,3.7c-0.3,0.7-0.7,1.3-1.4,1.9c-0.6,0.6-1.4,1-2.1,1.2c-0.8,0.2-1.7,0.3-2.6,0.2c-1.3-0.1-2.4-0.6-3.3-1.3
			c-0.9-0.7-1.5-1.5-1.8-2.5c-0.3-0.9-0.3-2.5-0.1-4.6L333.5,837.4z"/>
		<path style="fill:#C41530;" d="M348.7,838.7l3.3,0.4l-2.1,18.3l-3.3-0.4L348.7,838.7z"/>
		<path style="fill:#C41530;" d="M355.2,839.7l3.3,0.4l-0.6,4.9l2,0.2l-0.3,2.9l-2-0.2l-1.2,10.3l-3.3-0.4l1.2-10.3l-1.7-0.2
			l0.3-2.9l1.7,0.2L355.2,839.7z"/>
		<path style="fill:#C41530;" d="M363.5,840c0.6,0.1,1.1,0.3,1.4,0.8c0.4,0.5,0.5,1,0.4,1.6c-0.1,0.6-0.3,1.1-0.8,1.4
			c-0.5,0.4-1,0.5-1.5,0.5c-0.6-0.1-1.1-0.3-1.4-0.8c-0.4-0.5-0.5-1-0.4-1.6c0.1-0.6,0.3-1.1,0.8-1.4
			C362.4,840.1,362.9,840,363.5,840z M361.2,845.3l3.3,0.4l-1.5,13.2l-3.3-0.4L361.2,845.3z"/>
		<path style="fill:#C41530;" d="M367.2,846l3.3,0.4l-0.2,1.5c0.6-0.6,1.3-0.9,2-1.2c0.7-0.2,1.5-0.3,2.3-0.2
			c0.8,0.1,1.5,0.4,2.2,0.9c0.6,0.5,1.1,1.1,1.4,2c0.6-0.7,1.3-1.2,2.1-1.5c0.8-0.3,1.7-0.4,2.6-0.3c0.9,0.1,1.7,0.4,2.4,0.9
			c0.7,0.5,1.1,1.1,1.3,1.9s0.3,1.9,0.1,3.5l-0.9,7.7l-3.3-0.4l0.8-6.7c0.2-1.5,0.1-2.5-0.2-3.1s-0.8-0.9-1.6-1
			c-0.6-0.1-1.1,0-1.6,0.3c-0.5,0.3-0.9,0.7-1.2,1.2c-0.3,0.5-0.5,1.4-0.6,2.7l-0.7,6l-3.3-0.4l0.7-6.4c0.1-1.2,0.1-2,0-2.6
			c-0.1-0.5-0.3-1-0.6-1.3c-0.3-0.3-0.7-0.5-1.2-0.5c-0.6-0.1-1.1,0-1.6,0.3c-0.5,0.3-0.9,0.7-1.2,1.3c-0.3,0.6-0.5,1.5-0.7,2.8
			l-0.7,5.9l-3.3-0.4L367.2,846z"/>
		<path style="fill:#C41530;" d="M396.3,849c1.2,0.1,2.4,0.6,3.4,1.3c1,0.7,1.8,1.7,2.3,2.8c0.5,1.1,0.7,2.3,0.5,3.6
			c-0.1,1.2-0.6,2.4-1.3,3.4c-0.7,1-1.7,1.8-2.8,2.2c-1.1,0.5-2.3,0.7-3.6,0.5c-1.9-0.2-3.4-1.1-4.6-2.6c-1.2-1.5-1.7-3.2-1.4-5.1
			c0.2-2.1,1.2-3.7,2.9-4.9C393,849.2,394.6,848.8,396.3,849z M396,852.1c-1-0.1-1.9,0.1-2.7,0.8c-0.8,0.6-1.2,1.5-1.3,2.6
			c-0.1,1.1,0.1,2.1,0.7,2.9c0.6,0.8,1.4,1.2,2.4,1.4c1,0.1,1.9-0.1,2.7-0.8c0.8-0.6,1.2-1.5,1.4-2.7c0.1-1.1-0.1-2.1-0.7-2.9
			C397.9,852.7,397.1,852.2,396,852.1z"/>
		<path style="fill:#C41530;" d="M413.1,846.5l3.6,0.4c2,0.2,3.4,0.6,4.1,1c0.8,0.4,1.4,1.1,1.8,2c0.4,0.9,0.6,1.9,0.4,3
			c-0.1,1.2-0.5,2.1-1.2,2.8c-0.7,0.7-1.6,1.2-2.7,1.5l3.3,8.4l-3.7-0.4l-3.1-8l-0.3,0l-0.9,7.6l-3.4-0.4L413.1,846.5z M415.7,853.9
			l1.1,0.1c1.1,0.1,1.8,0.1,2.3-0.2c0.4-0.2,0.7-0.7,0.8-1.3c0-0.4,0-0.7-0.2-1.1c-0.2-0.3-0.4-0.5-0.7-0.7
			c-0.3-0.2-0.9-0.3-1.8-0.4l-0.9-0.1L415.7,853.9z"/>
		<path style="fill:#C41530;" d="M435.9,848.7l3.3,0.4l-2.1,18.3l-3.3-0.4l0.2-1.4c-0.7,0.5-1.4,0.9-2.1,1.1
			c-0.7,0.2-1.4,0.3-2.2,0.2c-1.7-0.2-3.1-1-4.2-2.5c-1.1-1.5-1.5-3.2-1.3-5.1c0.2-2,1-3.6,2.4-4.8c1.4-1.2,2.9-1.6,4.6-1.4
			c0.8,0.1,1.5,0.3,2.2,0.7c0.7,0.4,1.3,0.9,1.8,1.6L435.9,848.7z M431.5,856.1c-1-0.1-1.9,0.1-2.7,0.8c-0.8,0.6-1.2,1.5-1.3,2.7
			c-0.1,1.1,0.1,2.1,0.7,2.9s1.4,1.3,2.4,1.4c1,0.1,1.9-0.1,2.7-0.8c0.8-0.6,1.2-1.6,1.4-2.7c0.1-1.1-0.1-2.1-0.7-2.9
			C433.3,856.7,432.5,856.2,431.5,856.1z"/>
	</g>
	<g>
		<path style="fill:#C41530;" d="M765.6,791.1l9.1-3.9l1.3,3.1l-3,1.3l5.7,13.4l-3.2,1.3l-5.7-13.4l-2.9,1.2L765.6,791.1z"/>
		<path style="fill:#C41530;" d="M775.9,786.2l3-1.3l2.5,6c0.4-0.8,0.8-1.4,1.3-1.9c0.5-0.5,1.1-0.9,1.7-1.2c1.2-0.5,2.4-0.5,3.6,0
			c1,0.4,1.8,1.3,2.4,2.8l3.4,8.1l-3,1.3l-2.3-5.4c-0.6-1.4-1.1-2.3-1.4-2.8c-0.3-0.4-0.7-0.7-1.2-0.8c-0.4-0.1-0.9-0.1-1.4,0.1
			c-0.6,0.3-1.1,0.7-1.3,1.3c-0.3,0.6-0.3,1.3-0.2,2.1c0.1,0.4,0.4,1.3,0.9,2.6l2.1,4.9l-3,1.3L775.9,786.2z"/>
		<path style="fill:#C41530;" d="M796.9,782.6c1.2-0.5,2.4-0.7,3.6-0.5c1.3,0.1,2.4,0.6,3.4,1.3c1,0.7,1.7,1.7,2.2,2.8
			c0.5,1.2,0.7,2.4,0.5,3.6c-0.1,1.2-0.6,2.4-1.4,3.3c-0.8,1-1.7,1.7-2.9,2.2c-1.8,0.7-3.5,0.7-5.3,0c-1.8-0.7-3-2-3.8-3.8
			c-0.8-1.9-0.8-3.8,0.1-5.7C794.1,784.4,795.3,783.3,796.9,782.6z M798.1,785.5c-1,0.4-1.6,1.1-2,2c-0.4,0.9-0.3,1.9,0.1,2.9
			c0.4,1.1,1.1,1.8,2,2.2c0.9,0.4,1.8,0.4,2.8,0c1-0.4,1.6-1.1,2-2c0.4-0.9,0.3-1.9-0.1-3c-0.4-1-1.1-1.8-2-2.2
			C800.1,785,799.1,785.1,798.1,785.5z"/>
		<path style="fill:#C41530;" d="M805.5,779.3l3.1-1.3l0.6,1.4c0.3-0.8,0.7-1.5,1.2-2c0.5-0.6,1.2-1,1.9-1.3
			c0.8-0.3,1.5-0.4,2.3-0.3c0.8,0.1,1.5,0.5,2.2,1c0.2-0.9,0.6-1.7,1.1-2.4c0.6-0.7,1.2-1.2,2.1-1.5c0.9-0.4,1.7-0.5,2.6-0.4
			c0.8,0.1,1.5,0.5,2.1,1s1.2,1.5,1.8,3l3,7.2l-3.1,1.3l-2.6-6.2c-0.6-1.4-1.2-2.3-1.7-2.6c-0.6-0.3-1.2-0.4-1.9-0.1
			c-0.5,0.2-0.9,0.6-1.2,1c-0.3,0.5-0.4,1-0.4,1.6c0,0.6,0.3,1.5,0.8,2.7l2.3,5.5l-3.1,1.3l-2.5-5.9c-0.5-1.1-0.9-1.9-1.2-2.3
			c-0.4-0.4-0.8-0.7-1.2-0.8c-0.4-0.1-0.9-0.1-1.3,0.1c-0.5,0.2-0.9,0.6-1.2,1c-0.3,0.5-0.4,1-0.4,1.7c0,0.6,0.3,1.5,0.8,2.7
			l2.3,5.4l-3.1,1.3L805.5,779.3z"/>
		<path style="fill:#C41530;" d="M835.8,766.6l3.1-1.3l5.2,12.2l-3.1,1.3l-0.5-1.3c-0.4,0.8-0.8,1.5-1.3,2c-0.5,0.5-1.1,0.9-1.8,1.2
			c-1.6,0.7-3.2,0.6-4.9-0.1c-1.7-0.7-2.9-2-3.7-3.8c-0.8-1.9-0.9-3.7-0.3-5.4c0.6-1.7,1.7-2.9,3.3-3.5c0.7-0.3,1.5-0.5,2.2-0.5
			s1.5,0.2,2.3,0.5L835.8,766.6z M833.6,770.4c-0.9,0.4-1.6,1.1-1.9,2c-0.3,0.9-0.3,1.9,0.1,3c0.4,1.1,1.1,1.8,2.1,2.2
			c0.9,0.4,1.9,0.4,2.8,0c1-0.4,1.6-1.1,2-2c0.4-0.9,0.3-2-0.2-3c-0.4-1.1-1.1-1.8-2-2.2C835.5,770,834.6,770,833.6,770.4z"/>
		<path style="fill:#C41530;" d="M849.7,762.7l-1.1,2.7c-1.1-0.4-2-0.5-2.6-0.3c-0.3,0.1-0.6,0.3-0.7,0.6c-0.1,0.2-0.2,0.5-0.1,0.7
			c0.1,0.2,0.2,0.3,0.4,0.4c0.2,0.1,0.6,0.1,1.2,0.2l1.4,0.1c1.4,0.1,2.5,0.3,3.2,0.8c0.7,0.4,1.2,1,1.6,1.9c0.5,1.1,0.4,2.2,0,3.2
			c-0.5,1.1-1.4,1.9-2.8,2.4c-1.8,0.8-3.5,0.7-5.2-0.3l1-2.9c0.5,0.3,1.1,0.4,1.7,0.5c0.6,0.1,1.1,0,1.5-0.2
			c0.4-0.2,0.7-0.4,0.9-0.7c0.2-0.3,0.2-0.6,0.1-0.8c-0.2-0.5-0.8-0.7-1.9-0.8l-1.3-0.1c-2.4-0.2-3.9-1-4.5-2.5c-0.4-1-0.4-2,0.1-3
			c0.5-1,1.3-1.7,2.4-2.2c0.8-0.3,1.6-0.5,2.5-0.4C848.2,762,849,762.2,849.7,762.7z"/>
		<path style="fill:#C41530;" d="M865.3,751.7l-1.5,3c-1.3-0.8-2.4-1-3.2-0.7c-0.4,0.2-0.7,0.4-0.9,0.8s-0.2,0.6-0.1,0.9
			c0.1,0.3,0.3,0.5,0.6,0.7c0.4,0.2,1.5,0.6,3.2,1.2c1.6,0.5,2.6,0.8,3,1c0.9,0.4,1.6,0.8,2.1,1.3c0.5,0.5,0.9,1.1,1.2,1.8
			c0.6,1.4,0.6,2.7,0,4s-1.6,2.2-3.1,2.9c-1.2,0.5-2.3,0.6-3.4,0.4c-1.1-0.2-2.2-0.8-3.4-1.8l2-2.7c1.4,1.1,2.6,1.5,3.7,1
			c0.5-0.2,0.9-0.6,1.2-1c0.2-0.5,0.3-0.9,0.1-1.3c-0.2-0.4-0.5-0.7-0.9-0.9c-0.4-0.3-1.3-0.6-2.6-0.9c-2.4-0.7-4.1-1.4-4.9-1.9
			c-0.9-0.6-1.5-1.3-1.8-2.1c-0.5-1.1-0.5-2.3,0.1-3.5c0.5-1.2,1.4-2.1,2.7-2.6c0.8-0.3,1.7-0.5,2.6-0.4S864,751,865.3,751.7z"/>
		<path style="fill:#C41530;" d="M866.9,748.1l3.1-1.3l1.9,4.5l1.8-0.8l1.1,2.6l-1.8,0.8l4,9.6l-3.1,1.3l-4-9.6l-1.6,0.7l-1.1-2.6
			l1.6-0.7L866.9,748.1z"/>
	</g>
	<g>
		<path style="fill:#C41530;" d="M709.6,397l2.6,2.3l-4.4,5.1l4.5,3.9l4.4-5.1l2.6,2.3L707.6,419l-2.6-2.3l5.2-6l-4.5-3.9l-5.2,6
			l-2.6-2.3L709.6,397z"/>
		<path style="fill:#C41530;" d="M726.2,417.5l2.5,2.2l-8.7,10l-2.5-2.2l0.9-1.1c-0.9,0-1.7,0-2.4-0.3c-0.7-0.2-1.3-0.6-1.9-1.1
			c-1.3-1.1-2-2.6-2.1-4.4c-0.1-1.8,0.5-3.5,1.8-5c1.3-1.5,2.9-2.4,4.7-2.6c1.8-0.2,3.3,0.3,4.6,1.4c0.6,0.5,1.1,1.1,1.4,1.8
			c0.3,0.7,0.5,1.5,0.6,2.3L726.2,417.5z M721.7,417.3c-0.8-0.7-1.7-1-2.7-0.9c-1,0.1-1.9,0.6-2.6,1.4c-0.8,0.9-1.1,1.8-1.1,2.8
			c0,1,0.4,1.9,1.2,2.5c0.8,0.7,1.7,1,2.7,0.9c1-0.1,1.9-0.6,2.7-1.5c0.8-0.9,1.1-1.8,1.1-2.8C723,418.8,722.5,418,721.7,417.3z"/>
		<path style="fill:#C41530;" d="M729.7,420.6l2.6,2.2l-2.9,8.6l8.3-3.8l2.6,2.2l-18.2,8.3l-2.6-2.3l5.9-2.6L729.7,420.6z"/>
		<path style="fill:#C41530;" d="M755.2,439.7l-3.4,0c0.1-1.5-0.1-2.6-0.8-3.2c-0.3-0.3-0.7-0.4-1.1-0.4c-0.4,0-0.7,0.1-0.9,0.3
			c-0.2,0.2-0.3,0.5-0.3,0.8c0,0.5,0.1,1.6,0.4,3.4c0.3,1.7,0.4,2.7,0.4,3.1c0.1,1,0,1.8-0.2,2.5c-0.2,0.7-0.5,1.3-1,1.9
			c-1,1.1-2.1,1.7-3.5,1.8c-1.4,0.1-2.7-0.4-4-1.5c-1-0.8-1.6-1.8-1.9-2.9c-0.3-1.1-0.3-2.4,0.1-3.8l3.3,0.6c-0.4,1.8-0.2,3,0.7,3.8
			c0.4,0.4,0.9,0.6,1.5,0.6s0.9-0.2,1.2-0.5c0.3-0.3,0.4-0.7,0.5-1.2c0-0.5-0.1-1.4-0.3-2.7c-0.4-2.5-0.6-4.2-0.4-5.3
			c0.1-1,0.5-1.9,1.1-2.5c0.8-0.9,1.9-1.4,3.2-1.5c1.3-0.1,2.5,0.4,3.5,1.3c0.7,0.6,1.2,1.3,1.5,2.1
			C755,437.1,755.2,438.3,755.2,439.7z"/>
		<path style="fill:#C41530;" d="M759.1,439.6l2.5,2.2l-3.2,3.7l1.5,1.3l-1.9,2.2l-1.5-1.3l-6.8,7.9l-2.5-2.2l6.8-7.9l-1.3-1.1
			l1.9-2.2l1.3,1.1L759.1,439.6z"/>
	</g>
	<g>
		<path style="fill:#C41530;" d="M114.4,549.8l4.8-1.7l-1.2,3.9l-2.4,0.9c0.3,1.5,0.2,3-0.3,4.5c-0.8,2.6-2.4,4.4-4.7,5.5
			c-2.3,1.1-4.7,1.3-7.1,0.5c-1.6-0.5-3-1.4-4.1-2.6c-1.1-1.2-1.8-2.7-2.2-4.3c-0.4-1.6-0.3-3.3,0.2-4.8c0.8-2.4,2.3-4.2,4.6-5.4
			c2.3-1.2,4.7-1.4,7.2-0.5C111.5,546.4,113.3,547.8,114.4,549.8z M111.2,551c-0.8-1-1.8-1.7-3.1-2.1c-1.6-0.5-3.2-0.4-4.7,0.3
			c-1.5,0.7-2.5,1.9-3,3.4c-0.5,1.6-0.4,3.1,0.4,4.5c0.8,1.4,2,2.4,3.7,3c1.9,0.6,3.6,0.4,5.1-0.6c1.2-0.8,2-1.9,2.5-3.2
			c0.3-0.8,0.3-1.6,0.3-2.3l-4.9,1.8l1.3-3.9L111.2,551z"/>
		<path style="fill:#C41530;" d="M105.9,541.6l1-3.2l6.1,2c1.2,0.4,2,0.6,2.5,0.6c0.5,0,1-0.2,1.3-0.4c0.4-0.3,0.6-0.7,0.8-1.2
			c0.2-0.5,0.2-1,0.1-1.5c-0.1-0.4-0.4-0.8-0.8-1.2c-0.3-0.2-1.1-0.6-2.3-1l-6.2-2l1-3.2l5.4,1.7c2.2,0.7,3.7,1.4,4.4,2
			c0.9,0.7,1.4,1.6,1.7,2.6c0.3,1,0.2,2.1-0.2,3.4c-0.4,1.4-1.1,2.4-2,3.1c-0.9,0.7-2,1-3.2,1c-0.8,0-2.3-0.3-4.3-1L105.9,541.6z"/>
		<path style="fill:#C41530;" d="M113.5,518l1-3.2l12.6,4.1l-1,3.2l-1.3-0.4c0.4,0.8,0.6,1.6,0.7,2.3c0.1,0.7,0,1.4-0.3,2.2
			c-0.5,1.6-1.6,2.8-3.3,3.6c-1.7,0.8-3.4,0.9-5.3,0.3c-2-0.6-3.4-1.7-4.2-3.3c-0.9-1.6-1-3.2-0.5-4.8c0.2-0.8,0.6-1.4,1.1-2
			c0.5-0.6,1.1-1,1.9-1.4L113.5,518z M115.1,522.1c-0.3,1-0.2,1.9,0.3,2.8c0.5,0.9,1.3,1.5,2.4,1.8c1.1,0.4,2.1,0.3,3-0.1
			c0.9-0.4,1.5-1.1,1.8-2.1c0.3-1,0.2-1.9-0.2-2.8c-0.5-0.9-1.3-1.5-2.4-1.9c-1.1-0.4-2.1-0.3-3,0.1
			C116,520.4,115.4,521.1,115.1,522.1z"/>
		<path style="fill:#C41530;" d="M115.1,513l1-3.2l9-0.7l-6.8-6.2l1-3.2l14.7,13.5l-1.1,3.3l-4.7-4.4L115.1,513z"/>
		<path style="fill:#C41530;" d="M123.1,481.1l1.3,3.1c-1.5,0.5-2.3,1.1-2.6,2c-0.1,0.4-0.1,0.8,0,1.2c0.1,0.3,0.4,0.6,0.6,0.7
			c0.3,0.1,0.6,0.1,0.9,0c0.4-0.2,1.4-0.7,3-1.7c1.4-0.9,2.3-1.4,2.7-1.6c0.9-0.4,1.7-0.7,2.4-0.8c0.7-0.1,1.4,0,2.1,0.2
			c1.4,0.5,2.4,1.3,3,2.6c0.6,1.3,0.6,2.7,0.1,4.2c-0.4,1.2-1,2.2-1.9,2.9c-0.9,0.7-2.1,1.2-3.6,1.4l-0.8-3.3c1.8-0.3,2.8-1,3.2-2.1
			c0.2-0.6,0.2-1.1,0-1.6c-0.2-0.5-0.5-0.8-0.9-0.9c-0.4-0.1-0.8-0.1-1.3,0.1c-0.5,0.2-1.3,0.6-2.4,1.3c-2.1,1.4-3.7,2.2-4.7,2.5
			c-1,0.3-1.9,0.3-2.7,0c-1.2-0.4-2.1-1.2-2.6-2.3c-0.6-1.2-0.6-2.4-0.2-3.8c0.3-0.9,0.7-1.6,1.4-2.2
			C120.8,482.3,121.7,481.7,123.1,481.1z"/>
		<path style="fill:#C41530;" d="M121.7,476.9l1-3.2l4.7,1.5l0.6-1.9l2.7,0.9l-0.6,1.9l9.9,3.2l-1,3.2l-9.9-3.2l-0.5,1.6l-2.7-0.9
			l0.5-1.6L121.7,476.9z"/>
	</g>
	<g>
		<path style="fill:#C41530;" d="M102.7,375.7h3.1v13.2h4.5v2.9h-7.5V375.7z"/>
		<path style="fill:#C41530;" d="M117.8,379.6c1.1,0,2.2,0.3,3.2,0.8c1,0.6,1.8,1.3,2.3,2.3c0.6,1,0.8,2,0.8,3.1
			c0,1.1-0.3,2.2-0.8,3.1c-0.6,1-1.3,1.7-2.3,2.3s-2,0.8-3.2,0.8c-1.7,0-3.2-0.6-4.4-1.8s-1.8-2.7-1.8-4.4c0-1.9,0.7-3.4,2-4.6
			C114.8,380.1,116.2,379.6,117.8,379.6z M117.8,382.4c-0.9,0-1.7,0.3-2.3,1c-0.6,0.6-0.9,1.5-0.9,2.5c0,1,0.3,1.9,0.9,2.5
			c0.6,0.6,1.4,1,2.3,1s1.7-0.3,2.3-1c0.6-0.6,0.9-1.5,0.9-2.5s-0.3-1.8-0.9-2.5C119.5,382.7,118.8,382.4,117.8,382.4z"/>
		<path style="fill:#C41530;" d="M135.3,379.9h3v11.9h-3v-1.3c-0.6,0.6-1.2,1-1.8,1.2c-0.6,0.2-1.2,0.4-1.9,0.4
			c-1.5,0-2.9-0.6-4-1.8c-1.1-1.2-1.7-2.7-1.7-4.4c0-1.8,0.5-3.3,1.6-4.5s2.4-1.8,3.9-1.8c0.7,0,1.4,0.1,2,0.4
			c0.6,0.3,1.2,0.7,1.7,1.2V379.9z M132.1,382.4c-0.9,0-1.7,0.3-2.3,1c-0.6,0.7-0.9,1.5-0.9,2.5c0,1,0.3,1.9,0.9,2.5
			c0.6,0.7,1.4,1,2.3,1c0.9,0,1.7-0.3,2.3-1c0.6-0.7,0.9-1.5,0.9-2.6c0-1-0.3-1.9-0.9-2.5C133.9,382.7,133.1,382.4,132.1,382.4z"/>
		<path style="fill:#C41530;" d="M150.1,375.3h3v16.5h-3v-1.3c-0.6,0.6-1.2,1-1.8,1.2c-0.6,0.2-1.2,0.4-1.9,0.4
			c-1.5,0-2.9-0.6-4-1.8c-1.1-1.2-1.7-2.7-1.7-4.4c0-1.8,0.5-3.3,1.6-4.5s2.4-1.8,3.9-1.8c0.7,0,1.4,0.1,2,0.4
			c0.6,0.3,1.2,0.7,1.7,1.2V375.3z M146.9,382.4c-0.9,0-1.7,0.3-2.3,1c-0.6,0.7-0.9,1.5-0.9,2.5c0,1,0.3,1.9,0.9,2.5
			c0.6,0.7,1.4,1,2.3,1c0.9,0,1.7-0.3,2.3-1c0.6-0.7,0.9-1.5,0.9-2.6c0-1-0.3-1.9-0.9-2.5C148.6,382.7,147.9,382.4,146.9,382.4z"/>
		<path style="fill:#C41530;" d="M157.2,375c0.5,0,1,0.2,1.3,0.6c0.4,0.4,0.6,0.8,0.6,1.4c0,0.5-0.2,1-0.6,1.4
			c-0.4,0.4-0.8,0.6-1.3,0.6c-0.5,0-1-0.2-1.4-0.6s-0.6-0.8-0.6-1.4c0-0.5,0.2-1,0.6-1.3S156.7,375,157.2,375z M155.7,379.9h3v11.9
			h-3V379.9z"/>
		<path style="fill:#C41530;" d="M161.4,379.9h3v1.2c0.7-0.6,1.3-1,1.8-1.2c0.5-0.2,1.1-0.3,1.7-0.3c1.2,0,2.2,0.4,3,1.2
			c0.7,0.7,1,1.7,1,3.1v7.9H169v-5.2c0-1.4-0.1-2.4-0.2-2.8c-0.1-0.5-0.3-0.8-0.7-1.1c-0.3-0.2-0.7-0.4-1.2-0.4
			c-0.6,0-1.1,0.2-1.6,0.6c-0.4,0.4-0.7,1-0.9,1.7c-0.1,0.4-0.1,1.2-0.1,2.4v4.8h-3V379.9z"/>
		<path style="fill:#C41530;" d="M183.6,379.9h3v10.2c0,2-0.4,3.5-1.2,4.4c-1.1,1.3-2.7,1.9-4.9,1.9c-1.2,0-2.1-0.1-2.9-0.4
			c-0.8-0.3-1.5-0.7-2-1.3s-1-1.3-1.2-2.1h3.3c0.3,0.3,0.7,0.6,1.1,0.8c0.5,0.2,1,0.3,1.6,0.3c0.8,0,1.4-0.1,1.9-0.4
			c0.5-0.2,0.8-0.6,1-1c0.2-0.4,0.3-1.1,0.3-2c-0.5,0.5-1.1,0.9-1.6,1.1s-1.2,0.3-2,0.3c-1.6,0-2.9-0.6-4-1.7s-1.6-2.6-1.6-4.4
			c0-1.9,0.6-3.4,1.7-4.5c1.1-1,2.3-1.6,3.8-1.6c0.7,0,1.3,0.1,1.9,0.4c0.6,0.3,1.2,0.7,1.8,1.2V379.9z M180.5,382.4
			c-0.9,0-1.7,0.3-2.3,0.9s-0.9,1.4-0.9,2.4c0,1,0.3,1.8,0.9,2.4c0.6,0.6,1.4,1,2.4,1c0.9,0,1.7-0.3,2.3-0.9
			c0.6-0.6,0.9-1.4,0.9-2.4c0-1-0.3-1.8-0.9-2.4C182.3,382.7,181.5,382.4,180.5,382.4z"/>
		<path style="fill:#C41530;" d="M111.1,402.2h3v16.5h-3v-1.3c-0.6,0.6-1.2,1-1.8,1.2c-0.6,0.2-1.2,0.4-1.9,0.4
			c-1.5,0-2.9-0.6-4-1.8s-1.7-2.7-1.7-4.4c0-1.8,0.5-3.3,1.6-4.5c1.1-1.2,2.4-1.8,3.9-1.8c0.7,0,1.4,0.1,2,0.4
			c0.6,0.3,1.2,0.7,1.7,1.2V402.2z M108,409.2c-0.9,0-1.7,0.3-2.3,1s-0.9,1.5-0.9,2.5c0,1,0.3,1.9,0.9,2.5s1.4,1,2.3,1
			c0.9,0,1.7-0.3,2.3-1c0.6-0.7,0.9-1.5,0.9-2.6c0-1-0.3-1.9-0.9-2.5C109.7,409.5,108.9,409.2,108,409.2z"/>
		<path style="fill:#C41530;" d="M122.7,406.5c1.1,0,2.2,0.3,3.2,0.8c1,0.6,1.8,1.3,2.3,2.3c0.6,1,0.8,2,0.8,3.1
			c0,1.1-0.3,2.2-0.8,3.1c-0.6,1-1.3,1.7-2.3,2.3s-2,0.8-3.2,0.8c-1.7,0-3.2-0.6-4.4-1.8s-1.8-2.7-1.8-4.4c0-1.9,0.7-3.4,2-4.6
			C119.8,407,121.1,406.5,122.7,406.5z M122.7,409.3c-0.9,0-1.7,0.3-2.3,1c-0.6,0.6-0.9,1.5-0.9,2.5c0,1,0.3,1.9,0.9,2.5
			c0.6,0.6,1.4,1,2.3,1s1.7-0.3,2.3-1c0.6-0.6,0.9-1.5,0.9-2.5s-0.3-1.8-0.9-2.5C124.5,409.6,123.7,409.3,122.7,409.3z"/>
		<path style="fill:#C41530;" d="M143.1,409.2l-2.5,1.4c-0.5-0.5-0.9-0.8-1.4-1c-0.5-0.2-1-0.3-1.6-0.3c-1.1,0-2,0.3-2.7,1
			c-0.7,0.7-1,1.5-1,2.6c0,1,0.3,1.8,1,2.5c0.7,0.6,1.5,1,2.6,1c1.3,0,2.4-0.5,3.1-1.4l2.4,1.6c-1.3,1.7-3.1,2.5-5.4,2.5
			c-2.1,0-3.7-0.6-4.9-1.9c-1.2-1.2-1.8-2.7-1.8-4.3c0-1.2,0.3-2.2,0.9-3.2c0.6-1,1.4-1.7,2.4-2.3c1-0.6,2.2-0.8,3.5-0.8
			c1.2,0,2.2,0.2,3.2,0.7C141.7,407.6,142.5,408.3,143.1,409.2z"/>
		<path style="fill:#C41530;" d="M145.8,402.2h3v9.5l4.4-4.9h3.7l-5.1,5.7l5.7,6.2h-3.7l-5-5.5v5.5h-3V402.2z"/>
	</g>
	<g>
		<path style="fill:#FFFFFF;" d="M472.5,574.3l-2.3,2c-0.8-1.1-1.6-1.7-2.4-1.7c-0.4,0-0.7,0.1-1,0.3c-0.3,0.2-0.4,0.5-0.4,0.7
			s0.1,0.5,0.3,0.8c0.2,0.3,1,1,2.3,2.1c1.2,1,1.9,1.6,2.1,1.9c0.6,0.6,1.1,1.2,1.3,1.8c0.3,0.6,0.4,1.2,0.4,1.9
			c0,1.3-0.5,2.4-1.4,3.3c-0.9,0.9-2.1,1.3-3.6,1.3c-1.2,0-2.2-0.3-3-0.8c-0.9-0.6-1.6-1.5-2.2-2.7l2.6-1.6c0.8,1.4,1.7,2.1,2.7,2.1
			c0.5,0,1-0.2,1.3-0.5c0.4-0.3,0.5-0.7,0.5-1.1c0-0.4-0.1-0.7-0.4-1.1c-0.3-0.4-0.9-0.9-1.8-1.7c-1.8-1.4-2.9-2.5-3.4-3.3
			c-0.5-0.8-0.8-1.6-0.8-2.3c0-1.1,0.4-2.1,1.3-2.9c0.9-0.8,1.9-1.2,3.2-1.2c0.8,0,1.6,0.2,2.3,0.6
			C470.9,572.6,471.7,573.3,472.5,574.3z"/>
		<path style="fill:#FFFFFF;" d="M474.1,576.3h3.1l3.1,7.5l3.4-7.5h3.1l-7.5,16.4h-3.1l2.5-5.3L474.1,576.3z"/>
		<path style="fill:#FFFFFF;" d="M497.4,571.7h3v16.6h-3V587c-0.6,0.6-1.2,1-1.8,1.2c-0.6,0.2-1.2,0.4-1.9,0.4c-1.5,0-2.9-0.6-4-1.8
			s-1.7-2.7-1.7-4.5c0-1.8,0.5-3.4,1.6-4.5c1.1-1.2,2.4-1.8,4-1.8c0.7,0,1.4,0.1,2,0.4s1.2,0.7,1.7,1.2V571.7z M494.2,578.8
			c-0.9,0-1.7,0.3-2.3,1s-0.9,1.5-0.9,2.5c0,1,0.3,1.9,0.9,2.6s1.4,1,2.3,1c0.9,0,1.7-0.3,2.3-1c0.6-0.7,0.9-1.5,0.9-2.6
			c0-1-0.3-1.9-0.9-2.5C495.9,579.1,495.1,578.8,494.2,578.8z"/>
		<path style="fill:#FFFFFF;" d="M503.4,576.3h3v1.2c0.7-0.6,1.3-1,1.9-1.2c0.6-0.2,1.1-0.3,1.7-0.3c1.2,0,2.2,0.4,3,1.2
			c0.7,0.7,1,1.7,1,3.1v7.9h-3V583c0-1.4-0.1-2.4-0.2-2.8c-0.1-0.5-0.4-0.8-0.7-1.1c-0.3-0.2-0.7-0.4-1.2-0.4
			c-0.6,0-1.1,0.2-1.6,0.6c-0.4,0.4-0.7,1-0.9,1.7c-0.1,0.4-0.1,1.2-0.1,2.4v4.8h-3V576.3z"/>
		<path style="fill:#FFFFFF;" d="M528.9,583.2h-9.7c0.1,0.9,0.5,1.5,1.1,2s1.4,0.8,2.3,0.8c1.1,0,2.1-0.4,2.9-1.2l2.5,1.2
			c-0.6,0.9-1.4,1.6-2.3,2c-0.9,0.4-1.9,0.6-3.1,0.6c-1.9,0-3.4-0.6-4.6-1.8c-1.2-1.2-1.8-2.7-1.8-4.5c0-1.8,0.6-3.3,1.8-4.6
			c1.2-1.2,2.7-1.8,4.4-1.8c1.9,0,3.4,0.6,4.6,1.8c1.2,1.2,1.8,2.8,1.8,4.8L528.9,583.2z M525.9,580.8c-0.2-0.7-0.6-1.2-1.2-1.6
			c-0.6-0.4-1.3-0.6-2-0.6c-0.8,0-1.6,0.2-2.2,0.7c-0.4,0.3-0.8,0.8-1.1,1.6H525.9z"/>
		<path style="fill:#FFFFFF;" d="M530,576.3h3.1l3.1,7.5l3.4-7.5h3.1l-7.5,16.4h-3.1l2.5-5.3L530,576.3z"/>
		<path style="fill:#FFFFFF;" d="M544.6,571.7h2.8v1.5c0,1-0.1,1.8-0.4,2.5c-0.2,0.7-0.6,1.4-1.2,2.2l-1.1-0.8
			c0.3-0.4,0.5-0.7,0.6-1c0.1-0.3,0.3-0.7,0.4-1.1h-1.1V571.7z"/>
		<path style="fill:#FFFFFF;" d="M558.1,578l-1.9,1.9c-0.8-0.7-1.4-1.1-2.1-1.1c-0.3,0-0.6,0.1-0.8,0.2c-0.2,0.1-0.3,0.3-0.3,0.5
			c0,0.2,0.1,0.3,0.2,0.4c0.1,0.1,0.4,0.3,0.9,0.6l1.1,0.6c1.2,0.6,2,1.2,2.4,1.8s0.6,1.3,0.6,2.1c0,1.1-0.4,2-1.2,2.7
			c-0.8,0.7-1.8,1.1-3.1,1.1c-1.7,0-3.1-0.7-4.2-2l1.8-2c0.4,0.4,0.8,0.7,1.2,1c0.5,0.3,0.9,0.4,1.3,0.4c0.4,0,0.7-0.1,1-0.3
			c0.2-0.2,0.4-0.4,0.4-0.7c0-0.5-0.4-0.9-1.3-1.4l-1-0.5c-1.9-1-2.9-2.2-2.9-3.7c0-0.9,0.4-1.8,1.1-2.4s1.7-1,2.8-1
			c0.8,0,1.5,0.2,2.2,0.5C557,576.9,557.6,577.3,558.1,578z"/>
		<path style="fill:#FFFFFF;" d="M464,599.1h3.3c1.8,0,3,0.2,3.8,0.5s1.4,0.9,1.8,1.6c0.5,0.7,0.7,1.6,0.7,2.6
			c0,1.1-0.3,2.1-0.9,2.8c-0.6,0.7-1.4,1.3-2.4,1.6c-0.6,0.2-1.7,0.3-3.2,0.3v6.9H464V599.1z M467.1,605.5h1c0.8,0,1.3-0.1,1.6-0.2
			c0.3-0.1,0.5-0.3,0.7-0.5c0.2-0.3,0.3-0.6,0.3-0.9c0-0.6-0.2-1.1-0.7-1.4c-0.4-0.2-1-0.3-2-0.3h-0.9V605.5z"/>
		<path style="fill:#FFFFFF;" d="M485.2,603.4h3v12h-3v-1.3c-0.6,0.6-1.2,1-1.8,1.2c-0.6,0.2-1.2,0.4-1.9,0.4c-1.5,0-2.9-0.6-4-1.8
			s-1.7-2.7-1.7-4.5c0-1.8,0.5-3.4,1.6-4.5c1.1-1.2,2.4-1.8,4-1.8c0.7,0,1.4,0.1,2,0.4s1.2,0.7,1.7,1.2V603.4z M482,605.8
			c-0.9,0-1.7,0.3-2.3,1s-0.9,1.5-0.9,2.5c0,1,0.3,1.9,0.9,2.6c0.6,0.7,1.4,1,2.3,1c0.9,0,1.7-0.3,2.3-1c0.6-0.7,0.9-1.5,0.9-2.6
			c0-1-0.3-1.9-0.9-2.5C483.8,606.1,483,605.8,482,605.8z"/>
		<path style="fill:#FFFFFF;" d="M500.1,598.7h3v16.6h-3v-1.3c-0.6,0.6-1.2,1-1.8,1.2c-0.6,0.2-1.2,0.4-1.9,0.4
			c-1.5,0-2.9-0.6-4-1.8s-1.7-2.7-1.7-4.5c0-1.8,0.5-3.4,1.6-4.5c1.1-1.2,2.4-1.8,4-1.8c0.7,0,1.4,0.1,2,0.4s1.2,0.7,1.7,1.2V598.7z
			 M496.9,605.8c-0.9,0-1.7,0.3-2.3,1s-0.9,1.5-0.9,2.5c0,1,0.3,1.9,0.9,2.6s1.4,1,2.3,1c0.9,0,1.7-0.3,2.3-1
			c0.6-0.7,0.9-1.5,0.9-2.6c0-1-0.3-1.9-0.9-2.5C498.6,606.1,497.9,605.8,496.9,605.8z"/>
		<path style="fill:#FFFFFF;" d="M514.9,598.7h3v16.6h-3v-1.3c-0.6,0.6-1.2,1-1.8,1.2c-0.6,0.2-1.2,0.4-1.9,0.4
			c-1.5,0-2.9-0.6-4-1.8s-1.7-2.7-1.7-4.5c0-1.8,0.5-3.4,1.6-4.5c1.1-1.2,2.4-1.8,4-1.8c0.7,0,1.4,0.1,2,0.4s1.2,0.7,1.7,1.2V598.7z
			 M511.8,605.8c-0.9,0-1.7,0.3-2.3,1s-0.9,1.5-0.9,2.5c0,1,0.3,1.9,0.9,2.6c0.6,0.7,1.4,1,2.3,1c0.9,0,1.7-0.3,2.3-1
			c0.6-0.7,0.9-1.5,0.9-2.6c0-1-0.3-1.9-0.9-2.5C513.5,606.1,512.7,605.8,511.8,605.8z"/>
		<path style="fill:#FFFFFF;" d="M519.7,603.4h3.1l3.1,7.5l3.4-7.5h3.1l-7.5,16.4h-3.1l2.5-5.3L519.7,603.4z"/>
		<path style="fill:#FFFFFF;" d="M534.3,598.7h2.8v1.5c0,1-0.1,1.8-0.4,2.5c-0.2,0.7-0.6,1.4-1.2,2.2l-1.1-0.8
			c0.3-0.4,0.5-0.7,0.6-1c0.1-0.3,0.3-0.7,0.4-1.1h-1.1V598.7z"/>
		<path style="fill:#FFFFFF;" d="M547.7,605l-1.9,1.9c-0.8-0.7-1.4-1.1-2.1-1.1c-0.3,0-0.6,0.1-0.8,0.2c-0.2,0.1-0.3,0.3-0.3,0.5
			c0,0.2,0.1,0.3,0.2,0.4c0.1,0.1,0.4,0.3,0.9,0.6l1.1,0.6c1.2,0.6,2,1.2,2.4,1.8c0.4,0.6,0.6,1.3,0.6,2.1c0,1.1-0.4,2-1.2,2.7
			c-0.8,0.7-1.8,1.1-3.1,1.1c-1.7,0-3.1-0.7-4.2-2l1.8-2c0.4,0.4,0.8,0.7,1.2,1c0.5,0.3,0.9,0.4,1.3,0.4c0.4,0,0.7-0.1,1-0.3
			c0.2-0.2,0.4-0.4,0.4-0.7c0-0.5-0.4-0.9-1.3-1.4l-1-0.5c-1.9-1-2.9-2.2-2.9-3.7c0-0.9,0.4-1.8,1.1-2.4s1.7-1,2.8-1
			c0.8,0,1.5,0.2,2.2,0.5C546.6,603.9,547.2,604.4,547.7,605z"/>
		<path style="fill:#FFFFFF;" d="M558.5,599.1h3l3.8,11.3l3.8-11.3h3l2.7,16.2h-3l-1.7-10.2l-3.4,10.2h-2.7l-3.4-10.2l-1.8,10.2h-3
			L558.5,599.1z"/>
		<path style="fill:#FFFFFF;" d="M585.7,603.4h3v12h-3v-1.3c-0.6,0.6-1.2,1-1.8,1.2c-0.6,0.2-1.2,0.4-1.9,0.4c-1.5,0-2.9-0.6-4-1.8
			c-1.1-1.2-1.7-2.7-1.7-4.5c0-1.8,0.5-3.4,1.6-4.5c1.1-1.2,2.4-1.8,4-1.8c0.7,0,1.4,0.1,2,0.4c0.6,0.3,1.2,0.7,1.7,1.2V603.4z
			 M582.6,605.8c-0.9,0-1.7,0.3-2.3,1c-0.6,0.7-0.9,1.5-0.9,2.5c0,1,0.3,1.9,0.9,2.6s1.4,1,2.3,1c0.9,0,1.7-0.3,2.3-1
			c0.6-0.7,0.9-1.5,0.9-2.6c0-1-0.3-1.9-0.9-2.5C584.3,606.1,583.5,605.8,582.6,605.8z"/>
		<path style="fill:#FFFFFF;" d="M591.1,603.4h2.6v1.5c0.3-0.6,0.6-1,1.1-1.4s1-0.5,1.5-0.5c0.4,0,0.8,0.1,1.2,0.3l-0.9,2.6
			c-0.4-0.2-0.6-0.3-0.9-0.3c-0.5,0-0.9,0.3-1.2,0.9c-0.3,0.6-0.5,1.7-0.5,3.4l0,0.6v4.8h-3V603.4z"/>
		<path style="fill:#FFFFFF;" d="M599,598.7h3v9.6l4.4-4.9h3.8l-5.2,5.7l5.8,6.2h-3.7l-5.1-5.5v5.5h-3V598.7z"/>
		<path style="fill:#FFFFFF;" d="M624,610.2h-9.7c0.1,0.9,0.5,1.5,1.1,2c0.6,0.5,1.4,0.8,2.3,0.8c1.1,0,2.1-0.4,2.9-1.2l2.5,1.2
			c-0.6,0.9-1.4,1.6-2.3,2c-0.9,0.4-1.9,0.6-3.1,0.6c-1.9,0-3.4-0.6-4.6-1.8c-1.2-1.2-1.8-2.7-1.8-4.5c0-1.8,0.6-3.3,1.8-4.6
			c1.2-1.2,2.7-1.8,4.4-1.8c1.9,0,3.4,0.6,4.6,1.8c1.2,1.2,1.8,2.8,1.8,4.8L624,610.2z M621,607.8c-0.2-0.7-0.6-1.2-1.2-1.6
			c-0.6-0.4-1.3-0.6-2-0.6c-0.8,0-1.6,0.2-2.2,0.7c-0.4,0.3-0.8,0.8-1.1,1.6H621z"/>
		<path style="fill:#FFFFFF;" d="M626.8,598.9h3v4.4h1.8v2.6h-1.8v9.4h-3v-9.4h-1.5v-2.6h1.5V598.9z"/>
		<path style="fill:#FFFFFF;" d="M640.6,605l-1.9,1.9c-0.8-0.7-1.4-1.1-2.1-1.1c-0.3,0-0.6,0.1-0.8,0.2c-0.2,0.1-0.3,0.3-0.3,0.5
			c0,0.2,0.1,0.3,0.2,0.4c0.1,0.1,0.4,0.3,0.9,0.6l1.1,0.6c1.2,0.6,2,1.2,2.4,1.8c0.4,0.6,0.6,1.3,0.6,2.1c0,1.1-0.4,2-1.2,2.7
			c-0.8,0.7-1.8,1.1-3.1,1.1c-1.7,0-3.1-0.7-4.2-2l1.8-2c0.4,0.4,0.8,0.7,1.2,1c0.5,0.3,0.9,0.4,1.3,0.4c0.4,0,0.7-0.1,1-0.3
			c0.2-0.2,0.4-0.4,0.4-0.7c0-0.5-0.4-0.9-1.3-1.4l-1-0.5c-1.9-1-2.9-2.2-2.9-3.7c0-0.9,0.4-1.8,1.1-2.4s1.7-1,2.8-1
			c0.8,0,1.5,0.2,2.2,0.5C639.5,603.9,640.1,604.4,640.6,605z"/>
	</g>
</g>
<g id="Icons">
	<g>
		<path style="fill:#C41530;" d="M287.1,794.9c0.9,0.1,1.5,0.6,2,1.3l12.8,18.1c0.5,0.7,0.7,1.5,0.5,2.3c-0.1,0.8-0.6,1.5-1.2,2
			l-2.1,1.5c-0.7,0.5-1.5,0.7-2.3,0.5c-0.8-0.1-1.5-0.6-2-1.3l-5.8-8.2l-2.9,16.8c-0.1,0.8-0.6,1.4-1.2,1.9
			c-0.7,0.4-1.4,0.5-2.3,0.4l-3-0.5c-0.8-0.1-1.5-0.5-2-1.1c-0.5-0.6-0.7-1.3-0.5-2.2l2.9-16.8l-8.2,5.8c-0.7,0.5-1.4,0.7-2.3,0.5
			c-0.9-0.1-1.5-0.6-2-1.3l-1.5-2.1c-0.5-0.7-0.7-1.5-0.5-2.3c0.1-0.8,0.6-1.5,1.3-2l18.1-12.8C285.4,794.9,286.2,794.7,287.1,794.9
			z"/>
	</g>
	<g>
		<path style="fill:#C41530;" d="M114.1,645c-0.3,0.8-0.9,1.4-1.7,1.7L92,655.4c-0.8,0.3-1.6,0.3-2.4,0c-0.8-0.3-1.3-0.9-1.7-1.6
			l-1-2.4c-0.3-0.8-0.3-1.6,0-2.4c0.3-0.8,0.9-1.4,1.7-1.7l9.2-3.9L82,637.1c-0.8-0.3-1.3-0.8-1.6-1.6s-0.2-1.5,0.1-2.3l1.2-2.9
			c0.3-0.8,0.8-1.4,1.5-1.7c0.7-0.4,1.5-0.4,2.2-0.1l15.8,6.4l-3.9-9.2c-0.4-0.8-0.4-1.6,0-2.4c0.3-0.8,0.9-1.4,1.7-1.7l2.4-1
			c0.8-0.3,1.6-0.4,2.4,0c0.8,0.3,1.4,0.9,1.7,1.7l8.7,20.5C114.4,643.4,114.4,644.2,114.1,645z"/>
	</g>
	<g>
		<path style="fill:#C41530;" d="M234.8,436.7c-0.6,0.7-1.3,1-2.1,1.1l-22.1,1.9c-0.9,0.1-1.6-0.2-2.3-0.7c-0.6-0.5-1-1.2-1.1-2.1
			l-0.2-2.6c-0.1-0.9,0.2-1.6,0.7-2.3c0.5-0.7,1.3-1,2.1-1.1l10-0.9l-13-10.9c-0.6-0.5-1-1.2-1-2c0-0.8,0.3-1.5,0.8-2.2l2-2.4
			c0.5-0.7,1.2-1,2-1.2c0.8-0.1,1.5,0.1,2.1,0.6l13,10.9l-0.8-10c-0.1-0.8,0.1-1.6,0.7-2.3c0.6-0.7,1.3-1,2.1-1.1l2.6-0.2
			c0.9-0.1,1.6,0.2,2.3,0.7c0.7,0.5,1,1.3,1.1,2.1l1.9,22.1C235.6,435.3,235.4,436,234.8,436.7z"/>
	</g>
	<g>
		<path style="fill:#C41530;" d="M644.5,791.6c0.6-0.7,1.3-1,2.1-1.1l22.1-1.9c0.9-0.1,1.6,0.2,2.3,0.7c0.6,0.5,1,1.2,1.1,2.1
			l0.2,2.6c0.1,0.9-0.2,1.6-0.7,2.3c-0.5,0.7-1.3,1-2.1,1.1l-10,0.9l13,10.9c0.6,0.5,1,1.2,1,2c0,0.8-0.3,1.5-0.8,2.2l-2,2.4
			c-0.5,0.7-1.2,1-2,1.2c-0.8,0.1-1.5-0.1-2.1-0.6l-13-10.9l0.8,10c0.1,0.8-0.1,1.6-0.7,2.3c-0.6,0.7-1.3,1-2.1,1.1l-2.6,0.2
			c-0.9,0.1-1.6-0.2-2.3-0.7c-0.7-0.5-1-1.3-1.1-2.1l-1.9-22.1C643.7,793.1,644,792.3,644.5,791.6z"/>
	</g>
	<g>
		<path style="fill:#C41530;" d="M182.1,264c0-0.4,0.2-0.8,0.5-1.1l7.8-7.5c0.3-0.3,0.7-0.4,1.1-0.4c0.4,0,0.8,0.2,1.1,0.5l0.9,0.9
			c0.3,0.3,0.4,0.7,0.4,1.1c0,0.4-0.2,0.8-0.5,1.1l-3.5,3.4l8.3,0.1c0.4,0,0.7,0.2,1,0.5c0.3,0.3,0.4,0.7,0.4,1.1l0,1.5
			c0,0.4-0.1,0.8-0.4,1.1c-0.3,0.3-0.6,0.4-1,0.4l-8.3-0.1l3.4,3.5c0.3,0.3,0.4,0.6,0.4,1.1c0,0.4-0.2,0.8-0.5,1.1l-0.9,0.9
			c-0.3,0.3-0.7,0.4-1.1,0.4c-0.4,0-0.8-0.2-1.1-0.5l-7.5-7.8C182.2,264.8,182.1,264.4,182.1,264z"/>
	</g>
	<g>
		<path style="fill:#C41530;" d="M200.2,243.8c0,0.4-0.2,0.8-0.5,1.1l-7.8,7.5c-0.3,0.3-0.7,0.4-1.1,0.4c-0.4,0-0.8-0.2-1.1-0.5
			l-0.9-0.9c-0.3-0.3-0.4-0.7-0.4-1.1c0-0.4,0.2-0.8,0.5-1.1l3.5-3.4l-8.3-0.1c-0.4,0-0.7-0.2-1-0.5s-0.4-0.7-0.4-1.1l0-1.5
			c0-0.4,0.1-0.8,0.4-1.1c0.3-0.3,0.6-0.4,1-0.4l8.3,0.1l-3.4-3.5c-0.3-0.3-0.4-0.6-0.4-1.1c0-0.4,0.2-0.8,0.5-1.1l0.9-0.9
			c0.3-0.3,0.7-0.4,1.1-0.4c0.4,0,0.8,0.2,1.1,0.5l7.5,7.8C200,243,200.2,243.4,200.2,243.8z"/>
	</g>
	<g>
		<g>
			<path style="fill:#C41530;" d="M240.2,268c0,2.1-1.8,3.8-3.8,3.8h-27.5c-2.1,0-3.8-1.7-3.8-3.8v-27.5c0-2.1,1.8-3.8,3.8-3.8h27.5
				c2.1,0,3.8,1.7,3.8,3.8V268"/>
		</g>
	</g>
	<g>
		<path style="fill:#FFFFFF;" d="M217.5,246.7h3.3c1.8,0,3.1,0.2,3.9,0.5c0.8,0.3,1.4,0.9,1.9,1.6c0.5,0.7,0.7,1.6,0.7,2.7
			c0,1.2-0.3,2.1-0.9,2.9c-0.6,0.8-1.4,1.3-2.5,1.6c-0.6,0.2-1.7,0.3-3.3,0.3v7h-3.2V246.7z M220.7,253.1h1c0.8,0,1.3-0.1,1.6-0.2
			c0.3-0.1,0.5-0.3,0.7-0.6c0.2-0.3,0.3-0.6,0.3-0.9c0-0.6-0.2-1.1-0.7-1.4c-0.4-0.2-1-0.3-2-0.3h-0.9V253.1z"/>
	</g>
	<g>
		<path style="fill:#C41530;" d="M531.9,530.5c0,2.1-1.8,3.8-3.8,3.8h-27.5c-2.1,0-3.8-1.7-3.8-3.8V503c0-2.1,1.8-3.8,3.8-3.8h27.5
			c2.1,0,3.8,1.7,3.8,3.8V530.5"/>
		<g>
			<path style="fill:#FFFFFF;" d="M521.8,513.7v6.1c0,0.4-0.1,0.7-0.4,1c-0.3,0.3-0.6,0.4-1,0.4c-0.4,0-0.7-0.1-1-0.4
				c-0.3-0.3-0.4-0.6-0.4-1v-5.1h-0.9v13.3c0,0.4-0.2,0.8-0.5,1.2c-0.3,0.3-0.7,0.5-1.2,0.5c-0.4,0-0.8-0.2-1.2-0.5
				c-0.3-0.3-0.5-0.7-0.5-1.2v-6.8h-0.9v6.8c0,0.4-0.2,0.8-0.5,1.2c-0.3,0.3-0.7,0.5-1.2,0.5c-0.4,0-0.8-0.2-1.2-0.5
				c-0.3-0.3-0.5-0.7-0.5-1.2v-13.3h-0.9v5.1c0,0.4-0.1,0.7-0.4,1c-0.3,0.3-0.6,0.4-1,0.4c-0.4,0-0.7-0.1-1-0.4
				c-0.3-0.3-0.4-0.6-0.4-1v-6.1c0-0.8,0.3-1.4,0.8-2c0.5-0.5,1.2-0.8,2-0.8h9.3c0.8,0,1.4,0.3,2,0.8
				C521.5,512.2,521.8,512.9,521.8,513.7z M516.7,504.8c0.6,0.6,1,1.4,1,2.3s-0.3,1.7-1,2.3c-0.6,0.6-1.4,1-2.3,1
				c-0.9,0-1.7-0.3-2.3-1c-0.6-0.6-1-1.4-1-2.3s0.3-1.7,1-2.3c0.6-0.6,1.4-1,2.3-1C515.3,503.9,516,504.2,516.7,504.8z"/>
		</g>
	</g>
	<g>
		<path style="fill:#C41530;" d="M524.9,495.9c-0.4,0-0.8-0.2-1.1-0.5l-8-8c-0.3-0.3-0.5-0.7-0.5-1.1c0-0.4,0.2-0.8,0.5-1.1l0.9-0.9
			c0.3-0.3,0.7-0.5,1.1-0.5s0.8,0.2,1.1,0.5l3.6,3.6v-8.7c0-0.4,0.2-0.8,0.5-1c0.3-0.3,0.7-0.4,1.1-0.4h1.6c0.4,0,0.8,0.1,1.1,0.4
			c0.3,0.3,0.5,0.6,0.5,1v8.7l3.6-3.6c0.3-0.3,0.7-0.5,1.1-0.5c0.4,0,0.8,0.2,1.1,0.5l0.9,0.9c0.3,0.3,0.5,0.7,0.5,1.1
			c0,0.4-0.2,0.8-0.5,1.1l-8,8C525.7,495.7,525.3,495.9,524.9,495.9z"/>
	</g>
	<g>
		<path style="fill:#C41530;" d="M503.8,477.7c0.4,0,0.8,0.2,1.1,0.5l8,8c0.3,0.3,0.5,0.7,0.5,1.1c0,0.4-0.2,0.8-0.5,1.1l-0.9,0.9
			c-0.3,0.3-0.7,0.5-1.1,0.5s-0.8-0.2-1.1-0.5l-3.6-3.6v8.7c0,0.4-0.2,0.8-0.5,1c-0.3,0.3-0.7,0.4-1.1,0.4H503
			c-0.4,0-0.8-0.1-1.1-0.4c-0.3-0.3-0.5-0.6-0.5-1v-8.7l-3.6,3.6c-0.3,0.3-0.7,0.5-1.1,0.5c-0.4,0-0.8-0.2-1.1-0.5l-0.9-0.9
			c-0.3-0.3-0.5-0.7-0.5-1.1c0-0.4,0.2-0.8,0.5-1.1l8-8C503,477.9,503.4,477.7,503.8,477.7z"/>
	</g>
	<g>
		<path style="fill:#C41530;" d="M386.7,627c0,2.1-1.8,3.8-3.8,3.8h-27.5c-2.1,0-3.8-1.7-3.8-3.8v-27.5c0-2.1,1.8-3.8,3.8-3.8h27.5
			c2.1,0,3.8,1.7,3.8,3.8V627"/>
		<g>
			<path style="fill:#FFFFFF;" d="M365.8,623.5c1,0,1.9-0.3,2.8-0.9l2,2c-1.4,1.1-2.9,1.6-4.7,1.6c-1.4,0-2.7-0.3-3.9-1
				c-1.2-0.7-2.1-1.6-2.8-2.8c-0.7-1.2-1-2.5-1-3.8c0-1.8,0.5-3.3,1.6-4.7l2,2c-0.6,0.8-0.8,1.8-0.8,2.8c0,1.4,0.5,2.5,1.4,3.5
				C363.3,623,364.4,623.5,365.8,623.5z M377.4,612.4c0.3,0.3,0.5,0.7,0.4,1.2l-0.6,7.8c0,0.4-0.2,0.7-0.5,1c-0.3,0.3-0.6,0.4-1,0.4
				c-0.1,0-0.1,0-0.1,0c-0.4,0-0.8-0.2-1-0.5c-0.3-0.3-0.4-0.7-0.4-1.1l0.5-6l-2,0.1c0.5,1.1,0.8,2.2,0.8,3.4c0,2-0.7,3.8-2.1,5.2
				l-1.9-1.9c0.9-0.9,1.3-2.1,1.3-3.3c0-1.4-0.5-2.5-1.4-3.5c-1-1-2.1-1.5-3.5-1.5c-1.3,0-2.4,0.4-3.3,1.3l-1.9-1.9
				c1.1-1.1,2.5-1.7,4-2l3.7-4.2l-2.1-1.2l-2.6,2.3c-0.3,0.3-0.7,0.4-1.1,0.4s-0.8-0.2-1-0.5c-0.3-0.3-0.4-0.7-0.4-1.1
				c0-0.4,0.2-0.8,0.5-1l3.4-3c0.2-0.2,0.5-0.3,0.8-0.4c0.3,0,0.6,0,0.9,0.2l6.9,4c0.3,0.2,0.6,0.5,0.7,1c0.2,0.6,0,1.2-0.4,1.6
				l-2.9,3.3l5.2-0.3C376.7,612,377.1,612.1,377.4,612.4z M376.4,605.3c-0.5,0.5-1.1,0.7-1.8,0.7s-1.3-0.2-1.8-0.7
				c-0.5-0.5-0.7-1.1-0.7-1.8s0.2-1.3,0.7-1.8c0.5-0.5,1.1-0.7,1.8-0.7s1.3,0.2,1.8,0.7c0.5,0.5,0.7,1.1,0.7,1.8
				S376.9,604.8,376.4,605.3z"/>
		</g>
	</g>
	<g>
		<path style="fill:#C41530;" d="M687.2,700.4c0,2.1-1.8,3.8-3.8,3.8H656c-2.1,0-3.8-1.7-3.8-3.8v-27.5c0-2.1,1.8-3.8,3.8-3.8h27.5
			c2.1,0,3.8,1.7,3.8,3.8V700.4"/>
		<g>
			<path style="fill:#FFFFFF;" d="M677.2,683.6v6.1c0,0.4-0.1,0.7-0.4,1c-0.3,0.3-0.6,0.4-1,0.4c-0.4,0-0.7-0.1-1-0.4
				c-0.3-0.3-0.4-0.6-0.4-1v-5.1h-0.9v13.3c0,0.4-0.2,0.8-0.5,1.2c-0.3,0.3-0.7,0.5-1.2,0.5c-0.4,0-0.8-0.2-1.2-0.5
				c-0.3-0.3-0.5-0.7-0.5-1.2v-6.8h-0.9v6.8c0,0.4-0.2,0.8-0.5,1.2c-0.3,0.3-0.7,0.5-1.2,0.5c-0.4,0-0.8-0.2-1.2-0.5
				c-0.3-0.3-0.5-0.7-0.5-1.2v-13.3H665v5.1c0,0.4-0.1,0.7-0.4,1c-0.3,0.3-0.6,0.4-1,0.4c-0.4,0-0.7-0.1-1-0.4
				c-0.3-0.3-0.4-0.6-0.4-1v-6.1c0-0.8,0.3-1.4,0.8-2c0.5-0.5,1.2-0.8,2-0.8h9.3c0.8,0,1.4,0.3,2,0.8
				C676.9,682.1,677.2,682.8,677.2,683.6z M672,674.7c0.6,0.6,1,1.4,1,2.3c0,0.9-0.3,1.7-1,2.3c-0.6,0.6-1.4,1-2.3,1
				c-0.9,0-1.7-0.3-2.3-1c-0.6-0.6-1-1.4-1-2.3c0-0.9,0.3-1.7,1-2.3c0.6-0.6,1.4-1,2.3-1C670.6,673.8,671.4,674.1,672,674.7z"/>
		</g>
	</g>
	<g>
		<path style="fill:#C41530;" d="M680.2,665.8c-0.4,0-0.8-0.2-1.1-0.5l-8-8c-0.3-0.3-0.5-0.7-0.5-1.1c0-0.4,0.2-0.8,0.5-1.1l0.9-0.9
			c0.3-0.3,0.7-0.5,1.1-0.5c0.4,0,0.8,0.2,1.1,0.5l3.6,3.6v-8.7c0-0.4,0.2-0.8,0.5-1c0.3-0.3,0.7-0.4,1.1-0.4h1.6
			c0.4,0,0.8,0.1,1.1,0.4c0.3,0.3,0.5,0.6,0.5,1v8.7l3.6-3.6c0.3-0.3,0.7-0.5,1.1-0.5c0.4,0,0.8,0.2,1.1,0.5l0.9,0.9
			c0.3,0.3,0.5,0.7,0.5,1.1c0,0.4-0.2,0.8-0.5,1.1l-8,8C681.1,665.6,680.7,665.8,680.2,665.8z"/>
	</g>
	<g>
		<path style="fill:#C41530;" d="M659.2,647.6c0.4,0,0.8,0.2,1.1,0.5l8,8c0.3,0.3,0.5,0.7,0.5,1.1c0,0.4-0.2,0.8-0.5,1.1l-0.9,0.9
			c-0.3,0.3-0.7,0.5-1.1,0.5c-0.4,0-0.8-0.2-1.1-0.5l-3.6-3.6v8.7c0,0.4-0.2,0.8-0.5,1c-0.3,0.3-0.7,0.4-1.1,0.4h-1.6
			c-0.4,0-0.8-0.1-1.1-0.4c-0.3-0.3-0.5-0.6-0.5-1v-8.7l-3.6,3.6c-0.3,0.3-0.7,0.5-1.1,0.5c-0.4,0-0.8-0.2-1.1-0.5l-0.9-0.9
			c-0.3-0.3-0.5-0.7-0.5-1.1c0-0.4,0.2-0.8,0.5-1.1l8-8C658.3,647.8,658.7,647.6,659.2,647.6z"/>
	</g>
	<g>
		<path style="fill:#C41530;" d="M340.8,627.4c0,2.1-1.8,3.8-3.8,3.8h-27.5c-2.1,0-3.8-1.7-3.8-3.8v-27.5c0-2.1,1.8-3.8,3.8-3.8H337
			c2.1,0,3.8,1.7,3.8,3.8V627.4"/>
		<g>
			<path style="fill:#FFFFFF;" d="M334.9,612.3v4.1c0,0.3-0.1,0.5-0.3,0.7c-0.2,0.2-0.4,0.3-0.7,0.3c-0.3,0-0.5-0.1-0.7-0.3
				c-0.2-0.2-0.3-0.4-0.3-0.7V613h-0.6v9c0,0.3-0.1,0.6-0.3,0.8c-0.2,0.2-0.5,0.3-0.8,0.3c-0.3,0-0.6-0.1-0.8-0.3
				c-0.2-0.2-0.3-0.5-0.3-0.8v-4.6h-0.6v4.6c0,0.3-0.1,0.6-0.3,0.8c-0.2,0.2-0.5,0.3-0.8,0.3c-0.3,0-0.6-0.1-0.8-0.3
				c-0.2-0.2-0.3-0.5-0.3-0.8v-9h-0.6v3.5c0,0.3-0.1,0.5-0.3,0.7c-0.2,0.2-0.4,0.3-0.7,0.3c-0.3,0-0.5-0.1-0.7-0.3
				c-0.2-0.2-0.3-0.4-0.3-0.7v-4.1c0-0.5,0.2-1,0.6-1.3c0.4-0.4,0.8-0.6,1.3-0.6h6.4c0.5,0,1,0.2,1.3,0.6
				C334.7,611.4,334.9,611.8,334.9,612.3z M331.4,606.3c0.4,0.4,0.6,1,0.6,1.6c0,0.6-0.2,1.1-0.6,1.6c-0.4,0.4-1,0.6-1.6,0.6
				c-0.6,0-1.1-0.2-1.6-0.6c-0.4-0.4-0.7-1-0.7-1.6c0-0.6,0.2-1.1,0.7-1.6c0.4-0.4,1-0.6,1.6-0.6
				C330.4,605.7,330.9,605.9,331.4,606.3z"/>
		</g>
		<g>
			<path style="fill:#FFFFFF;" d="M323.1,615.8c0,0.3-0.1,0.5-0.3,0.7c-0.2,0.2-0.4,0.3-0.7,0.3c-0.3,0-0.6-0.1-0.8-0.4l-2.3-3.4
				h-0.4v1.3l2.5,4.1c0.1,0.1,0.1,0.2,0.1,0.3c0,0.2-0.1,0.3-0.2,0.4c-0.1,0.1-0.3,0.2-0.4,0.2h-1.9v2.7c0,0.3-0.1,0.6-0.3,0.8
				c-0.2,0.2-0.5,0.3-0.8,0.3H316c-0.3,0-0.6-0.1-0.8-0.3c-0.2-0.2-0.3-0.5-0.3-0.8v-2.7H313c-0.2,0-0.3-0.1-0.4-0.2
				c-0.1-0.1-0.2-0.3-0.2-0.4c0-0.1,0-0.2,0.1-0.3l2.5-4.1V613h-0.4l-2.3,3.4c-0.2,0.3-0.5,0.4-0.8,0.4c-0.3,0-0.5-0.1-0.7-0.3
				c-0.2-0.2-0.3-0.4-0.3-0.7c0-0.2,0.1-0.4,0.2-0.5l2.5-3.8c0.5-0.7,1.1-1.1,1.7-1.1h3.8c0.7,0,1.3,0.4,1.7,1.1l2.5,3.8
				C323.1,615.5,323.1,615.6,323.1,615.8z M318.3,606.3c0.4,0.4,0.6,1,0.6,1.6c0,0.6-0.2,1.1-0.6,1.6c-0.4,0.4-1,0.6-1.6,0.6
				s-1.1-0.2-1.6-0.6c-0.4-0.4-0.6-1-0.6-1.6c0-0.6,0.2-1.1,0.6-1.6c0.4-0.4,1-0.6,1.6-0.6S317.9,605.9,318.3,606.3z"/>
		</g>
	</g>
	<g>
		<g>
			<path style="fill:#C41530;" d="M631.8,742.7c0,2.1-1.8,3.8-3.8,3.8h-27.5c-2.1,0-3.8-1.7-3.8-3.8v-27.5c0-2.1,1.8-3.8,3.8-3.8
				H628c2.1,0,3.8,1.7,3.8,3.8V742.7"/>
		</g>
		<path style="fill:#FFFFFF;" d="M625.1,720.3h-5.5c-0.8,0-1.6,0.4-2.1,1l-3.9,4.6v-0.2c0-1.3-1-2.3-2.3-2.3s-2.3,1-2.3,2.3v5.4
			c0,0,0,0.1,0,0.1l-1.4,1.7l-4.1,0c-1.5,0-2.7,1.2-2.7,2.7c0,1.5,1.2,2.7,2.7,2.7h0l5.4,0c0.8,0,1.6-0.4,2.1-1l9.9-11.6h4.2
			c1.5,0,2.7-1.2,2.7-2.7C627.8,721.6,626.6,720.3,625.1,720.3L625.1,720.3z M625.1,720.3"/>
		<path style="fill:#FFFFFF;" d="M623.2,730.3c-0.2-0.2-0.6-0.2-0.9,0l-3.6,3.6c-0.1,0.1-0.1,0.3-0.1,0.4c0.1,0.1,0.2,0.2,0.4,0.2
			h1.7v4.6c0,0.3,0.3,0.6,0.6,0.6h2.8c0.3,0,0.6-0.3,0.6-0.6v-4.6h1.7c0.2,0,0.3-0.1,0.4-0.2c0.1-0.1,0-0.3-0.1-0.4L623.2,730.3z
			 M623.2,730.3"/>
		<path style="fill:#FFFFFF;" d="M611.3,722.5c1.2,0,2.2-1,2.2-2.2c0-1.2-1-2.2-2.2-2.2s-2.2,1-2.2,2.2
			C609.1,721.5,610.1,722.5,611.3,722.5L611.3,722.5z M611.3,722.5"/>
	</g>
</g>
</svg>
