<?xml version="1.0" encoding="utf-8"?>
<!-- Generator: Adobe Illustrator 21.0.2, SVG Export Plug-In . SVG Version: 6.00 Build 0)  -->
<svg version="1.1" id="Layer_1" xmlns="http://www.w3.org/2000/svg" xmlns:xlink="http://www.w3.org/1999/xlink" x="0px" y="0px"
	 viewBox="0 0 1000 1000" style="enable-background:new 0 0 1000 1000;" xml:space="preserve">
<g>
	<polyline style="fill:#5C1A4D;" points="72,662.9 69,662.9 69,661.9 70.9,661.9 72,662.9 	"/>
	<polyline style="fill:#5C1A4D;" points="67.8,662.4 67.1,661.9 67.8,661.9 67.8,662.4 	"/>
	<polyline points="69,569.7 69,569.2 69.7,569.2 69,569.7 	"/>
	<polyline style="fill:#5C1A4D;" points="69,663.8 67.8,662.4 67.8,658.6 69,660 69,663.8 	"/>
	<polyline style="fill:#D3B379;" points="235.1,195.1 235.1,199.1 203.5,166.3 203.5,162.3 235.1,195.1 	"/>
	<polyline style="fill:#D3B379;" points="470.2,227.4 470.4,231.4 414.8,277.4 414.8,273.4 470.2,227.4 	"/>
	<polyline style="fill:#D3B379;" points="494.1,278.4 494.3,282.2 484.2,272 484.2,268 494.1,278.4 	"/>
	<polyline style="fill:#D3B379;" points="536.1,295.9 536.1,299.8 480.9,345.6 480.9,341.6 536.1,295.9 	"/>
	<polyline style="fill:#D3B379;" points="291,363.1 291.1,367.1 176.3,247.9 176.3,243.9 291,363.1 	"/>
	<polyline style="fill:#D3B379;" points="594.4,356.3 594.4,360.1 541.2,407.5 541.2,403.7 594.4,356.3 	"/>
	<polyline style="fill:#D3B379;" points="241.7,428.2 241.7,432 228.8,418.6 228.8,414.6 241.7,428.2 	"/>
	<polyline style="fill:#D3B379;" points="636.6,400 636.6,404 583.3,451.4 583.3,447.4 636.6,400 	"/>
	<polyline style="fill:#D3B379;" points="483.9,455.2 483.9,459 457.2,430.6 457.2,426.6 483.9,455.2 	"/>
	<polyline style="fill:#D3B379;" points="495.3,445.7 495.3,449.5 483.9,459 483.9,455.2 495.3,445.7 	"/>
	<polyline style="fill:#D3B379;" points="524.5,448.6 524.7,452.4 509.9,464.6 509.9,460.6 524.5,448.6 	"/>
	<polyline style="fill:#D3B379;" points="509.9,460.6 509.9,464.6 495.3,449.5 495.3,445.7 509.9,460.6 	"/>
	<polyline style="fill:#D3B379;" points="457.2,426.6 457.2,430.6 401.1,469.1 401.1,465.3 457.2,426.6 	"/>
	<polyline style="fill:#D3B379;" points="677.2,442 677.2,446 623.7,493.7 623.6,489.8 677.2,442 	"/>
	<polyline style="fill:#D3B379;" points="432.7,497 432.7,500.9 426.1,529.8 425.9,525.8 432.7,497 	"/>
	<polyline style="fill:#D3B379;" points="607.6,534.9 607.6,538.7 524.7,452.4 524.5,448.6 607.6,534.9 	"/>
	<polyline style="fill:#D3B379;" points="722,488.7 722.1,492.7 668.5,539.4 668.5,535.4 722,488.7 	"/>
	<polyline style="fill:#D3B379;" points="475.6,561.9 475.6,565.7 473.3,567.7 473.1,563.8 475.6,561.9 	"/>
	<polyline style="fill:#D3B379;" points="610.4,564.4 610.4,568.4 593.4,550.7 593.4,546.7 610.4,564.4 	"/>
	<polyline style="fill:#D3B379;" points="764.1,532.4 764.1,536.3 710.2,584.3 710.2,580.3 764.1,532.4 	"/>
	<polyline style="fill:#D3B379;" points="494.3,580.5 494.3,584.3 490.5,597.2 490.5,593.2 494.3,580.5 	"/>
	<polyline style="fill:#D3B379;" points="627.6,606.5 627.6,610.5 596.2,579.1 596.2,575.3 627.6,606.5 	"/>
	<polyline style="fill:#D3B379;" points="808,578.1 808.2,581.9 753.5,627.3 753.4,623.5 808,578.1 	"/>
	<polyline style="fill:#D3B379;" points="829.2,599.9 829.4,603.7 774.4,649.2 774.4,645.4 829.2,599.9 	"/>
	<polyline style="fill:#D3B379;" points="859.2,631.2 859.4,635 804.2,680.8 804,677 859.2,631.2 	"/>
	<polyline style="fill:#D3B379;" points="300.5,684.6 300.7,688.6 137.1,518.7 137.1,514.9 300.5,684.6 	"/>
	<polyline style="fill:#D3B379;" points="906.6,680.3 906.7,684.3 851.4,729.9 851.4,726.1 906.6,680.3 	"/>
	<polyline style="fill:#939698;" points="917.7,783.9 917.7,787.7 901.2,784.7 901,780.7 917.7,783.9 	"/>
	<polyline style="fill:#D3B379;" points="966.9,742.9 967.1,746.9 917.7,787.7 917.7,783.9 966.9,742.9 	"/>
	<polyline style="fill:#D3B379;" points="901,780.7 901.2,784.7 892,792.4 892,788.4 901,780.7 	"/>
	<polyline style="fill:#D3B379;" points="278.5,794.6 278.6,798.4 229.5,747.6 229.4,743.6 278.5,794.6 	"/>
	<polyline style="fill:#D3B379;" points="895.6,792.4 895.8,796.2 880.2,809.2 880.2,805.2 895.6,792.4 	"/>
	<polyline style="fill:#D3B379;" points="880.2,805.2 880.2,809.2 877.4,806.2 877.4,802.4 880.2,805.2 	"/>
	<polyline style="fill:#D3B379;" points="877.4,802.4 877.4,806.2 859.5,821.2 859.5,817.3 877.4,802.4 	"/>
	<polyline style="fill:#939698;" points="354.3,831.2 354.3,835 278.6,822.7 278.6,818.9 354.3,831.2 	"/>
	<polyline style="fill:#D3B379;" points="729.6,801.2 729.6,805 696.3,832.6 696.3,828.8 729.6,801.2 	"/>
	<path style="fill:#95979A;" d="M499.3,836.9v4c-2.3-0.2-5.4,1-8.3,2.4v-4C494.1,837.8,497.1,836.8,499.3,836.9"/>
	<path style="fill:#96989B;" d="M491.2,839.4v4c-5.4,2.6-10.6,6.8-10.9,7.1v-4C480.6,846.1,485.8,842,491.2,839.4"/>
	<path style="fill:#D3D3D3;" d="M499.3,836.9v4c-6.6-0.3-18.4,9-19.1,9.5v-4C480.9,846,492.9,836.6,499.3,836.9"/>
	<path style="fill:#96989B;" d="M868.7,826.9v4c-2.3,1.7-39,31.1-49.3,40.4v-4C829.7,858.1,866.5,828.6,868.7,826.9"/>
	<path style="fill:#989A9D;" d="M819.5,867.1v4c-1.7,1.6-2.8,2.6-2.6,2.6v-4C816.7,869.7,817.7,868.7,819.5,867.1"/>
	<path style="fill:#D3D3D3;" d="M868.7,826.9v4c-2.6,2.1-52.7,42.2-51.9,43l-0.2-4C816,869,866.1,829,868.7,826.9"/>
	<polyline style="fill:#9A9C9E;" points="480.3,846.5 480.4,850.3 475.9,891.8 475.9,887.8 480.3,846.5 	"/>
	<polyline style="fill:#D3B379;" points="814.1,888.7 814.1,892.6 729.6,805 729.6,801.2 814.1,888.7 	"/>
	<polyline style="fill:#D3B379;" points="829.9,883.3 829.9,887.1 814.1,892.6 813.9,888.7 829.9,883.3 	"/>
	<polyline style="fill:#D3B379;" points="665,893.3 665.2,897.2 643.7,874.9 643.7,871.1 665,893.3 	"/>
	<polyline style="fill:#D3B379;" points="717.1,850.3 717.1,854.3 665.2,897.2 665,893.3 717.1,850.3 	"/>
	<polyline style="fill:#D3B379;" points="560.6,900.4 560.6,904.3 499.3,840.8 499.3,836.9 560.6,900.4 	"/>
	<path style="fill:#96989B;" d="M475.9,887.8v4c-1.2,1-24.5,20.3-34.4,28.6v-4C451.6,907.9,474.7,888.8,475.9,887.8"/>
	<path style="fill:#D3D3D3;" d="M475.9,887.8v4c-1.2,1-24.5,20.3-34.4,28.6v-4C451.6,907.9,474.7,888.8,475.9,887.8"/>
	<polyline style="fill:#939698;" points="441.6,916.4 441.6,920.2 346.3,901.3 346.1,897.5 441.6,916.4 	"/>
	<polyline style="fill:#D3B379;" points="569.3,932.9 569.4,936.9 560.6,904.3 560.6,900.4 569.3,932.9 	"/>
	<polyline style="fill:#D3B379;" points="643.7,871.1 643.9,875.1 569.4,936.9 569.4,932.9 643.7,871.1 	"/>
	<path style="fill:#EAC77D;" d="M951.2,726.4l16,16.5l-49.5,40.9l-16.5-3.1l-9.2,7.6l3.6,4l-15.4,13l-2.8-2.9l-17.9,14.9l9.2,9.5
		c-2.6,2.1-52.7,42.2-51.9,43c0.5,0.5,7.3,7.6,12.8,13.4l-15.8,5.4L729.3,801L696,828.6l20.6,21.5l-51.9,43l-21.3-21.9L569,933
		l-8.8-32.6L499,836.9c-6.6-0.3-18.4,9-19.1,9.5l-4.2,41.3c-1.2,1-24.5,20.1-34.4,28.6l-95.4-18.9l8-66.3l-75.7-12.3l-0.2-24.3
		l-48.8-51l71.1-59L136.9,514.8L241.5,428l-12.8-13.4l62.3-51.5L176.3,243.9l58.6-48.8l-31.8-33l113.5-94L470,227.2l-55.3,46
		l38.3,39.7l41.1-34.9l-9.9-10.2l14.1-11.6l37.8,39.4l-55.3,45.8l58.3,60.6l55.2-45.8L541,403.6l40.4,42l55-45.6l-53.3,47.4l39,40.4
		l55-45.6l-53.6,47.7l43,44.8l55.2-45.8l-53.6,46.5l40.8,42.3l54.8-45.5l-54,47.9l39.9,41.5l55.7-46.2l2.3,2.4l-54.7,45.5l18.9,19.6
		l54.8-45.5l2.1,2.3L774,645.2l20,20.6l54.8-45.5l10.1,10.6l-55.2,45.8l44.4,46.2l55.2-45.8l2.9,3.1L851,726l44.4,46.2L951.2,726.4
		 M574.8,645.4l52.7-38.7l-31.4-31.4l14.1-10.8l-17-17.7l14.4-12l-83.1-86.2l-14.6,12l-14.6-15.1l-11.5,9.5l-26.7-28.6l-55.9,38.9
		l31.6,31.8l-6.6,28.8l24.6,25.5l14.1-0.9l10.9,11.3l-2.3,1.9l5.4,5.4l2.8-2.3l13,13.5l-3.8,12.7l23.4,24.3l30.2-1.2L574.8,645.4"/>
	<polyline style="fill:#D3D3D3;" points="568.9,933.1 568.9,936.9 566,939.3 566,935.5 568.9,933.1 	"/>
	<polyline style="fill:#D3D3D3;" points="540.1,936 540.1,940 441,920.4 441,916.6 540.1,936 	"/>
	<path style="fill:#D3D3D3;" d="M574.8,952.5v4c0,2.8-0.7,5.4-2.3,7.6v-4C573.9,957.9,574.8,955.5,574.8,952.5"/>
	<path style="fill:#D3D3D3;" d="M572.6,960.1v4c-0.9,1.2-1.7,2.4-2.9,3.5v-4C570.7,962.6,571.9,961.5,572.6,960.1"/>
	<path style="fill:#D3D3D3;" d="M569.6,963.6v4l-0.5,0.3c-1.6,1.4-3.5,2.6-5.4,3.5l-0.2-4c1.9-1,3.6-2.3,5.4-3.5L569.6,963.6"/>
	<path style="fill:#D3D3D3;" d="M563.7,967.6l0.2,4c-3.3,1.7-6.9,2.6-10.9,2.4c-4.9-0.2-10.1-2.3-15.1-7.5
		c-3.5-3.5-4.5-7.3-4.5-10.8l-0.2-4c0,3.5,1.2,7.3,4.5,10.6c5,5,10.2,7.3,15.1,7.5C556.8,970.4,560.4,969.3,563.7,967.6"/>
	<path style="fill:#D3D3D3;" d="M574.8,952.5v4c0.2,4.5-2.1,8.5-5.7,11.5c-4.2,3.6-10.1,6.2-16.3,5.9c-4.9-0.2-10.1-2.3-15.1-7.5
		c-3.5-3.5-4.5-7.3-4.5-10.8l-0.2-4c0,3.5,1.2,7.3,4.5,10.6c5,5,10.2,7.3,15.1,7.5c6.1,0.3,12-2.3,16.1-5.9
		C572.7,961.2,574.8,957.2,574.8,952.5"/>
	<polyline style="fill:#D3D3D3;" points="972.7,749.7 972.7,753.5 960.9,763.2 960.9,759.2 972.7,749.7 	"/>
	<polyline style="fill:#D3D3D3;" points="892.9,790.3 892.9,794.3 889,790.3 889,786.3 892.9,790.3 	"/>
	<polyline style="fill:#D3D3D3;" points="865.8,824.8 865.8,828.8 856.6,819.2 856.6,815.1 865.8,824.8 	"/>
	<polyline style="fill:#D3D3D3;" points="960.9,759.2 960.9,763.2 947.7,829.8 947.7,826 960.9,759.2 	"/>
	<path style="fill:#D3D3D3;" d="M826.9,881.2v4c-5.6-5.7-12.5-12.8-12.8-13.4v-4C814.6,868.3,821.4,875.5,826.9,881.2"/>
	<path style="fill:#D3D3D3;" d="M826.9,881.2v4c-5.6-5.7-12.5-12.8-12.8-13.4v-4C814.6,868.3,821.4,875.5,826.9,881.2"/>
	<polyline style="fill:#D3D3D3;" points="951.2,837.6 951.2,841.6 826.9,885.2 826.9,881.2 951.2,837.6 	"/>
	<polyline style="fill:#D3D3D3;" points="311.4,697.1 311.4,701.1 240.3,760.1 240.3,756.3 311.4,697.1 	"/>
	<polyline style="fill:#311156;" points="292.7,807.1 292.7,811.1 292.9,835.4 292.7,831.6 292.7,807.1 	"/>
	<polyline style="fill:#D3D3D3;" points="365,843.7 365,847.7 357.1,913.8 357.1,910 365,843.7 	"/>
	<polyline style="fill:#D3D3D3;" points="330.9,931.7 330.9,935.5 20.8,613.6 20.8,609.8 330.9,931.7 	"/>
	<polyline style="fill:#D3D3D3;" points="357.1,910 357.1,913.8 330.9,935.5 330.9,931.7 357.1,910 	"/>
	<polyline style="fill:#D3D3D3;" points="947.5,722.6 947.5,726.6 892.3,772.4 892.3,768.4 947.5,722.6 	"/>
	<polyline style="fill:#D3D3D3;" points="892.3,768.4 892.3,772.4 847.9,726.4 847.9,722.4 892.3,768.4 	"/>
	<polyline style="fill:#D3D3D3;" points="848.4,722.9 848.4,726.9 804,680.8 804,676.8 848.4,722.9 	"/>
	<polyline style="fill:#D3D3D3;" points="855.4,829.3 855.4,833.3 800.2,879.1 800,875.1 855.4,829.3 	"/>
	<polyline style="fill:#D3D3D3;" points="800,875.1 800.2,879.1 755.8,833 755.8,829 800,875.1 	"/>
	<polyline style="fill:#D3D3D3;" points="848.6,619.5 848.8,623.5 793.8,668.8 793.8,665 848.6,619.5 	"/>
	<polyline style="fill:#D3D3D3;" points="793.8,665 793.8,668.8 773.8,648.2 773.8,644.2 793.8,665 	"/>
	<polyline style="fill:#D3D3D3;" points="825.2,596.1 825.2,599.9 770.5,645.4 770.4,641.4 825.2,596.1 	"/>
	<polyline style="fill:#D3D3D3;" points="770.4,641.4 770.5,645.4 751.4,625.6 751.4,621.8 770.4,641.4 	"/>
	<polyline style="fill:#D3D3D3;" points="802.5,570.8 802.5,574.8 746.8,621.1 746.6,616.9 802.5,570.8 	"/>
	<polyline style="fill:#D3D3D3;" points="746.6,617.1 746.8,621.1 706.7,579.5 706.7,575.6 746.6,617.1 	"/>
	<polyline style="fill:#D3D3D3;" points="760,529.1 760,533 705.3,578.4 705.1,574.4 760,529.1 	"/>
	<polyline style="fill:#D3D3D3;" points="705.1,574.4 705.3,578.4 664.3,535.9 664.3,532.1 705.1,574.4 	"/>
	<polyline style="fill:#D3D3D3;" points="718.3,484.7 718.5,488.5 663.1,534.5 663.1,530.5 718.3,484.7 	"/>
	<polyline style="fill:#D3D3D3;" points="663.1,530.5 663.1,534.5 619.9,489.8 619.9,485.8 663.1,530.5 	"/>
	<polyline style="fill:#D3D3D3;" points="673.5,439.3 673.7,443.1 618.5,488.9 618.5,484.9 673.5,439.3 	"/>
	<polyline style="fill:#D3D3D3;" points="618.5,484.9 618.5,488.9 575.7,444.3 575.7,440.3 618.5,484.9 	"/>
	<polyline style="fill:#D3D3D3;" points="632.2,395.7 632.2,399.7 577.2,445.3 577.2,441.3 632.2,395.7 	"/>
	<polyline style="fill:#D3D3D3;" points="577.2,441.3 577.2,445.3 531.8,398.1 531.8,394.1 577.2,441.3 	"/>
	<polyline style="fill:#D3D3D3;" points="585.4,345.6 585.4,349.4 530.2,395.2 530.2,391.4 585.4,345.6 	"/>
	<polyline style="fill:#D3D3D3;" points="530.2,391.4 530.2,395.2 471.9,334.8 471.8,330.8 530.2,391.4 	"/>
	<polyline style="fill:#D3D3D3;" points="480.9,244.2 480.9,248.1 466.9,259.7 466.9,255.7 480.9,244.2 	"/>
	<polyline style="fill:#D3D3D3;" points="476.8,266.1 476.8,269.9 435.8,305 435.8,300.8 476.8,266.1 	"/>
	<polyline style="fill:#D3D3D3;" points="435.8,300.8 435.8,305 397.5,265.1 397.5,261.1 435.8,300.8 	"/>
	<polyline style="fill:#D3D3D3;" points="289.4,268.5 289.4,272.5 230.4,321.3 230.4,317.5 289.4,268.5 	"/>
	<polyline style="fill:#D3D3D3;" points="230.4,317.5 230.4,321.3 158.2,246.5 158.2,242.5 230.4,317.5 	"/>
	<polyline style="fill:#D3D3D3;" points="327.7,306.4 327.7,310.2 324.4,324.4 324.4,320.6 327.7,306.4 	"/>
	<polyline style="fill:#D3D3D3;" points="324.4,320.6 324.4,324.4 275.2,365.3 275.2,361.4 324.4,320.6 	"/>
	<polyline style="fill:#D3D3D3;" points="275.2,361.4 275.2,365.3 236.1,324.6 236,320.8 275.2,361.4 	"/>
	<polyline style="fill:#D3D3D3;" points="363.1,390.3 363.1,394.5 346.1,408.4 346.1,404.6 363.1,390.3 	"/>
	<polyline style="fill:#D3D3D3;" points="346.1,404.6 346.1,408.4 296.2,356.7 296.2,352.9 346.1,404.6 	"/>
	<polyline style="fill:#D3D3D3;" points="345.6,409.9 345.8,413.9 311.9,441.7 311.9,437.9 345.6,409.9 	"/>
	<polyline style="fill:#D3D3D3;" points="255.4,456.8 255.4,460.8 220.7,425 220.7,421 255.4,456.8 	"/>
	<polyline style="fill:#D3D3D3;" points="291.3,456.8 291.3,460.8 255.4,460.8 255.4,456.8 291.3,456.8 	"/>
	<polyline style="fill:#D3D3D3;" points="311.9,441.7 291.3,460.8 291.3,456.8 311.9,437.9 	"/>
	<path d="M295.8,358.1"/>
	<path d="M259.5,388.6"/>
	<polyline style="fill:#D3D3D3;" points="337.8,560.9 337.8,564.9 313.2,586 313.2,582.2 337.8,560.9 	"/>
	<polyline style="fill:#D3D3D3;" points="313.2,582.2 313.2,586 258.7,631.2 258.7,627.3 313.2,582.2 	"/>
	<polyline style="fill:#D3D3D3;" points="258.7,627.3 258.7,631.2 153.4,521.9 153.4,517.9 258.7,627.3 	"/>
	<polyline style="fill:#D3D3D3;" points="402,624.9 402,628.9 322.7,694.7 322.7,690.5 402,624.9 	"/>
	<polyline style="fill:#D3D3D3;" points="322.7,690.5 322.7,694.7 277.4,647.6 277.4,643.7 322.7,690.5 	"/>
	<path style="fill:#D3D3D3;" d="M450.8,674.2v4c-1.2,5.2-4.3,11.1-8.2,16.8v-4C446.4,685.3,449.4,679.4,450.8,674.2"/>
	<path style="fill:#D3D3D3;" d="M442.6,691v4c-4.9,7.5-10.6,14.6-14.9,20.5c-1.9,2.4-5.4,5.7-9.4,9.4v-4c4.2-3.6,7.5-7.1,9.4-9.4
		C432.2,705.8,437.9,698.5,442.6,691"/>
	<path style="fill:#D3D3D3;" d="M418.1,720.9v4C404.6,737,383.4,753,382.2,754v-4C383.4,749,404.6,733,418.1,720.9"/>
	<path style="fill:#D3D3D3;" d="M450.8,674.2v4c-2.9,12-15.1,27.1-23.1,37.3c-8,10.2-43.7,37.1-45.6,38.5v-4
		c1.7-1.4,37.7-28.3,45.6-38.5C435.7,701.3,447.8,686.2,450.8,674.2"/>
	<polyline style="fill:#D3D3D3;" points="382,750 382,754 328.3,698 328.3,694.1 382,750 	"/>
	<polyline style="fill:#424549;" points="358.3,747.6 358.3,751.6 289.9,808.3 289.9,804.3 358.3,747.6 	"/>
	<polyline style="fill:#3F4246;" points="289.9,804.3 289.9,808.3 242.5,759 242.5,755.2 289.9,804.3 	"/>
	<polyline style="fill:#515459;" points="310.9,698.5 358.3,747.6 289.9,804.3 242.5,755.2 310.9,698.5 	"/>
	<polyline style="fill:#D3D3D3;" points="375.8,765.8 375.8,769.8 369.6,808.5 369.6,804.7 375.8,765.8 	"/>
	<polyline style="fill:#D3D3D3;" points="369.6,804.7 369.6,808.5 308.8,795.6 308.8,791.7 369.6,804.7 	"/>
	<polyline style="fill:#D3D3D3;" points="369.7,806.9 369.7,810.7 365.4,844.1 365.2,840.1 369.7,806.9 	"/>
	<polyline style="fill:#D3D3D3;" points="365.2,840.1 365.4,844.1 291.1,831.2 291.1,827.4 365.2,840.1 	"/>
	<polyline style="fill:#D3D3D3;" points="416.6,847.5 416.6,851.3 405.6,916.4 405.5,912.4 416.6,847.5 	"/>
	<polyline style="fill:#D3D3D3;" points="405.5,912.4 405.6,916.4 358.4,906 358.4,902 405.5,912.4 	"/>
	<polyline style="fill:#D3D3D3;" points="475.2,858.6 475.2,862.6 471.8,893.7 471.8,889.9 475.2,858.6 	"/>
	<polyline style="fill:#D3D3D3;" points="471.8,889.9 471.8,893.7 435.7,922.7 435.7,918.7 471.8,889.9 	"/>
	<polyline style="fill:#D3D3D3;" points="435.7,918.7 435.7,922.7 406.7,916.8 406.5,912.8 435.7,918.7 	"/>
	<polyline style="fill:#D3D3D3;" points="534.6,735.1 534.6,738.9 498.3,769.6 498.3,765.6 534.6,735.1 	"/>
	<path style="fill:#D3D3D3;" d="M498.3,765.6v4c-1-0.2-2.3-0.2-3.3-0.3c-9.7-0.5-17.2,2.4-20.6,4.2v-4c3.5-1.7,11.1-4.9,20.6-4.3
		C496,765.3,497.3,765.5,498.3,765.6"/>
	<path style="fill:#D3D3D3;" d="M474.4,769.6v4c-1.4,0.7-2.1,1.2-2.3,1.2v-4C472.1,770.8,473,770.3,474.4,769.6"/>
	<path style="fill:#D3D3D3;" d="M498.3,765.6v4c-1-0.2-2.3-0.3-3.3-0.3c-13.4-0.7-22.6,5.4-23.1,5.6v-4c0.3-0.3,9.5-6.2,22.9-5.6
		C496,765.3,497.3,765.5,498.3,765.6"/>
	<polyline style="fill:#D3D3D3;" points="472.1,771 472.1,774.8 443.6,745.3 443.6,741.5 472.1,771 	"/>
	<polyline style="fill:#D3D3D3;" points="610.6,814.4 610.6,818.4 609.9,818.7 609.9,814.7 610.6,814.4 	"/>
	<path style="fill:#D3D3D3;" d="M609.9,814.7v4c-12.1,5.7-82.9,8.5-90.7,10.2c-1.2,0.3-2.6,0.9-4,1.6v-4c1.4-0.7,2.8-1.2,4-1.6
		C526.8,823.2,597.7,820.5,609.9,814.7"/>
	<path style="fill:#D3D3D3;" d="M515.1,826.7v4c-3.8,1.9-7.8,5-10.6,7.6v-4C507.3,831.7,511.3,828.6,515.1,826.7"/>
	<path style="fill:#D3D3D3;" d="M504.4,834.3v4c-2.4,2.3-4.2,4-4.3,4.2v-4C500.4,838.2,501.9,836.4,504.4,834.3"/>
	<path style="fill:#D3D3D3;" d="M610.6,814.4v4c-9.5,5.9-83.6,8.8-91.6,10.8c-8,1.9-18.4,12.7-18.9,13.2v-4
		c0.5-0.5,11.1-11.5,19.1-13.4C526.9,823.2,601,820.3,610.6,814.4"/>
	<polyline style="fill:#D3D3D3;" points="500,838.5 500.2,842.5 495.5,837.5 495.3,833.6 500,838.5 	"/>
	<polygon style="fill:#D3D3D3;" points="652.9,863.6 640,874.4 639.9,870.4 652.9,859.6 	"/>
	<polygon style="fill:#D3D3D3;" points="640,874.5 595.3,828.8 595.1,825 640,870.5 	"/>
	<polyline style="fill:#D3D3D3;" points="691.1,800.5 691.2,804.3 657.4,832.3 657.4,828.4 691.1,800.5 	"/>
	<polyline style="fill:#D3D3D3;" points="657.4,828.4 657.4,832.3 565.3,736.7 565.3,732.7 657.4,828.4 	"/>
	<polyline style="fill:#D3D3D3;" points="708.1,718.8 708.2,722.6 690.2,797.7 690.2,793.7 708.1,718.8 	"/>
	<polyline style="fill:#D3D3D3;" points="690.2,793.7 690.2,797.7 601.2,705.3 601,701.4 690.2,793.7 	"/>
	<polyline style="fill:#D3D3D3;" points="545.5,655.5 545.5,659.4 518.9,681.3 518.9,677.5 545.5,655.5 	"/>
	<polyline style="fill:#D3D3D3;" points="518.9,677.5 518.9,681.3 493.8,655.1 493.8,651.3 518.9,677.5 	"/>
	<polyline style="fill:#D3D3D3;" points="417.6,550 417.6,553.8 403.4,565.4 403.4,561.6 417.6,550 	"/>
	<polyline style="fill:#D3D3D3;" points="403.4,561.6 403.4,565.4 379.4,540.6 379.4,536.6 403.4,561.6 	"/>
	<polyline style="fill:#D3D3D3;" points="453.6,423.4 453.2,427.2 401.3,461.9 401.5,457.9 453.6,423.4 	"/>
	<path style="fill:#D3D3D3;" d="M394.3,443.5l0.4-4c-0.9,10.1,6,17.5,6.8,18.2l-0.2,4C400.5,461.1,393.4,453.6,394.3,443.5"/>
	<polyline style="fill:#D3D3D3;" points="634.2,548.2 634.2,552.2 618.4,565.2 618.4,561.4 634.2,548.2 	"/>
	<polyline style="fill:#D3D3D3;" points="618.4,561.4 618.4,565.2 604.5,551 604.3,546.8 618.4,561.4 	"/>
	<polyline style="fill:#D3D3D3;" points="808,783.7 808.2,787.5 754.9,831.7 754.9,827.7 808,783.7 	"/>
	<polyline style="fill:#D3D3D3;" points="754.9,827.7 754.9,831.7 727.2,803.1 727.2,799.1 754.9,827.7 	"/>
	<polyline style="fill:#D3D3D3;" points="491.9,279.5 491.9,283.4 450.1,318.2 450.1,314.2 491.9,279.5 	"/>
	<polyline style="fill:#D3D3D3;" points="450.1,314.2 450.1,318.2 439.3,307.2 439.3,303.2 450.1,314.2 	"/>
	<polyline style="fill:#D3D3D3;" points="410,310.3 410,314.3 395.2,326.5 395.2,322.5 410,310.3 	"/>
	<polyline style="fill:#D3D3D3;" points="395.2,322.5 395.2,326.5 297.7,225 297.5,221.2 395.2,322.5 	"/>
	<polyline style="fill:#D3D3D3;" points="431.1,210.1 431.1,213.9 384.1,252.7 384.1,248.7 431.1,210.1 	"/>
	<polyline style="fill:#D3D3D3;" points="384.1,248.7 384.1,252.7 346.8,214 346.8,210.2 384.1,248.7 	"/>
	<polyline style="fill:#D3D3D3;" points="391.8,167.7 391.8,171.7 344.9,210.6 344.9,206.6 391.8,167.7 	"/>
	<polyline style="fill:#D3D3D3;" points="344.9,206.6 344.9,210.6 292.9,156.8 292.9,152.8 344.9,206.6 	"/>
	<polyline style="fill:#424449;" points="462.4,766 462.4,770.7 411.4,812.3 411.4,807.6 462.4,766 	"/>
	<polyline style="fill:#3F4246;" points="411.4,807.6 411.4,812.3 397.5,798.4 397.5,793.7 411.4,807.6 	"/>
	<polyline style="fill:#515459;" points="448.7,751.2 462.4,766 411.4,807.6 397.5,793.7 448.7,751.2 	"/>
	<polyline style="fill:#424449;" points="621.3,601.3 621.5,606 570.5,647.6 570.5,642.8 621.3,601.3 	"/>
	<polyline style="fill:#3F4246;" points="570.5,642.8 570.5,647.6 556.8,633.6 556.6,628.9 570.5,642.8 	"/>
	<polyline style="fill:#515459;" points="607.6,586.6 621.3,601.3 570.5,642.8 556.6,628.9 607.6,586.6 	"/>
	<polyline style="fill:#424449;" points="473.5,446.7 473.5,451.4 422.6,492.9 422.5,488.2 473.5,446.7 	"/>
	<polyline style="fill:#3F4246;" points="422.5,488.2 422.6,492.9 408.6,479 408.6,474.3 422.5,488.2 	"/>
	<polyline style="fill:#515459;" points="459.8,432 473.5,446.7 422.5,488.2 408.6,474.3 459.8,432 	"/>
	<polyline style="fill:#D3D3D3;" points="187.7,147.2 187.7,151.2 167.2,144.6 167.1,140.7 187.7,147.2 	"/>
	<polyline style="fill:#D3D3D3;" points="207.5,167.9 207.7,171.9 187.7,151.2 187.7,147.2 207.5,167.9 	"/>
	<polyline style="fill:#D3D3D3;" points="321.1,73.9 321.1,77.8 207.7,171.9 207.5,167.9 321.1,73.9 	"/>
	<polyline style="fill:#D3D3D3;" points="701.8,881.4 701.8,885.4 672.8,909.3 672.7,905.3 701.8,881.4 	"/>
	<polyline style="fill:#D3D3D3;" points="672.8,905.3 672.8,909.3 642.3,875.8 642.1,872 672.8,905.3 	"/>
	<path style="fill:#D3D3D3;" d="M771.1,678.8l-53.3-53.3c0,0-27.2,21.2-23.4,40.2l26.1,25.2l32.7,5.6L771.1,678.8z"/>
	<polyline style="fill:#D3D3D3;" points="771.1,674.5 771.1,678.8 768,678.8 760,676.6 	"/>
</g>
<g id="landmarks-shops">
	<polyline id="r212g" style="fill:#EFEFEF;" points="654.4,861.7 668,874.9 696.3,875.8 701.8,881.4 672.8,905.3 642.1,872 
		654.4,861.7 	"/>
	<path id="r1262" style="fill:#EFEFEF;" d="M498.6,836.9l61.4,63.5l8.8,32.4l-2.9,2.3c11.5,12,10.8,22.4,2.9,28.6
		c-4.2,3.6-10.1,6.2-16.1,5.9c-4.9-0.2-10.1-2.4-15.1-7.5c-11.3-11.6,1.6-25.9,2.3-26.4L441,916.3c10.1-8.3,33.3-27.6,34.4-28.6
		l4.3-41.3C480.4,846.1,492.4,836.8,498.6,836.9"/>
	<path id="r210c" style="fill:#EFEFEF;" d="M964.2,741l8.3,8.8l-11.6,9.7l-13.4,66.6l3.5,11.8l-124.2,43.6
		c-5.6-5.7-12.5-12.8-12.8-13.4c-0.9-0.9,49.3-40.9,51.9-43l-9.2-9.7l17.9-14.9l2.6,2.9l15.6-13l-3.6-4l9.2-7.6l16.5,3.1L964.2,741"
		/>
	<polyline id="r216c" style="fill:#EFEFEF;" points="135.5,514.6 147.8,527.4 311.4,697.1 240.3,756.3 292.7,807.3 292.7,831.6 
		365,843.7 357.1,910 330.9,931.7 20.8,609.8 135.5,514.6 	"/>
	<polyline id="r210ab" style="fill:#EFEFEF;" points="859.2,631.2 947.5,722.6 892.3,768.4 804,677 859.2,631.2 	"/>
	<polyline id="r210d" style="fill:#EFEFEF;" points="811,783.3 855.4,829.3 800,875.1 755.8,829 811,783.3 	"/>
	<polyline id="r209b" style="fill:#EFEFEF;" points="828.5,598.7 848.6,619.5 793.8,665 773.8,644.2 828.5,598.7 	"/>
	<polyline id="r209a" style="fill:#EFEFEF;" points="806.3,576.5 825.2,596.1 770.4,641.4 751.4,621.8 806.3,576.5 	"/>
	<polyline id="r208" style="fill:#EFEFEF;" points="762.4,529.3 802.5,570.8 746.6,616.9 706.7,575.6 762.4,529.3 	"/>
	<polyline id="r207" style="fill:#EFEFEF;" points="719,486.6 760,529.1 705.1,574.4 664.3,532.1 719,486.6 	"/>
	<polyline id="r206" style="fill:#EFEFEF;" points="675.3,440 718.3,484.7 663.1,530.5 619.9,485.8 675.3,440 	"/>
	<polyline id="r205" style="fill:#EFEFEF;" points="630.7,394.7 673.5,439.3 618.5,484.9 575.7,440.3 630.7,394.7 	"/>
	<polyline id="r203" style="fill:#EFEFEF;" points="586.8,348.5 632.2,395.7 577.2,441.3 531.8,394.1 586.8,348.5 	"/>
	<polyline id="r202" style="fill:#EFEFEF;" points="526.9,285 585.4,345.6 530.2,391.4 471.8,330.8 526.9,285 	"/>
	<polyline id="r201d" style="fill:#EFEFEF;" points="453,215.1 480.9,244.2 466.9,255.7 476.8,266.1 435.8,300.8 397.5,261.1 
		453,215.1 	"/>
	<polyline id="r226" style="fill:#EFEFEF;" points="217.2,193.7 289.4,268.5 230.4,317.5 158.2,242.5 217.2,193.7 	"/>
	<polyline id="r225" style="fill:#EFEFEF;" points="294.9,271.8 327.7,306.4 324.4,320.4 275.2,361.4 236,320.8 294.9,271.8 	"/>
	<polyline id="r223" style="fill:#EFEFEF;" points="329.6,324.9 364,361 363.1,390.5 346.1,404.6 296.2,352.9 329.6,324.9 	"/>
	<polygon id="r221" style="fill:#EFEFEF;" points="291.3,456.8 255.4,456.8 220.7,421 259.5,388.6 295.8,358.1 345.6,409.9 
		311.9,437.9 	"/>
	<polyline id="r220" style="fill:#EFEFEF;" points="233.3,451.4 257.6,476.6 299.8,478.8 302.6,521.5 310.9,530.2 337.8,560.9 
		313.2,582.2 258.7,627.3 153.4,517.9 233.3,451.4 	"/>
	<polyline id="r219" style="fill:#EFEFEF;" points="356.7,577.9 402,624.9 322.7,690.5 277.4,643.7 356.7,577.9 	"/>
	<path id="r218" style="fill:#EFEFEF;" d="M407.4,628.4l43.4,45.8c-2.9,12-15.1,27.1-23.1,37.1c-8,10.2-43.7,37.1-45.6,38.5
		l-53.8-56L407.4,628.4"/>
	<polyline id="r216b" style="fill:#EFEFEF;" points="360.4,748.8 375.8,765.8 369.6,804.7 308.8,791.7 360.4,748.8 	"/>
	<polyline id="r216a" style="fill:#EFEFEF;" points="306.9,794.6 369.7,806.9 365.2,840.1 291.1,827.4 291.6,807.3 306.9,794.6 	"/>
	<polyline id="r215b" style="fill:#EFEFEF;" points="416.6,847.5 405.5,912.4 358.4,902 368.5,840.1 416.6,847.5 	"/>
	<polyline id="r215a" style="fill:#EFEFEF;" points="418.5,848 475.2,858.6 471.8,889.9 435.7,918.7 406.5,912.9 418.5,848 	"/>
	<path id="k201" style="fill:#EFEFEF;" d="M477.5,693.5c3.1,0.2,28.1,1.7,40.6,13c13.4,12.1,16.3,27.8,16.5,28.5l-36.3,30.7
		c-1.2-0.2-2.3-0.2-3.3-0.3c-13.4-0.7-22.6,5.4-22.9,5.6l-28.5-29.5c0.7-0.5,13.9-11.1,22.6-20.1c8.7-9.2,11.1-26.7,11.1-27.8
		L477.5,693.5"/>
	<path id="r212e" style="fill:#EFEFEF;" d="M569.8,772.1l40.9,42.3c-9.4,6.1-83.6,8.8-91.6,10.8c-8,1.7-18.4,12.7-19.1,13.4
		l-4.7-4.9L569.8,772.1"/>
	<polyline id="r212f" style="fill:#EFEFEF;" points="606.7,814.6 653,859.6 640,870.4 594.3,824.9 606.7,814.6 	"/>
	<polyline id="r212cd" style="fill:#EFEFEF;" points="598.9,704.7 691.1,800.5 657.4,828.4 565.3,732.7 598.9,704.7 	"/>
	<polyline id="r212ab" style="fill:#EFEFEF;" points="640.7,688.9 682,691.7 708.1,718.8 690.2,793.7 601,701.4 640.7,688.9 	"/>
	<polyline id="k202" style="fill:#EFEFEF;" points="507.8,639.5 545.5,655.5 518.9,677.5 493.8,651.3 507.8,639.5 	"/>
	<polyline id="r211" style="fill:#EFEFEF;" points="769.1,729 806.3,768.1 808,783.7 754.9,827.7 727.2,799.1 736.9,755.9 
		769.1,729 	"/>
	<polyline id="r201e" style="fill:#EFEFEF;" points="481.5,268.5 491.9,279.5 450.1,314.2 439.3,303.2 481.5,268.5 	"/>
	<polyline id="k207" style="fill:#EFEFEF;" points="312.3,209.2 410,310.3 395.2,322.5 297.5,221.2 312.3,209.2 	"/>
	<polyline id="r201c_1_" style="fill:#EFEFEF;" points="393.8,171.2 431.1,210.1 384.1,248.7 346.8,210.2 393.8,171.2 	"/>
	<polyline id="r201ab_1_" style="fill:#EFEFEF;" points="339.9,113.9 391.8,167.7 344.9,206.6 292.9,152.8 339.9,113.9 	"/>
	<path id="r228" style="fill:#EFEFEF;" d="M253,41.2c19.6,1,39.9,17.5,40.9,18.4l7.5-6.2L321,73.9l-113.5,94l-20-20.6l-20.5-6.6
		l24.8-72.9l11.6-0.3c1.2-1.2,22.6-22.9,43.4-26C248.8,41.2,250.9,41.1,253,41.2"/>
	<polyline id="k201_1_" style="fill:#EFEFEF;" points="406,514.6 417.6,550 403.4,561.6 379.4,536.6 406,514.6 	"/>
	<path id="k206" style="fill:#EFEFEF;" d="M434.5,411.1c12,2,18.6,11.8,19.1,12.3l-52.1,34.5c-0.9-1.1-20.4-21.7,11.2-40.8
		C421.3,411.1,428.5,410,434.5,411.1"/>
	<polyline id="k203" style="fill:#EFEFEF;" points="620.3,533.8 634.2,548.2 618.4,561.4 604.3,546.8 620.3,533.8 	"/>
	<path id="k205" style="fill:#EFEFEF;" d="M771.1,674.5l-53.3-53.3c0,0-27.2,21.2-23.4,40.2l26.1,25.2l32.7,5.6L771.1,674.5z"/>
</g>
<g id="icons_1_">
	<g>
		<path style="fill:#C41530;" d="M289.9,793.6c0,2.1-1.8,3.8-3.8,3.8h-27.5c-2.1,0-3.8-1.7-3.8-3.8v-27.5c0-2.1,1.8-3.8,3.8-3.8
			h27.5c2.1,0,3.8,1.7,3.8,3.8V793.6"/>
		<g>
			<path style="fill:#FFFFFF;" d="M269,790.1c1,0,1.9-0.3,2.8-0.9l2,2c-1.4,1.1-2.9,1.6-4.7,1.6c-1.4,0-2.7-0.3-3.9-1
				c-1.2-0.7-2.1-1.6-2.8-2.8c-0.7-1.2-1-2.5-1-3.8c0-1.8,0.5-3.3,1.6-4.7l2,2c-0.6,0.8-0.8,1.8-0.8,2.8c0,1.4,0.5,2.5,1.4,3.5
				C266.5,789.6,267.6,790.1,269,790.1z M280.6,779.1c0.3,0.3,0.5,0.7,0.4,1.2l-0.6,7.8c0,0.4-0.2,0.7-0.5,1c-0.3,0.3-0.6,0.4-1,0.4
				c-0.1,0-0.1,0-0.1,0c-0.4,0-0.8-0.2-1-0.5c-0.3-0.3-0.4-0.7-0.4-1.1l0.5-6l-2,0.1c0.5,1.1,0.8,2.2,0.8,3.4c0,2-0.7,3.8-2.1,5.2
				l-1.9-1.9c0.9-0.9,1.3-2.1,1.3-3.3c0-1.4-0.5-2.5-1.4-3.5c-1-1-2.1-1.5-3.5-1.5c-1.3,0-2.4,0.4-3.3,1.3l-1.9-1.9
				c1.1-1.1,2.5-1.7,4-2l3.7-4.2l-2.1-1.2l-2.6,2.3c-0.3,0.3-0.7,0.4-1.1,0.4s-0.8-0.2-1-0.5c-0.3-0.3-0.4-0.7-0.4-1.1
				c0-0.4,0.2-0.8,0.5-1l3.4-3c0.2-0.2,0.5-0.3,0.8-0.4c0.3,0,0.6,0,0.9,0.2l6.9,4c0.3,0.2,0.6,0.5,0.7,1c0.2,0.6,0,1.2-0.4,1.6
				l-2.9,3.3l5.2-0.3C279.9,778.6,280.3,778.7,280.6,779.1z M279.6,771.9c-0.5,0.5-1.1,0.7-1.8,0.7s-1.3-0.2-1.8-0.7
				c-0.5-0.5-0.7-1.1-0.7-1.8s0.2-1.3,0.7-1.8c0.5-0.5,1.1-0.7,1.8-0.7s1.3,0.2,1.8,0.7c0.5,0.5,0.7,1.1,0.7,1.8
				S280.1,771.4,279.6,771.9z"/>
		</g>
	</g>
	<g>
		<path style="fill:#C41530;" d="M336.4,796.2c0,2.1-1.8,3.8-3.8,3.8h-27.5c-2.1,0-3.8-1.7-3.8-3.8v-27.5c0-2.1,1.8-3.8,3.8-3.8
			h27.5c2.1,0,3.8,1.7,3.8,3.8V796.2"/>
		<g>
			<path style="fill:#FFFFFF;" d="M328.2,784.6c0,0.4-0.1,0.7-0.4,1c-0.3,0.3-0.6,0.4-1,0.4c-0.5,0-0.9-0.2-1.2-0.6l-3.3-5h-0.7v1.9
				l3.6,6c0.1,0.1,0.1,0.3,0.1,0.5c0,0.3-0.1,0.5-0.3,0.7c-0.2,0.2-0.4,0.3-0.7,0.3h-2.8v4c0,0.4-0.2,0.8-0.5,1.2
				c-0.3,0.3-0.7,0.5-1.2,0.5h-2.3c-0.4,0-0.8-0.2-1.2-0.5c-0.3-0.3-0.5-0.7-0.5-1.2v-4h-2.8c-0.3,0-0.5-0.1-0.7-0.3
				c-0.2-0.2-0.3-0.4-0.3-0.7c0-0.2,0-0.3,0.1-0.5l3.6-6v-1.9h-0.7l-3.3,5c-0.3,0.4-0.7,0.6-1.2,0.6c-0.4,0-0.7-0.1-1-0.4
				c-0.3-0.3-0.4-0.6-0.4-1c0-0.3,0.1-0.5,0.2-0.8l3.7-5.6c0.7-1,1.6-1.6,2.6-1.6h5.6c1,0,1.9,0.5,2.6,1.6l3.7,5.6
				C328.2,784,328.2,784.3,328.2,784.6z M321.2,770.6c0.6,0.6,1,1.4,1,2.3c0,0.9-0.3,1.7-1,2.3c-0.6,0.6-1.4,1-2.3,1s-1.7-0.3-2.3-1
				c-0.6-0.6-1-1.4-1-2.3c0-0.9,0.3-1.7,1-2.3c0.6-0.6,1.4-1,2.3-1S320.6,769.9,321.2,770.6z"/>
		</g>
	</g>
	<g>
		<path style="fill:#C41530;" d="M307.5,751.2c0,2.1-1.8,3.8-3.8,3.8h-27.5c-2.1,0-3.8-1.7-3.8-3.8v-27.5c0-2.1,1.8-3.8,3.8-3.8
			h27.5c2.1,0,3.8,1.7,3.8,3.8V751.2"/>
		<g>
			<path style="fill:#FFFFFF;" d="M297.4,734.4v6.1c0,0.4-0.1,0.7-0.4,1c-0.3,0.3-0.6,0.4-1,0.4c-0.4,0-0.7-0.1-1-0.4
				c-0.3-0.3-0.4-0.6-0.4-1v-5.1h-0.9v13.3c0,0.4-0.2,0.8-0.5,1.2c-0.3,0.3-0.7,0.5-1.2,0.5c-0.4,0-0.8-0.2-1.2-0.5
				c-0.3-0.3-0.5-0.7-0.5-1.2v-6.8h-0.9v6.8c0,0.4-0.2,0.8-0.5,1.2c-0.3,0.3-0.7,0.5-1.2,0.5c-0.4,0-0.8-0.2-1.2-0.5
				c-0.3-0.3-0.5-0.7-0.5-1.2v-13.3h-0.9v5.1c0,0.4-0.1,0.7-0.4,1c-0.3,0.3-0.6,0.4-1,0.4c-0.4,0-0.7-0.1-1-0.4
				c-0.3-0.3-0.4-0.6-0.4-1v-6.1c0-0.8,0.3-1.4,0.8-2c0.5-0.5,1.2-0.8,2-0.8h9.3c0.8,0,1.4,0.3,2,0.8
				C297.1,732.9,297.4,733.6,297.4,734.4z M292.2,725.5c0.6,0.6,1,1.4,1,2.3c0,0.9-0.3,1.7-1,2.3c-0.6,0.6-1.4,1-2.3,1
				c-0.9,0-1.7-0.3-2.3-1c-0.6-0.6-1-1.4-1-2.3c0-0.9,0.3-1.7,1-2.3c0.6-0.6,1.4-1,2.3-1C290.8,724.6,291.6,724.9,292.2,725.5z"/>
		</g>
	</g>
	<g>
		<path style="fill:#C41530;" d="M354,729.1c0,2.1-1.8,3.8-3.8,3.8h-27.5c-2.1,0-3.8-1.7-3.8-3.8v-27.5c0-2.1,1.8-3.8,3.8-3.8h27.5
			c2.1,0,3.8,1.7,3.8,3.8V729.1"/>
		<g>
			<path style="fill:#FFFFFF;" d="M343.9,712.4v6.1c0,0.4-0.1,0.7-0.4,1c-0.3,0.3-0.6,0.4-1,0.4c-0.4,0-0.7-0.1-1-0.4
				c-0.3-0.3-0.4-0.6-0.4-1v-5.1h-0.9v13.3c0,0.4-0.2,0.8-0.5,1.2c-0.3,0.3-0.7,0.5-1.2,0.5c-0.4,0-0.8-0.2-1.2-0.5
				c-0.3-0.3-0.5-0.7-0.5-1.2v-6.8H336v6.8c0,0.4-0.2,0.8-0.5,1.2c-0.3,0.3-0.7,0.5-1.2,0.5c-0.4,0-0.8-0.2-1.2-0.5
				c-0.3-0.3-0.5-0.7-0.5-1.2v-13.3h-0.9v5.1c0,0.4-0.1,0.7-0.4,1c-0.3,0.3-0.6,0.4-1,0.4c-0.4,0-0.7-0.1-1-0.4
				c-0.3-0.3-0.4-0.6-0.4-1v-6.1c0-0.8,0.3-1.4,0.8-2c0.5-0.5,1.2-0.8,2-0.8h9.3c0.8,0,1.4,0.3,2,0.8
				C343.6,710.9,343.9,711.6,343.9,712.4z M338.8,703.5c0.6,0.6,1,1.4,1,2.3c0,0.9-0.3,1.7-1,2.3c-0.6,0.6-1.4,1-2.3,1
				c-0.9,0-1.7-0.3-2.3-1c-0.6-0.6-1-1.4-1-2.3c0-0.9,0.3-1.7,1-2.3c0.6-0.6,1.4-1,2.3-1C337.4,702.5,338.1,702.9,338.8,703.5z"/>
		</g>
	</g>
	<g>
		<path style="fill:#C41530;" d="M347,694.5c-0.4,0-0.8-0.2-1.1-0.5l-8-8c-0.3-0.3-0.5-0.7-0.5-1.1c0-0.4,0.2-0.8,0.5-1.1l0.9-0.9
			c0.3-0.3,0.7-0.5,1.1-0.5s0.8,0.2,1.1,0.5l3.6,3.6v-8.7c0-0.4,0.2-0.8,0.5-1c0.3-0.3,0.7-0.4,1.1-0.4h1.6c0.4,0,0.8,0.1,1.1,0.4
			c0.3,0.3,0.5,0.6,0.5,1v8.7l3.6-3.6c0.3-0.3,0.7-0.5,1.1-0.5c0.4,0,0.8,0.2,1.1,0.5l0.9,0.9c0.3,0.3,0.5,0.7,0.5,1.1
			c0,0.4-0.2,0.8-0.5,1.1l-8,8C347.8,694.4,347.4,694.5,347,694.5z"/>
	</g>
	<g>
		<path style="fill:#C41530;" d="M325.9,676.4c0.4,0,0.8,0.2,1.1,0.5l8,8c0.3,0.3,0.5,0.7,0.5,1.1c0,0.4-0.2,0.8-0.5,1.1l-0.9,0.9
			c-0.3,0.3-0.7,0.5-1.1,0.5s-0.8-0.2-1.1-0.5l-3.6-3.6v8.7c0,0.4-0.2,0.8-0.5,1c-0.3,0.3-0.7,0.4-1.1,0.4h-1.6
			c-0.4,0-0.8-0.1-1.1-0.4c-0.3-0.3-0.5-0.6-0.5-1v-8.7l-3.6,3.6c-0.3,0.3-0.7,0.5-1.1,0.5c-0.4,0-0.8-0.2-1.1-0.5l-0.9-0.9
			c-0.3-0.3-0.5-0.7-0.5-1.1c0-0.4,0.2-0.8,0.5-1.1l8-8C325.1,676.6,325.5,676.4,325.9,676.4z"/>
	</g>
	<g>
		<path style="fill:#C41530;" d="M479.5,624.9c0,2.1-1.8,3.8-3.8,3.8h-27.5c-2.1,0-3.8-1.7-3.8-3.8v-27.5c0-2.1,1.8-3.8,3.8-3.8
			h27.5c2.1,0,3.8,1.7,3.8,3.8V624.9"/>
		<g>
			<path style="fill:#FFFFFF;" d="M469.5,608.2v6.1c0,0.4-0.1,0.7-0.4,1c-0.3,0.3-0.6,0.4-1,0.4c-0.4,0-0.7-0.1-1-0.4
				c-0.3-0.3-0.4-0.6-0.4-1v-5.1h-0.9v13.3c0,0.4-0.2,0.8-0.5,1.2c-0.3,0.3-0.7,0.5-1.2,0.5c-0.4,0-0.8-0.2-1.2-0.5
				c-0.3-0.3-0.5-0.7-0.5-1.2v-6.8h-0.9v6.8c0,0.4-0.2,0.8-0.5,1.2c-0.3,0.3-0.7,0.5-1.2,0.5c-0.4,0-0.8-0.2-1.2-0.5
				c-0.3-0.3-0.5-0.7-0.5-1.2v-13.3h-0.9v5.1c0,0.4-0.1,0.7-0.4,1c-0.3,0.3-0.6,0.4-1,0.4c-0.4,0-0.7-0.1-1-0.4
				c-0.3-0.3-0.4-0.6-0.4-1v-6.1c0-0.8,0.3-1.4,0.8-2c0.5-0.5,1.2-0.8,2-0.8h9.3c0.8,0,1.4,0.3,2,0.8
				C469.2,606.7,469.5,607.4,469.5,608.2z M464.3,599.3c0.6,0.6,1,1.4,1,2.3c0,0.9-0.3,1.7-1,2.3c-0.6,0.6-1.4,1-2.3,1
				c-0.9,0-1.7-0.3-2.3-1c-0.6-0.6-1-1.4-1-2.3c0-0.9,0.3-1.7,1-2.3c0.6-0.6,1.4-1,2.3-1C462.9,598.4,463.7,598.7,464.3,599.3z"/>
		</g>
	</g>
	<g>
		<path style="fill:#C41530;" d="M472.5,590.3c-0.4,0-0.8-0.2-1.1-0.5l-8-8c-0.3-0.3-0.5-0.7-0.5-1.1c0-0.4,0.2-0.8,0.5-1.1l0.9-0.9
			c0.3-0.3,0.7-0.5,1.1-0.5s0.8,0.2,1.1,0.5l3.6,3.6v-8.7c0-0.4,0.2-0.8,0.5-1c0.3-0.3,0.7-0.4,1.1-0.4h1.6c0.4,0,0.8,0.1,1.1,0.4
			c0.3,0.3,0.5,0.6,0.5,1v8.7l3.6-3.6c0.3-0.3,0.7-0.5,1.1-0.5c0.4,0,0.8,0.2,1.1,0.5l0.9,0.9c0.3,0.3,0.5,0.7,0.5,1.1
			c0,0.4-0.2,0.8-0.5,1.1l-8,8C473.4,590.2,473,590.3,472.5,590.3z"/>
	</g>
	<g>
		<path style="fill:#C41530;" d="M451.5,572.2c0.4,0,0.8,0.2,1.1,0.5l8,8c0.3,0.3,0.5,0.7,0.5,1.1c0,0.4-0.2,0.8-0.5,1.1l-0.9,0.9
			c-0.3,0.3-0.7,0.5-1.1,0.5s-0.8-0.2-1.1-0.5l-3.6-3.6v8.7c0,0.4-0.2,0.8-0.5,1c-0.3,0.3-0.7,0.4-1.1,0.4h-1.6
			c-0.4,0-0.8-0.1-1.1-0.4c-0.3-0.3-0.5-0.6-0.5-1v-8.7l-3.6,3.6c-0.3,0.3-0.7,0.5-1.1,0.5c-0.4,0-0.8-0.2-1.1-0.5l-0.9-0.9
			c-0.3-0.3-0.5-0.7-0.5-1.1c0-0.4,0.2-0.8,0.5-1.1l8-8C450.6,572.4,451,572.2,451.5,572.2z"/>
	</g>
	<g>
		<path style="fill:#C41530;" d="M757.5,833.6c0,2.1-1.8,3.8-3.8,3.8h-27.5c-2.1,0-3.8-1.7-3.8-3.8v-27.5c0-2.1,1.8-3.8,3.8-3.8
			h27.5c2.1,0,3.8,1.7,3.8,3.8V833.6"/>
		<g>
			<path style="fill:#FFFFFF;" d="M747.5,816.9v6.1c0,0.4-0.1,0.7-0.4,1c-0.3,0.3-0.6,0.4-1,0.4c-0.4,0-0.7-0.1-1-0.4
				c-0.3-0.3-0.4-0.6-0.4-1v-5.1h-0.9v13.3c0,0.4-0.2,0.8-0.5,1.2c-0.3,0.3-0.7,0.5-1.2,0.5c-0.4,0-0.8-0.2-1.2-0.5
				c-0.3-0.3-0.5-0.7-0.5-1.2v-6.8h-0.9v6.8c0,0.4-0.2,0.8-0.5,1.2c-0.3,0.3-0.7,0.5-1.2,0.5c-0.4,0-0.8-0.2-1.2-0.5
				c-0.3-0.3-0.5-0.7-0.5-1.2v-13.3h-0.9v5.1c0,0.4-0.1,0.7-0.4,1c-0.3,0.3-0.6,0.4-1,0.4c-0.4,0-0.7-0.1-1-0.4
				c-0.3-0.3-0.4-0.6-0.4-1v-6.1c0-0.8,0.3-1.4,0.8-2c0.5-0.5,1.2-0.8,2-0.8h9.3c0.8,0,1.4,0.3,2,0.8
				C747.2,815.4,747.5,816.1,747.5,816.9z M742.3,808c0.6,0.6,1,1.4,1,2.3c0,0.9-0.3,1.7-1,2.3c-0.6,0.6-1.4,1-2.3,1
				c-0.9,0-1.7-0.3-2.3-1c-0.6-0.6-1-1.4-1-2.3c0-0.9,0.3-1.7,1-2.3c0.6-0.6,1.4-1,2.3-1C740.9,807,741.7,807.4,742.3,808z"/>
		</g>
	</g>
	<g>
		<path style="fill:#C41530;" d="M750.5,799c-0.4,0-0.8-0.2-1.1-0.5l-8-8c-0.3-0.3-0.5-0.7-0.5-1.1c0-0.4,0.2-0.8,0.5-1.1l0.9-0.9
			c0.3-0.3,0.7-0.5,1.1-0.5c0.4,0,0.8,0.2,1.1,0.5l3.6,3.6v-8.7c0-0.4,0.2-0.8,0.5-1c0.3-0.3,0.7-0.4,1.1-0.4h1.6
			c0.4,0,0.8,0.1,1.1,0.4c0.3,0.3,0.5,0.6,0.5,1v8.7l3.6-3.6c0.3-0.3,0.7-0.5,1.1-0.5c0.4,0,0.8,0.2,1.1,0.5l0.9,0.9
			c0.3,0.3,0.5,0.7,0.5,1.1c0,0.4-0.2,0.8-0.5,1.1l-8,8C751.4,798.9,751,799,750.5,799z"/>
	</g>
	<g>
		<path style="fill:#C41530;" d="M729.5,780.9c0.4,0,0.8,0.2,1.1,0.5l8,8c0.3,0.3,0.5,0.7,0.5,1.1c0,0.4-0.2,0.8-0.5,1.1l-0.9,0.9
			c-0.3,0.3-0.7,0.5-1.1,0.5c-0.4,0-0.8-0.2-1.1-0.5l-3.6-3.6v8.7c0,0.4-0.2,0.8-0.5,1c-0.3,0.3-0.7,0.4-1.1,0.4h-1.6
			c-0.4,0-0.8-0.1-1.1-0.4c-0.3-0.3-0.5-0.6-0.5-1v-8.7l-3.6,3.6c-0.3,0.3-0.7,0.5-1.1,0.5c-0.4,0-0.8-0.2-1.1-0.5l-0.9-0.9
			c-0.3-0.3-0.5-0.7-0.5-1.1c0-0.4,0.2-0.8,0.5-1.1l8-8C728.6,781.1,729,780.9,729.5,780.9z"/>
	</g>
	<g>
		<g>
			<path style="fill:#C41530;" d="M605.6,627.2c0,2.1-1.8,3.8-3.8,3.8h-27.5c-2.1,0-3.8-1.7-3.8-3.8v-27.5c0-2.1,1.8-3.8,3.8-3.8
				h27.5c2.1,0,3.8,1.7,3.8,3.8V627.2"/>
		</g>
		<path style="fill:#FFFFFF;" d="M598.8,604.9h-5.5c-0.8,0-1.6,0.4-2.1,1l-3.9,4.6v-0.2c0-1.3-1-2.3-2.3-2.3s-2.3,1-2.3,2.3v5.4
			c0,0,0,0.1,0,0.1l-1.4,1.7l-4.1,0c-1.5,0-2.7,1.2-2.7,2.7c0,1.5,1.2,2.7,2.7,2.7h0l5.4,0c0.8,0,1.6-0.4,2.1-1l9.9-11.6h4.2
			c1.5,0,2.7-1.2,2.7-2.7C601.6,606.1,600.3,604.9,598.8,604.9L598.8,604.9z M598.8,604.9"/>
		<path style="fill:#FFFFFF;" d="M597,614.9c-0.2-0.2-0.6-0.2-0.9,0l-3.6,3.6c-0.1,0.1-0.1,0.3-0.1,0.4c0.1,0.1,0.2,0.2,0.4,0.2h1.7
			v4.6c0,0.3,0.3,0.6,0.6,0.6h2.8c0.3,0,0.6-0.3,0.6-0.6v-4.6h1.7c0.2,0,0.3-0.1,0.4-0.2c0.1-0.1,0-0.3-0.1-0.4L597,614.9z
			 M597,614.9"/>
		<path style="fill:#FFFFFF;" d="M585.1,607.1c1.2,0,2.2-1,2.2-2.2c0-1.2-1-2.2-2.2-2.2s-2.2,1-2.2,2.2
			C582.8,606.1,583.8,607.1,585.1,607.1L585.1,607.1z M585.1,607.1"/>
	</g>
	<g>
		<g>
			<path style="fill:#C41530;" d="M458.6,472.7c0,2.1-1.8,3.8-3.8,3.8h-27.5c-2.1,0-3.8-1.7-3.8-3.8v-27.5c0-2.1,1.8-3.8,3.8-3.8
				h27.5c2.1,0,3.8,1.7,3.8,3.8V472.7"/>
		</g>
		<path style="fill:#FFFFFF;" d="M451.8,450.4h-5.5c-0.8,0-1.6,0.4-2.1,1l-3.9,4.6v-0.2c0-1.3-1-2.3-2.3-2.3c-1.3,0-2.3,1-2.3,2.3
			v5.4c0,0,0,0.1,0,0.1l-1.4,1.7l-4.1,0c-1.5,0-2.7,1.2-2.7,2.7c0,1.5,1.2,2.7,2.7,2.7h0l5.4,0c0.8,0,1.6-0.4,2.1-1l9.9-11.6h4.2
			c1.5,0,2.7-1.2,2.7-2.7C454.6,451.6,453.3,450.4,451.8,450.4L451.8,450.4z M451.8,450.4"/>
		<path style="fill:#FFFFFF;" d="M450,460.4c-0.2-0.2-0.6-0.2-0.9,0l-3.6,3.6c-0.1,0.1-0.1,0.3-0.1,0.4c0.1,0.1,0.2,0.2,0.4,0.2h1.7
			v4.6c0,0.3,0.3,0.6,0.6,0.6h2.8c0.3,0,0.6-0.3,0.6-0.6v-4.6h1.7c0.2,0,0.3-0.1,0.4-0.2c0.1-0.1,0-0.3-0.1-0.4L450,460.4z
			 M450,460.4"/>
		<path style="fill:#FFFFFF;" d="M438.1,452.6c1.2,0,2.2-1,2.2-2.2c0-1.2-1-2.2-2.2-2.2c-1.2,0-2.2,1-2.2,2.2
			C435.8,451.6,436.8,452.6,438.1,452.6L438.1,452.6z M438.1,452.6"/>
	</g>
	<g>
		<g>
			<path style="fill:#C41530;" d="M448,794.7c0,2.1-1.8,3.8-3.8,3.8h-27.5c-2.1,0-3.8-1.7-3.8-3.8v-27.5c0-2.1,1.8-3.8,3.8-3.8h27.5
				c2.1,0,3.8,1.7,3.8,3.8V794.7"/>
		</g>
		<path style="fill:#FFFFFF;" d="M441.2,772.3h-5.5c-0.8,0-1.6,0.4-2.1,1l-3.9,4.6v-0.2c0-1.3-1-2.3-2.3-2.3c-1.3,0-2.3,1-2.3,2.3
			v5.4c0,0,0,0.1,0,0.1l-1.4,1.7l-4.1,0c-1.5,0-2.7,1.2-2.7,2.7c0,1.5,1.2,2.7,2.7,2.7h0l5.4,0c0.8,0,1.6-0.4,2.1-1l9.9-11.6h4.2
			c1.5,0,2.7-1.2,2.7-2.7C444,773.5,442.8,772.3,441.2,772.3L441.2,772.3z M441.2,772.3"/>
		<path style="fill:#FFFFFF;" d="M439.4,782.3c-0.2-0.2-0.6-0.2-0.9,0l-3.6,3.6c-0.1,0.1-0.1,0.3-0.1,0.4c0.1,0.1,0.2,0.2,0.4,0.2
			h1.7v4.6c0,0.3,0.3,0.6,0.6,0.6h2.8c0.3,0,0.6-0.3,0.6-0.6v-4.6h1.7c0.2,0,0.3-0.1,0.4-0.2c0.1-0.1,0-0.3-0.1-0.4L439.4,782.3z
			 M439.4,782.3"/>
		<path style="fill:#FFFFFF;" d="M427.5,774.5c1.2,0,2.2-1,2.2-2.2c0-1.2-1-2.2-2.2-2.2c-1.2,0-2.2,1-2.2,2.2
			C425.2,773.5,426.2,774.5,427.5,774.5L427.5,774.5z M427.5,774.5"/>
	</g>
	<g>
		<path style="fill:#C41530;" d="M725.8,746c0,2.1-1.8,3.8-3.8,3.8h-27.5c-2.1,0-3.8-1.7-3.8-3.8v-27.5c0-2.1,1.8-3.8,3.8-3.8H722
			c2.1,0,3.8,1.7,3.8,3.8V746"/>
		<g>
			<g>
				<path style="fill:#FFFFFF;" d="M718.9,738c0,0.3,0,0.6-0.1,1c-0.1,0.4-0.2,0.8-0.3,1c-0.2,0.5-0.8,1-1.8,1.5
					c-0.9,0.5-1.8,0.7-2.7,0.7c-0.3,0-0.5,0-0.8-0.1c-0.3,0-0.5-0.1-0.8-0.2c-0.3-0.1-0.5-0.2-0.7-0.2c-0.2-0.1-0.4-0.2-0.8-0.3
					c-0.4-0.1-0.6-0.2-0.7-0.3c-1-0.3-1.8-0.7-2.5-1.2c-1.2-0.8-2.5-1.8-3.8-3.1c-1.3-1.3-2.4-2.6-3.1-3.8c-0.5-0.7-0.9-1.6-1.2-2.5
					c0-0.1-0.1-0.3-0.3-0.7s-0.2-0.7-0.3-0.8c-0.1-0.1-0.1-0.4-0.2-0.7c-0.1-0.3-0.1-0.6-0.2-0.8s-0.1-0.5-0.1-0.8
					c0-0.9,0.2-1.8,0.7-2.7c0.5-1,1.1-1.6,1.5-1.8c0.2-0.1,0.6-0.2,1-0.3c0.4-0.1,0.8-0.1,1-0.1c0.1,0,0.2,0,0.3,0
					c0.2,0.1,0.4,0.4,0.8,1.1c0.1,0.2,0.3,0.4,0.4,0.8s0.4,0.6,0.5,0.9c0.2,0.3,0.3,0.5,0.5,0.8c0,0,0.1,0.2,0.3,0.4
					c0.1,0.2,0.2,0.4,0.3,0.5c0.1,0.1,0.1,0.3,0.1,0.4c0,0.2-0.1,0.4-0.4,0.7c-0.3,0.3-0.6,0.6-0.9,0.8c-0.3,0.2-0.6,0.5-0.9,0.8
					s-0.4,0.5-0.4,0.7c0,0.1,0,0.2,0.1,0.3c0,0.1,0.1,0.2,0.1,0.3c0,0.1,0.1,0.2,0.2,0.3c0.1,0.2,0.2,0.3,0.2,0.3
					c0.7,1.3,1.6,2.5,2.5,3.4c1,1,2.1,1.8,3.4,2.5c0,0,0.1,0.1,0.3,0.2c0.2,0.1,0.3,0.2,0.3,0.2c0.1,0,0.2,0.1,0.3,0.1
					c0.1,0,0.2,0.1,0.3,0.1c0.2,0,0.4-0.1,0.7-0.4s0.5-0.6,0.8-0.9c0.2-0.3,0.5-0.6,0.8-0.9c0.3-0.3,0.5-0.4,0.7-0.4
					c0.1,0,0.3,0,0.4,0.1c0.1,0.1,0.3,0.2,0.5,0.3c0.2,0.1,0.3,0.2,0.4,0.3c0.2,0.1,0.5,0.3,0.8,0.5s0.6,0.3,0.9,0.5
					s0.6,0.3,0.8,0.4c0.7,0.3,1,0.6,1.1,0.8C718.9,737.8,718.9,737.9,718.9,738z"/>
			</g>
		</g>
	</g>
	<g>
		<path style="fill:#C41530;" d="M668.7,838h2.2l4.3,11.2h-2.2l-0.9-2.3h-4.6l-0.9,2.3h-2.2L668.7,838z M669.8,841l-1.5,3.8h3
			L669.8,841z"/>
		<path style="fill:#C41530;" d="M674.7,838h6.2v2.1h-2v9.1h-2.2v-9.1h-2V838z"/>
		<path style="fill:#C41530;" d="M682.9,838h2.1l2.6,7.8l2.6-7.8h2.1l1.9,11.2H692l-1.2-7l-2.4,7h-1.9l-2.3-7l-1.2,7H681L682.9,838z
			"/>
	</g>
	<g>
		<path style="fill:#C41530;" d="M122.5,664.9v-22h3.5c2,0,3.5,0.1,4.4,0.4c1.3,0.3,2.4,1,3.1,1.9c0.8,0.9,1.2,2.1,1.2,3.4
			c0,0.8-0.2,1.6-0.5,2.3c-0.4,0.7-0.9,1.3-1.7,1.9c1.3,0.6,2.3,1.4,2.9,2.4c0.6,0.9,0.9,2.1,0.9,3.3c0,1.2-0.3,2.4-1,3.4
			c-0.6,1-1.5,1.8-2.5,2.3s-2.4,0.8-4.2,0.8H122.5z M126.7,646.9v4.6h0.9c1,0,1.8-0.2,2.3-0.6c0.5-0.4,0.7-1,0.7-1.8
			c0-0.7-0.2-1.2-0.7-1.6c-0.5-0.4-1.2-0.6-2.1-0.6H126.7z M126.7,655.3v5.6h1.1c1.7,0,2.9-0.2,3.5-0.7s0.9-1.1,0.9-1.9
			c0-0.9-0.4-1.7-1.1-2.2c-0.7-0.5-1.9-0.8-3.5-0.8H126.7z"/>
		<path style="fill:#C41530;" d="M151.8,648.7h4.1v16.3h-4.1v-1.7c-0.8,0.8-1.6,1.3-2.4,1.6c-0.8,0.3-1.7,0.5-2.6,0.5
			c-2.1,0-3.9-0.8-5.5-2.4c-1.5-1.6-2.3-3.7-2.3-6.1c0-2.5,0.7-4.6,2.2-6.2c1.5-1.6,3.3-2.4,5.4-2.4c1,0,1.9,0.2,2.8,0.6
			s1.6,0.9,2.4,1.7V648.7z M147.6,652c-1.3,0-2.3,0.4-3.1,1.3c-0.8,0.9-1.3,2-1.3,3.4c0,1.4,0.4,2.6,1.3,3.5
			c0.9,0.9,1.9,1.4,3.1,1.4c1.3,0,2.3-0.4,3.2-1.3c0.8-0.9,1.3-2.1,1.3-3.5c0-1.4-0.4-2.6-1.3-3.4C149.9,652.4,148.8,652,147.6,652z
			"/>
		<path style="fill:#C41530;" d="M164.1,642.4v8.1c0.7-0.7,1.5-1.3,2.4-1.7c0.9-0.4,1.8-0.6,2.8-0.6c2.1,0,3.9,0.8,5.4,2.4
			s2.2,3.7,2.2,6.2c0,2.4-0.8,4.5-2.3,6.1s-3.4,2.4-5.5,2.4c-0.9,0-1.8-0.2-2.6-0.5c-0.8-0.3-1.6-0.9-2.4-1.6v1.7h-4.1v-22.6H164.1z
			 M168.4,652c-1.3,0-2.4,0.4-3.2,1.3c-0.8,0.9-1.3,2-1.3,3.4c0,1.4,0.4,2.6,1.3,3.5c0.8,0.9,1.9,1.3,3.2,1.3c1.2,0,2.3-0.5,3.2-1.4
			c0.9-0.9,1.3-2.1,1.3-3.5c0-1.4-0.4-2.5-1.3-3.4S169.7,652,168.4,652z"/>
		<path style="fill:#C41530;" d="M178.5,648.7h4.2l4.2,10.2l4.7-10.2h4.2l-10.2,22.2h-4.2l3.3-7.2L178.5,648.7z"/>
		<path style="fill:#C41530;" d="M197.6,642.4h4.1v22.6h-4.1V642.4z"/>
		<path style="fill:#C41530;" d="M213.1,648.2c1.5,0,3,0.4,4.3,1.2c1.4,0.8,2.4,1.8,3.2,3.1c0.8,1.3,1.1,2.7,1.1,4.3
			c0,1.5-0.4,3-1.1,4.3c-0.8,1.3-1.8,2.4-3.1,3.1c-1.3,0.8-2.8,1.1-4.4,1.1c-2.3,0-4.3-0.8-6-2.5s-2.5-3.7-2.5-6.1
			c0-2.5,0.9-4.7,2.8-6.4C209.1,649,211,648.2,213.1,648.2z M213.2,652.1c-1.3,0-2.3,0.4-3.2,1.3c-0.8,0.9-1.3,2-1.3,3.4
			c0,1.4,0.4,2.6,1.3,3.4c0.8,0.9,1.9,1.3,3.2,1.3c1.3,0,2.3-0.4,3.2-1.3c0.8-0.9,1.3-2,1.3-3.4s-0.4-2.5-1.3-3.4
			C215.5,652.5,214.5,652.1,213.2,652.1z"/>
		<path style="fill:#C41530;" d="M225.1,648.7h4.1v1.7c0.9-0.8,1.8-1.3,2.5-1.6c0.8-0.3,1.5-0.5,2.3-0.5c1.6,0,3,0.6,4.1,1.7
			c0.9,1,1.4,2.4,1.4,4.3v10.8h-4v-7.1c0-1.9-0.1-3.2-0.3-3.9c-0.2-0.6-0.5-1.1-0.9-1.5c-0.4-0.3-1-0.5-1.6-0.5
			c-0.8,0-1.5,0.3-2.1,0.8c-0.6,0.6-1,1.3-1.2,2.3c-0.1,0.5-0.2,1.6-0.2,3.3v6.5h-4.1V648.7z"/>
	</g>
	<g>
		<path style="fill:#C41530;" d="M215.2,523.3h10.5v3.6h-6.8v3.5h6.8v3.5h-6.8v5h6.8v3.6h-10.5V523.3z"/>
		<path style="fill:#C41530;" d="M237.4,530.3l-2.2,2.2c-0.9-0.9-1.7-1.3-2.4-1.3c-0.4,0-0.7,0.1-0.9,0.3c-0.2,0.2-0.3,0.4-0.3,0.6
			c0,0.2,0.1,0.4,0.2,0.5c0.1,0.2,0.5,0.4,1.1,0.7l1.3,0.7c1.4,0.7,2.3,1.4,2.8,2.1c0.5,0.7,0.8,1.5,0.8,2.5c0,1.3-0.5,2.3-1.4,3.2
			c-0.9,0.8-2.2,1.3-3.7,1.3c-2.1,0-3.7-0.8-5-2.4l2.2-2.4c0.4,0.5,0.9,0.9,1.5,1.2c0.6,0.3,1.1,0.5,1.5,0.5c0.5,0,0.8-0.1,1.1-0.3
			c0.3-0.2,0.4-0.5,0.4-0.8c0-0.5-0.5-1.1-1.6-1.6l-1.2-0.6c-2.3-1.2-3.4-2.6-3.4-4.3c0-1.1,0.4-2.1,1.3-2.9c0.9-0.8,2-1.2,3.3-1.2
			c0.9,0,1.8,0.2,2.6,0.6C236.2,529,236.9,529.5,237.4,530.3z"/>
		<path style="fill:#C41530;" d="M244,528.3v1.6c0.6-0.6,1.3-1.1,2.1-1.4c0.7-0.3,1.5-0.5,2.4-0.5c1.9,0,3.4,0.7,4.7,2.1
			c1.3,1.4,1.9,3.2,1.9,5.4c0,2.1-0.7,3.9-2,5.3c-1.3,1.4-2.9,2.1-4.8,2.1c-0.8,0-1.6-0.1-2.3-0.4s-1.4-0.8-2.1-1.4v6.7h-3.5v-19.4
			H244z M247.8,531.2c-1.1,0-2.1,0.4-2.8,1.1c-0.7,0.8-1.1,1.8-1.1,3c0,1.3,0.4,2.3,1.1,3.1c0.7,0.8,1.7,1.2,2.8,1.2
			c1.1,0,2-0.4,2.7-1.2s1.1-1.8,1.1-3c0-1.2-0.4-2.2-1.1-3S248.9,531.2,247.8,531.2z"/>
		<path style="fill:#C41530;" d="M257.3,528.3h3.1v1.8c0.3-0.7,0.8-1.2,1.3-1.6c0.5-0.4,1.1-0.5,1.8-0.5c0.5,0,0.9,0.1,1.4,0.4
			l-1.1,3.1c-0.4-0.2-0.8-0.3-1-0.3c-0.5,0-1,0.3-1.4,1s-0.6,2-0.6,4l0,0.7v5.7h-3.5V528.3z"/>
		<path style="fill:#C41530;" d="M268.1,522.5c0.6,0,1.2,0.2,1.6,0.7c0.4,0.5,0.7,1,0.7,1.6c0,0.6-0.2,1.2-0.7,1.6s-1,0.7-1.6,0.7
			c-0.6,0-1.2-0.2-1.6-0.7c-0.4-0.5-0.7-1-0.7-1.7c0-0.6,0.2-1.2,0.7-1.6C266.9,522.7,267.4,522.5,268.1,522.5z M266.3,528.3h3.6
			v14.2h-3.6V528.3z"/>
		<path style="fill:#C41530;" d="M273.5,523.1h3.6v5.2h2.1v3.1h-2.1v11.1h-3.6v-11.1h-1.8v-3.1h1.8V523.1z"/>
	</g>
</g>
</svg>
