<?xml version="1.0" encoding="utf-8"?>
<!-- Generator: Adobe Illustrator 21.0.2, SVG Export Plug-In . SVG Version: 6.00 Build 0)  -->
<svg version="1.1" id="Layer_1" xmlns="http://www.w3.org/2000/svg" xmlns:xlink="http://www.w3.org/1999/xlink" x="0px" y="0px"
	 viewBox="0 0 1000 1000" style="enable-background:new 0 0 1000 1000;" xml:space="preserve">
<g id="Layer_1_1_">
	<path style="fill:#EAC77D;" d="M245.4,32.9c15.1,0.7,28.9,8.4,34.6,14.2c9.8,10.2,98.1,101.8,102.8,106.7l17.9-14.7l134.9,138.1
		L451.4,347l-2.1,1.6L312.8,461.8l-9.3-9.6l-51.4,42.6l-44.9-46.7l-38.1-40.5l47.4-39.1l2.8-83.7l-72.1-74.9l1.1-47.4
		c2.1-4.6,41.4-89.3,63.9-115.3C221.5,35.7,233.8,32.4,245.4,32.9"/>
	<polyline style="fill:#007374;" points="646.4,816.1 646.4,820.1 643.4,830.1 643.4,825.9 646.4,816.1 	"/>
	<polyline style="fill:#007374;" points="649.2,832.1 649.2,836.3 646.6,849.3 646.6,845 649.2,832.1 	"/>
	<path style="fill:#D3D3D3;" d="M204.1,863.1v4.2c-0.5-0.5-11.1-11.4-27.5-28.6v-4C193.1,851.7,203.4,862.6,204.1,863.1"/>
	<path style="fill:#D3D3D3;" d="M204.1,863.1v4.2c-0.5-0.5-11.1-11.4-27.5-28.6v-4C193.1,851.7,203.4,862.6,204.1,863.1"/>
	<polyline style="fill:#D3D3D3;" points="388.7,900.3 388.7,904.5 204.1,867.3 204.1,863.1 388.7,900.3 	"/>
	<polyline style="fill:#D3D3D3;" points="427.3,940.5 427.3,944.7 388.7,904.5 388.7,900.3 427.3,940.5 	"/>
	<polyline style="fill:#D3D3D3;" points="485.4,949.6 485.5,953.8 427.5,944.7 427.3,940.5 485.4,949.6 	"/>
	<polyline style="fill:#D3D3D3;" points="653.6,852.4 653.6,856.6 529.6,959.4 529.6,955.4 653.6,852.4 	"/>
	<path style="fill:#D3D3D3;" d="M506.2,987.9v4c-20-1.1-24.7-11.2-24.9-20.7V967C481.5,976.8,486.4,986.8,506.2,987.9"/>
	<path style="fill:#D3D3D3;" d="M481.3,971.4v-4.2c0.2,9.5,5.1,19.6,24.9,20.7v4C486.4,991,481.5,981,481.3,971.4"/>
	<path style="fill:#007273;" d="M530.6,964.5v4.2c0.2,4.6-0.7,10-3.5,14.6v-4C529.9,974.5,530.6,969.1,530.6,964.5"/>
	<path style="fill:#D3D3D3;" d="M527.1,979.1v4.2c-0.9,1.2-1.8,2.6-3.2,3.7v-4.2C525.2,981.5,526.2,980.3,527.1,979.1"/>
	<path style="fill:#D3D3D3;" d="M524,982.6v4.2c-1.1,1.1-2.3,1.9-4,2.6v-4.2C521.5,984.5,522.9,983.6,524,982.6"/>
	<path style="fill:#D3D3D3;" d="M519.9,985.4v4.2c-3.5,1.8-7.9,2.6-13.7,2.6v-4C512.2,988.2,516.6,987,519.9,985.4"/>
	<path style="fill:#D3D3D3;" d="M530.6,964.5v4.2c0.2,9.8-3.5,23.9-24.4,23.3v-4C527.3,988.4,530.6,974.3,530.6,964.5"/>
	<polyline style="fill:#999B9D;" points="498.9,350 498.9,354 469.9,378 469.9,373.8 498.9,350 	"/>
	<polyline style="fill:#D3B379;" points="465,431.9 465,436.1 453.6,445.6 453.4,441.4 465,431.9 	"/>
	<polyline style="fill:#D3B379;" points="453.4,441.4 453.4,445.6 419.7,411.5 419.7,407.3 453.4,441.4 	"/>
	<polyline style="fill:#D3B379;" points="493.3,433.3 493.4,437.5 478.3,450 478.3,445.7 493.3,433.3 	"/>
	<polyline style="fill:#D3B379;" points="478.3,445.7 478.3,450 465,436.1 465,431.9 478.3,445.7 	"/>
	<polyline style="fill:#999B9D;" points="419.7,407.3 419.7,411.5 366.4,455.7 366.4,451.5 419.7,407.3 	"/>
	<polyline style="fill:#D3B379;" points="310.1,466.6 310.1,470.7 303.6,463.8 303.6,459.6 310.1,466.6 	"/>
	<path style="fill:#999C9E;" d="M657.1,456.3v4.2c0,3.9-2.3,8.2-2.3,16.5l-0.2-4.2C654.7,464.5,657.1,460.1,657.1,456.3"/>
	<path style="fill:#D3D3D3;" d="M657.1,456.3v4.2c0,3.9-2.3,8.2-2.3,16.5l-0.2-4.2C654.7,464.5,657.1,460.1,657.1,456.3"/>
	<polyline style="fill:#D3B379;" points="251.7,502.8 251.7,506.8 204.5,457.9 204.5,453.8 251.7,502.8 	"/>
	<polyline style="fill:#D3B379;" points="303.6,459.6 303.6,463.8 251.7,506.8 251.7,502.8 303.6,459.6 	"/>
	<polyline style="fill:#9A9C9F;" points="398.5,484.9 398.5,488.9 391.5,516.1 391.5,512.1 398.5,484.9 	"/>
	<polyline style="fill:#D3B379;" points="583.6,527.1 583.6,531.4 493.4,437.5 493.3,433.3 583.6,527.1 	"/>
	<polyline style="fill:#939598;" points="175,548.7 175,552.9 137.3,513.6 137.3,509.4 175,548.7 	"/>
	<polyline style="fill:#999C9E;" points="669.2,527 669.2,531.2 653.1,549.8 653.1,545.7 669.2,527 	"/>
	<polyline style="fill:#999B9D;" points="445.5,550.3 445.5,554.5 442,557.3 442,553.3 445.5,550.3 	"/>
	<polyline style="fill:#D3B379;" points="586.4,552.2 586.4,556.4 571.7,541.2 571.7,537.1 586.4,552.2 	"/>
	<polyline style="fill:#999C9E;" points="462.4,567 462.5,571.2 462.4,583.1 462.2,578.9 462.4,567 	"/>
	<polyline style="fill:#D3B379;" points="363.8,580.8 363.8,585 304.7,523.5 304.5,519.4 363.8,580.8 	"/>
	<polyline style="fill:#D3B379;" points="603.8,590.8 604,595.2 575.4,565.6 575.4,561.5 603.8,590.8 	"/>
	<polyline style="fill:#939598;" points="416.1,628.7 416.1,632.8 381.8,597.3 381.8,593.3 416.1,628.7 	"/>
	<path style="fill:#96989B;" d="M678.5,552.2v4.2c-10.5,8.8-22.6,18.6-28.4,23.5l-0.7,0.5l-0.2-4.2l0.7-0.5
		C656.1,570.8,668,561,678.5,552.2"/>
	<path style="fill:#989A9D;" d="M649.4,576.4l0.2,4.2c-2.3,2.1-5.3,5.6-8.2,10.4v-4.2C644.1,581.9,647.3,578.4,649.4,576.4"/>
	<path style="fill:#999C9E;" d="M641.3,586.6v4.2c-8.4,13.2-17.5,35.8-17.2,64.9v-4.2C623.8,622.4,632.9,599.6,641.3,586.6"/>
	<path style="fill:#D3D3D3;" d="M624.1,655.7l-0.2-4.2c-0.4-40.5,17.4-68.4,26.1-75.6c6-4.9,17.9-14.7,28.4-23.7v4.2
		c-10.5,8.8-22.6,18.6-28.4,23.5C641.5,587.1,623.6,615,624.1,655.7"/>
	<polyline style="fill:#D3B379;" points="418.3,631 418.3,635 385.4,662.4 385.4,658.4 418.3,631 	"/>
	<polyline style="fill:#999B9D;" points="381.8,593.3 381.8,597.3 292.7,671.4 292.7,667.1 381.8,593.3 	"/>
	<polyline style="fill:#D3B379;" points="516.4,732.8 418.3,635 418.3,631 516.4,728.6 	"/>
	<polyline style="fill:#939598;" points="324.5,704.9 324.5,708.9 289.7,672.9 289.7,668.9 324.5,704.9 	"/>
	<polyline style="fill:#D3B379;" points="556.2,719.3 556.4,723.5 516.4,732.8 516.4,728.6 556.2,719.3 	"/>
	<path style="fill:#95979A;" d="M139.7,793.1v4.2C88.6,744.1,25.5,678.7,24.4,677.7l-0.2-4.2C25.7,674.7,88.7,740.1,139.7,793.1"/>
	<path style="fill:#D3B379;" d="M139.7,793.1v4.2C88.6,744.1,25.5,678.7,24.4,677.7l-0.2-4.2C25.7,674.7,88.7,740.1,139.7,793.1"/>
	<polyline style="fill:#D3B379;" points="289.7,668.9 289.7,672.9 139.9,797.2 139.7,793.1 289.7,668.9 	"/>
	<polyline style="fill:#D3B379;" points="646.6,812.9 646.6,817.2 556.4,723.5 556.2,719.3 646.6,812.9 	"/>
	<path style="fill:#95979A;" d="M176.8,831.5v4c-0.7-0.9-1.4-1.6-2.3-2.3V829C175.2,830,175.9,830.7,176.8,831.5"/>
	<path style="fill:#D3D3D3;" d="M176.8,831.5v4c-0.7-0.9-1.4-1.6-2.3-2.3v-4C175.4,830,175.9,830.7,176.8,831.5"/>
	<polyline style="fill:#D3B379;" points="385.4,658.4 385.4,662.4 176.8,835.7 176.8,831.5 385.4,658.4 	"/>
	<polyline style="fill:#D3B379;" points="649.4,828.9 649.4,833.1 643.6,827.2 643.6,822.9 649.4,828.9 	"/>
	<polyline style="fill:#D3B379;" points="653.8,849.3 653.8,853.5 646.8,846.1 646.6,842.1 653.8,849.3 	"/>
	<polyline style="fill:#D3B379;" points="732,784.5 732.2,788.7 653.8,853.5 653.8,849.3 732,784.5 	"/>
	<path style="fill:#EAC77D;" d="M719.9,772.1l12.1,12.5l-78.2,64.9l-7-7.4l2.6-13.2l-5.8-6l3-9.8l-90.4-93.9l-39.8,9.3L418.3,631
		L176.7,831.5c-0.7-0.9-1.4-1.6-2.3-2.3l150-124.4L289.7,669L139.9,793.4C88.8,740.4,25.7,675,24.6,673.8
		c-1.8-1.8,143-118.6,150.4-124.7L137.3,510l139.3,143.7l87.2-72.3L304.7,520l5.4-52.8l-6.7-6.8l-51.9,43l-47-49.5l2.6-5.6
		l44.9,44.9l51.4-42.3l9.5,9.5l138.2-113.9v4.6l20.2,4.9l18.4-15.3l8.9,9.3l-28.9,23.9l10.2,13.2l29.5,6.3l22.1-12.6
		c194.7,103.9,93.3,45.4,134.2,128.2l3.5,17.7l-16.1,18.8l11.4,11.9l7.4-12.5l6.7,6.8c-10.7,8.8-22.6,18.6-28.4,23.7
		c-10.9,9.1-36.3,50.7-21.8,109.5c14.4,58.8,59.6,97.9,62.1,100L719.9,772.1 M547.1,638l56.8-47.2l-28.4-29.5l11.1-9.1l-14.7-15.3
		l11.9-10l-90.4-93.7l-14.9,12.3L465,431.6l-11.4,9.5l-33.9-34.2l-53.3,44.2l31.9,33.2l-6.8,27.2l25.8,26.7l16.1-0.9l11.9,12.5
		l-3.5,3l5.4,5.6l4-3.3l11.2,11.6l-0.2,11.8l23.9,24.9l25.3-2.6L547.1,638 M326.9,702.6l89.3-74L382,593l-89.3,73.9L326.9,702.6
		 M463.8,614.9l17.9,18.4l33.5-27.7l-30,2.5l-6.8-5.1L463.8,614.9"/>
	<polyline style="fill:#D3B379;" points="219,284.5 219,288.6 146.9,213.8 146.9,209.6 219,284.5 	"/>
	<polyline style="fill:#D3B379;" points="535.4,277 535.4,281.2 451.3,351 451.3,346.8 535.4,277 	"/>
	<polyline style="fill:#424549;" points="326.4,707.3 326.6,711.5 176.6,835.9 176.6,831.9 326.4,707.3 	"/>
	<path style="fill:#404247;" d="M176.6,831.9v4c-10.2-10.4-21.9-22.8-34.7-36.1v-4.2C154.5,808.9,166.4,821.4,176.6,831.9"/>
	<path style="fill:#424549;" d="M176.6,831.9v4c-10.2-10.4-21.9-22.8-34.7-36v-4.2C154.5,808.9,166.6,821.4,176.6,831.9"/>
	<path style="fill:#515459;" d="M291.7,671.4l34.7,36l-150,124.4c-10.2-10.5-21.9-22.8-34.7-36.1L291.7,671.4"/>
	<polyline style="fill:#D3D3D3;" points="415,625.4 415.2,629.6 326.1,703.5 325.9,699.3 415,625.4 	"/>
	<polyline style="fill:#D3D3D3;" points="325.9,699.3 326.1,703.5 291.8,668 291.7,663.8 325.9,699.3 	"/>
	<polyline style="fill:#D3D3D3;" points="514.3,601.2 514.3,605.2 481,632.9 481,628.7 514.3,601.2 	"/>
	<polyline style="fill:#D3D3D3;" points="481,628.7 481,632.9 463.3,614.5 463.3,610.3 481,628.7 	"/>
	<polyline style="fill:#D3D3D3;" points="399.7,484.3 399.7,488.4 393.8,515.6 393.6,511.4 399.7,484.3 	"/>
	<polyline style="fill:#D3D3D3;" points="398.2,518.2 398.3,522.2 383.8,534.3 383.8,530.1 398.2,518.2 	"/>
	<polyline style="fill:#D3D3D3;" points="383.8,530.1 383.8,534.3 366.4,516.1 366.4,511.9 383.8,530.1 	"/>
	<polyline style="fill:#424449;" points="601.3,589.4 601.5,594.3 547.6,638.2 547.6,633.3 601.3,589.4 	"/>
	<polyline style="fill:#3F4246;" points="547.6,633.3 547.6,638.2 533.1,623.5 532.9,618.6 547.6,633.3 	"/>
	<polyline style="fill:#515459;" points="586.9,574 601.3,589.4 547.6,633.3 532.9,618.6 586.9,574 	"/>
	<polyline style="fill:#424449;" points="434.7,419.3 434.8,424.2 381,468.2 381,463.3 434.7,419.3 	"/>
	<polyline style="fill:#3F4246;" points="381,463.3 381,468.2 366.4,453.5 366.4,448.6 381,463.3 	"/>
	<polyline style="fill:#515459;" points="420.3,403.8 434.7,419.3 381,463.3 366.4,448.6 420.3,403.8 	"/>
	<polyline style="fill:#D3D3D3;" points="905.7,664.2 905.7,668.2 898.2,674.5 898.2,670.5 905.7,664.2 	"/>
	<polyline style="fill:#D3D3D3;" points="975.7,750.7 975.7,754.9 967.6,761.4 967.6,757.3 975.7,750.7 	"/>
	<polyline style="fill:#D3D3D3;" points="731.1,780.7 731.1,784.9 719.2,772.2 719.2,768.2 731.1,780.7 	"/>
	<polyline style="fill:#D3D3D3;" points="735.2,777.3 735.2,781.5 731.1,784.9 731.1,780.7 735.2,777.3 	"/>
	<polyline style="fill:#D3D3D3;" points="688.7,793.3 688.7,797.5 561.8,652.4 561.7,648.4 688.7,793.3 	"/>
	<polyline style="fill:#D3D3D3;" points="719.2,768.2 719.2,772.2 688.7,797.5 688.7,793.3 719.2,768.2 	"/>
	<polyline style="fill:#D3D3D3;" points="967.6,757.3 967.6,761.4 949.2,831.5 949.2,827.3 967.6,757.3 	"/>
	<polyline style="fill:#D3D3D3;" points="949,827.3 949.2,831.5 925.4,836.4 925.2,832.4 949,827.3 	"/>
	<polyline style="fill:#D3D3D3;" points="925.2,832.4 925.4,836.4 882.6,792.2 882.6,788 925.2,832.4 	"/>
	<polyline style="fill:#D3D3D3;" points="882.6,788 882.6,792.2 806.4,855.4 806.4,851.2 882.6,788 	"/>
	<polyline style="fill:#D3D3D3;" points="806.4,851.2 806.4,855.4 735.2,781.5 735,777.3 806.4,851.2 	"/>
	<polyline style="fill:#D3D3D3;" points="310.4,469.3 310.4,473.5 304.8,526.3 304.8,522.1 310.4,469.3 	"/>
	<polyline style="fill:#D3D3D3;" points="364.1,583.5 364.1,587.7 276.8,660 276.8,655.7 364.1,583.5 	"/>
	<polyline style="fill:#D3D3D3;" points="276.8,655.7 276.8,660 138,515.9 138,511.7 276.8,655.7 	"/>
	<polyline style="fill:#D3D3D3;" points="479.6,382.1 479.4,387.1 469.2,374 469.2,368.9 479.6,382.1 	"/>
	<polyline style="fill:#D3D3D3;" points="508.9,388.6 508.9,393.5 479.4,387.1 479.6,382.1 508.9,388.6 	"/>
	<polyline style="fill:#D3D3D3;" points="531,376.1 530.8,381 508.9,393.5 508.9,388.6 531,376.1 	"/>
	<path style="fill:#D3D3D3;" d="M574.5,407.1l-0.2,5.1c-24.2-20.7-42.6-30.5-43.7-31.1l0.2-5.1C531.8,376.6,550.1,386.4,574.5,407.1
		"/>
	<path style="fill:#D3D3D3;" d="M574.5,407.1l-0.2,5.1c-24.2-20.7-42.6-30.5-43.7-31.1l0.2-5.1C531.8,376.6,550.1,386.4,574.5,407.1
		"/>
	<polyline style="fill:#D3D3D3;" points="616.8,372.2 616.6,377.1 574.5,412.2 574.5,407.1 616.8,372.2 	"/>
	<polyline style="fill:#D3D3D3;" points="665.7,422.4 665.7,427.3 623.3,462.4 623.4,457.3 665.7,422.4 	"/>
	<path style="fill:#D3D3D3;" d="M623.4,457.3v5.1c-14.6-18.6-30-33.9-43.9-45.8v-5.1C593.4,423.5,608.9,438.7,623.4,457.3"/>
	<path style="fill:#D3D3D3;" d="M623.4,457.3v5.1c-14.6-18.6-30-33.9-43.9-45.8v-5.1C593.4,423.5,608.9,438.7,623.4,457.3"/>
	<polyline style="fill:#D3D3D3;" points="714,475.7 713.8,480.7 689.9,500.3 689.9,495.4 714,475.7 	"/>
	<path style="fill:#D3D3D3;" d="M654.1,508.4v4.9c-8.4-16.8-18.2-32.1-28.6-45.4V463C635.9,476.4,645.9,491.5,654.1,508.4"/>
	<path style="fill:#D3D3D3;" d="M654.1,508.4v4.9c-8.4-16.8-18.2-32.1-28.6-45.4V463C635.9,476.4,645.9,491.5,654.1,508.4"/>
	<polyline style="fill:#D3D3D3;" points="689.9,495.4 689.9,500.5 685.4,544.9 685.4,540 689.9,495.4 	"/>
	<polyline style="fill:#D3D3D3;" points="685.4,540 685.4,544.9 676.1,552.8 676.1,547.7 685.4,540 	"/>
	<polyline style="fill:#D3D3D3;" points="644.5,552.2 644.5,557.1 641.8,530.3 641.8,525.2 644.5,552.2 	"/>
	<polyline style="fill:#D3D3D3;" points="658.9,567 658.7,572.1 644.5,557.1 644.5,552.2 658.9,567 	"/>
	<polyline style="fill:#D3D3D3;" points="678.7,550.5 678.7,555.6 658.7,572.1 658.9,567 678.7,550.5 	"/>
	<path style="fill:#427163;" d="M530.6,964.9L530.6,964.9c0-0.2,0-0.2,0-0.4V964.9"/>
	<path style="fill:#D3D3D3;" d="M204.1,867h-0.4c-0.2-0.2-0.7-0.7-1.2-1.4h1.6L204.1,867"/>
	<polyline style="fill:#D3D3D3;" points="667.1,768.7 663.6,768.7 662.4,767.3 665.9,767.3 667.1,768.7 	"/>
	<polyline points="174.5,768.7 174.3,768.7 175.9,767.3 176.1,767.3 174.5,768.7 	"/>
	<polyline style="fill:#D3D3D3;" points="902.6,670.8 898.7,670.8 898.2,670.5 899.2,669.6 904.3,669.6 902.6,670.8 	"/>
	<polyline style="fill:#D3D3D3;" points="581.5,670.8 578,670.8 576.8,669.6 580.3,669.6 581.5,670.8 	"/>
	<polyline style="fill:#D3D3D3;" points="365.2,670.8 360.3,670.8 361.8,669.6 366.9,669.6 365.2,670.8 	"/>
	<polyline style="fill:#D3D3D3;" points="298.5,670.8 294.7,670.8 293.2,669.6 297.3,669.6 298.5,670.8 	"/>
	<path d="M648,573.1v-1.2h1.6c-0.2,0.2-0.2,0.2-0.4,0.2C648.9,572.2,648.5,572.6,648,573.1"/>
	<polyline style="fill:#D3D3D3;" points="658.7,572.1 658.5,571.7 658.7,571.7 658.7,572.1 	"/>
	<polyline style="fill:#D3D3D3;" points="658.7,572.1 658.7,571.7 659,571.7 658.7,572.1 	"/>
	<polyline style="fill:#B58D7F;" points="462.4,573.1 462.4,573.1 462.4,571.7 462.5,571.7 462.4,573.1 	"/>
	<polyline style="fill:#D3D3D3;" points="197.1,573.1 193.1,573.1 191.8,571.7 195.9,571.7 197.1,573.1 	"/>
	<path style="fill:#D3D3D3;" d="M634.5,475.2h-3.7c-0.4-0.4-0.7-1.1-1.1-1.4h3.7C634,474.3,634.1,474.9,634.5,475.2"/>
	<polyline style="fill:#D3D3D3;" points="616.4,377.5 610.3,377.5 611.8,376.1 616.6,376.1 616.6,377.1 616.4,377.5 	"/>
	<polyline style="fill:#AE8C03;" points="622.4,377.5 620.8,377.5 621.7,376.6 622.4,377.5 	"/>
	<polyline style="fill:#D3D3D3;" points="475.9,377.5 472,377.5 471,376.1 474.8,376.1 475.9,377.5 	"/>
	<polyline style="fill:#D3D3D3;" points="856.2,814 856.2,809.8 857.6,808.7 857.6,812.9 856.2,814 	"/>
	<polyline style="fill:#D3D3D3;" points="752.9,800 751.5,798.6 751.5,794.3 752.9,795.7 752.9,800 	"/>
	<polyline style="fill:#437264;" points="646.8,845.4 646.6,845.2 646.6,844.2 646.6,844 646.8,845.4 	"/>
	<polyline style="fill:#D3D3D3;" points="648,751 646.6,749.6 646.6,745.4 648,747 648,751 	"/>
	<polyline style="fill:#D3D3D3;" points="646.6,442.9 646.6,438 648,437 648,441.9 646.6,442.9 	"/>
	<path style="fill:#D3D3D3;" d="M648,501.9c-0.4-0.7-0.9-1.6-1.2-2.3v-5.1c0.4,0.7,0.9,1.6,1.2,2.3V501.9"/>
	<polyline style="fill:#D3D3D3;" points="648,560.8 646.6,559.4 646.6,554.5 648,555.9 648,560.8 	"/>
	<path style="fill:#D3D3D3;" d="M542.9,388.6c-0.4-0.4-0.9-0.5-1.4-0.9v-5.1c0.4,0.4,0.9,0.5,1.4,0.9V388.6"/>
	<polyline style="fill:#D3D3D3;" points="331.8,698.7 331.8,694.5 333.1,693.5 333.1,697.7 331.8,698.7 	"/>
	<polyline style="fill:#D3D3D3;" points="331.8,614.3 331.8,610.1 333.1,609.1 333.1,613.1 331.8,614.3 	"/>
	<polyline style="fill:#B48C7E;" points="227.1,725 227.1,720.8 228.3,719.8 228.3,723.8 227.1,725 	"/>
	<polyline style="fill:#D3D3D3;" points="228.3,609.6 227.1,608.2 227.1,604 228.3,605.4 228.3,609.6 	"/>
	<path style="fill:#D3B379;" d="M294.2,61.9h-92.7c-7,10.7-14.6,24-21.8,37.5h150.6C317.1,85.6,303.9,71.9,294.2,61.9z"/>
	<path style="fill:#D3B379;" d="M400.7,139.1l-17.9,14.7c-1.6-1.7-13.1-13.6-27.9-28.9H166.5c-9.7,19.4-17,35.1-18.1,37.5h275.1
		L400.7,139.1z"/>
	<polygon style="fill:#D3B379;" points="446.3,185.8 147.8,185.8 147.2,209.9 160.1,223.3 482.9,223.3 	"/>
	<polygon style="fill:#D3B379;" points="219.3,284.8 219.3,285.6 525.5,285.6 535.6,277.2 507.2,248.1 183.9,248.1 	"/>
	<polygon style="fill:#D3B379;" points="455.1,343.9 500.3,306.5 218.6,306.5 217.3,343.9 	"/>
	<polygon style="fill:#D3B379;" points="382.1,404.3 427.3,366.9 216.6,366.9 216.5,368.5 173,404.3 	"/>
	<polygon style="fill:#D3B379;" points="358.8,423.7 184.2,423.7 207.2,448.1 219.7,461.1 292.7,461.1 303.5,452.2 312.2,461.1 
		313.6,461.1 	"/>
</g>
<g id="landmarks-shops">
	<path id="r307" style="fill:#EFEFEF;" d="M418.3,635l98.1,96l39.5-10.4l90.4,96.5l-3,10l5.8,6l-2.6,13l7,7.4l-124,103
		c0.4,1.6,7.9,33.3-23.3,32.6c-37.7-1.9-21.8-36.7-20.9-38.4l-58.1-9.1l-38.6-40.2L204,864.2c-0.7-0.5-11.1-11.4-27.5-28.6
		l208.8-173.2"/>
	<polyline id="r308c" style="fill:#EFEFEF;" points="380.8,590 415,625.4 325.9,699.3 291.7,663.8 380.8,590 	"/>
	<polyline id="k301" style="fill:#EFEFEF;" points="478.9,597 484.5,603.5 514.3,601.2 481,628.7 463.3,610.3 478.9,597 	"/>
	<polyline id="k302" style="fill:#EFEFEF;" points="399.7,484.3 393.6,511.4 398.2,518.2 383.8,530.1 366.4,511.9 399.7,484.3 	"/>
	<path id="r306" style="fill:#EFEFEF;" d="M745.5,498l160,166.1l-7.5,6.1l77.4,80.4l-7.9,6.5l-18.4,70.2l-23.9,4.9l-42.6-44.4
		l-76.3,63.3l-71.2-73.9l-4,3.3L719,767.9l-30.2,25.4l-127-145.1c3.9-3.3,76.5-67.2,87.5-76.3c6-4.9,17.7-14.7,28.4-23.7l3.2,3.2
		L745.5,498"/>
	<polyline id="r309" style="fill:#EFEFEF;" points="204.8,456.4 252,505.2 303.8,462.4 310.4,469.3 304.8,522.1 364.1,583.5 
		276.8,655.7 138,511.7 204.8,456.4 	"/>
	<path id="r301" style="fill:#EFEFEF;" d="M571.3,325.2l45.4,47l-42.3,35.1c-24.4-20.7-42.8-30.5-43.7-31.1l-21.9,12.6l-29.5-6.5
		l-10.2-13.2l28.9-23.9l2.6,2.8l8.9-7.4l35.1,6.7L571.3,325.2"/>
	<path id="r302" style="fill:#EFEFEF;" d="M621.7,376.6l44,45.6l-42.3,35.1c-14.6-18.6-30-33.9-43.9-45.8L621.7,376.6"/>
	<path id="r303" style="fill:#EFEFEF;" d="M667.8,428l46.1,47.7L690,495.5l-4.6,44.4l-9.5,7.9l2.6,2.6l-19.8,16.5l-14.2-14.7
		l-2.6-27l12.3-16.8c-8.4-17-18.2-32.1-28.6-45.4L667.8,428"/>
</g>
<g id="icons_2_">
	<g>
		<path style="fill:#C41530;" d="M219.9,530h4.9c3.1,0,5.5,0.4,7,1.2s2.8,2,3.8,3.8c1,1.7,1.5,3.8,1.5,6.1c0,1.7-0.3,3.2-0.8,4.6
			s-1.3,2.5-2.3,3.5c-1,0.9-2,1.6-3.2,1.9s-3.1,0.5-5.9,0.5h-4.9V530z M224,534v13.6h1.9c1.9,0,3.2-0.2,4.1-0.6s1.5-1.2,2.1-2.2
			s0.8-2.3,0.8-3.8c0-2.3-0.6-4.1-1.9-5.3c-1.2-1.1-3-1.7-5.6-1.7H224z"/>
		<path style="fill:#C41530;" d="M247.9,535.2c1.5,0,2.9,0.4,4.2,1.1s2.4,1.8,3.1,3.1s1.1,2.7,1.1,4.2c0,1.5-0.4,2.9-1.1,4.2
			s-1.8,2.3-3.1,3.1s-2.7,1.1-4.3,1.1c-2.3,0-4.2-0.8-5.9-2.4s-2.4-3.6-2.4-5.9c0-2.5,0.9-4.6,2.7-6.2
			C244,535.9,245.8,535.2,247.9,535.2z M248,539c-1.2,0-2.3,0.4-3.1,1.3s-1.2,2-1.2,3.3c0,1.4,0.4,2.5,1.2,3.4s1.9,1.3,3.1,1.3
			c1.3,0,2.3-0.4,3.1-1.3c0.8-0.9,1.2-2,1.2-3.4s-0.4-2.5-1.2-3.3C250.3,539.4,249.2,539,248,539z"/>
		<path style="fill:#C41530;" d="M259.4,529.5h4v22.1h-4V529.5z"/>
		<path style="fill:#C41530;" d="M267,529.5h4v22.1h-4V529.5z"/>
		<path style="fill:#C41530;" d="M286.6,535.6h4v15.9h-4v-1.7c-0.8,0.7-1.6,1.3-2.3,1.6c-0.8,0.3-1.6,0.5-2.6,0.5
			c-2.1,0-3.8-0.8-5.3-2.4c-1.5-1.6-2.3-3.6-2.3-6c0-2.5,0.7-4.5,2.2-6c1.5-1.6,3.2-2.4,5.3-2.4c1,0,1.9,0.2,2.7,0.5
			s1.6,0.9,2.3,1.6V535.6z M282.4,538.9c-1.2,0-2.3,0.4-3.1,1.3c-0.8,0.9-1.2,2-1.2,3.4c0,1.4,0.4,2.5,1.2,3.4s1.9,1.3,3.1,1.3
			c1.3,0,2.3-0.4,3.1-1.3s1.2-2,1.2-3.4c0-1.4-0.4-2.5-1.2-3.4S283.6,538.9,282.4,538.9z"/>
		<path style="fill:#C41530;" d="M294.1,535.6h3.4v2c0.4-0.8,0.9-1.4,1.5-1.8s1.3-0.6,2-0.6c0.5,0,1.1,0.1,1.6,0.4l-1.2,3.4
			c-0.5-0.2-0.9-0.4-1.2-0.4c-0.6,0-1.1,0.4-1.6,1.1s-0.6,2.3-0.6,4.5l0,0.8v6.4h-4V535.6z"/>
		<path style="fill:#C41530;" d="M219.9,558h4.1v7.4l5.8-7.4h4.9l-7.5,9.6l8.3,11.9h-4.9l-6.6-9.6v9.6h-4.1V558z"/>
		<path style="fill:#C41530;" d="M239.8,557.1c0.7,0,1.3,0.3,1.8,0.8s0.8,1.1,0.8,1.8c0,0.7-0.2,1.3-0.7,1.8s-1.1,0.8-1.8,0.8
			c-0.7,0-1.3-0.3-1.8-0.8s-0.8-1.1-0.8-1.9c0-0.7,0.2-1.3,0.7-1.8S239.1,557.1,239.8,557.1z M237.8,563.6h4v15.9h-4V563.6z"/>
		<path style="fill:#C41530;" d="M245.6,563.6h4v1.6c0.9-0.8,1.7-1.3,2.5-1.6c0.7-0.3,1.5-0.4,2.3-0.4c1.6,0,2.9,0.6,4,1.7
			c0.9,0.9,1.4,2.3,1.4,4.2v10.5h-4v-7c0-1.9-0.1-3.2-0.3-3.8s-0.5-1.1-0.9-1.4s-0.9-0.5-1.6-0.5c-0.8,0-1.5,0.3-2.1,0.8
			c-0.6,0.5-1,1.3-1.2,2.2c-0.1,0.5-0.2,1.6-0.2,3.2v6.4h-4V563.6z"/>
		<path style="fill:#C41530;" d="M275.3,563.6h4v13.7c0,2.7-0.5,4.7-1.6,5.9c-1.5,1.7-3.6,2.6-6.6,2.6c-1.6,0-2.9-0.2-3.9-0.6
			s-2-1-2.7-1.7s-1.3-1.7-1.6-2.8h4.4c0.4,0.4,0.9,0.8,1.5,1s1.3,0.3,2.2,0.3c1.1,0,1.9-0.2,2.6-0.5s1.1-0.8,1.4-1.3
			s0.4-1.4,0.4-2.7c-0.7,0.7-1.4,1.2-2.2,1.5s-1.6,0.5-2.6,0.5c-2.1,0-3.9-0.8-5.4-2.3s-2.2-3.5-2.2-5.9c0-2.5,0.8-4.6,2.3-6.1
			c1.4-1.4,3.1-2.1,5.1-2.1c0.9,0,1.8,0.2,2.6,0.5s1.6,0.9,2.5,1.7V563.6z M271.1,567c-1.3,0-2.3,0.4-3.1,1.3s-1.2,1.9-1.2,3.2
			c0,1.3,0.4,2.4,1.3,3.3s1.9,1.3,3.2,1.3c1.2,0,2.3-0.4,3.1-1.2s1.2-1.9,1.2-3.3c0-1.3-0.4-2.4-1.2-3.2S272.4,567,271.1,567z"/>
	</g>
	<g>
		<path style="fill:#C41530;" d="M97,643.2l-2.9,2.7c-2-2.1-4.1-3.1-6.6-3.1c-2.1,0-3.8,0.7-5.2,2.1c-1.4,1.4-2.1,3.1-2.1,5.2
			c0,1.4,0.3,2.7,0.9,3.8s1.5,2,2.6,2.6c1.1,0.6,2.4,1,3.8,1c1.2,0,2.3-0.2,3.3-0.7c1-0.4,2.1-1.3,3.2-2.4l2.8,2.9
			c-1.6,1.6-3.1,2.6-4.5,3.2c-1.4,0.6-3,0.9-4.8,0.9c-3.3,0-6.1-1.1-8.2-3.2s-3.2-4.8-3.2-8.2c0-2.1,0.5-4.1,1.5-5.7s2.4-3,4.2-4
			s3.8-1.5,5.9-1.5c1.8,0,3.5,0.4,5.1,1.1C94.3,640.8,95.8,641.8,97,643.2z"/>
		<path style="fill:#C41530;" d="M115.6,654.2h-12.8c0.2,1.1,0.7,2,1.5,2.7s1.8,1,3.1,1c1.5,0,2.8-0.5,3.9-1.6l3.4,1.6
			c-0.8,1.2-1.8,2.1-3,2.6s-2.6,0.9-4.2,0.9c-2.5,0-4.5-0.8-6.1-2.4s-2.4-3.6-2.4-5.9c0-2.4,0.8-4.5,2.4-6.1s3.5-2.4,5.9-2.4
			c2.5,0,4.6,0.8,6.1,2.4s2.4,3.7,2.4,6.4L115.6,654.2z M111.6,651c-0.3-0.9-0.8-1.6-1.6-2.2c-0.8-0.6-1.7-0.8-2.7-0.8
			c-1.1,0-2.1,0.3-2.9,0.9c-0.5,0.4-1,1.1-1.5,2.1H111.6z"/>
		<path style="fill:#C41530;" d="M118.7,645h4v1.6c0.9-0.8,1.7-1.3,2.5-1.6c0.7-0.3,1.5-0.4,2.3-0.4c1.6,0,2.9,0.6,4,1.7
			c0.9,0.9,1.4,2.3,1.4,4.2V661h-4v-7c0-1.9-0.1-3.2-0.3-3.8s-0.5-1.1-0.9-1.4s-0.9-0.5-1.6-0.5c-0.8,0-1.5,0.3-2.1,0.8
			c-0.6,0.5-1,1.3-1.2,2.2c-0.1,0.5-0.2,1.6-0.2,3.2v6.4h-4V645z"/>
		<path style="fill:#C41530;" d="M137.2,639.2h4v5.9h2.4v3.4h-2.4V661h-4v-12.5h-2.1V645h2.1V639.2z"/>
		<path style="fill:#C41530;" d="M145.5,645h3.4v2c0.4-0.8,0.9-1.4,1.5-1.8s1.3-0.6,2-0.6c0.5,0,1.1,0.1,1.6,0.4l-1.2,3.4
			c-0.5-0.2-0.9-0.4-1.2-0.4c-0.6,0-1.1,0.4-1.6,1.1s-0.6,2.3-0.6,4.5l0,0.8v6.4h-4V645z"/>
		<path style="fill:#C41530;" d="M171.4,654.2h-12.8c0.2,1.1,0.7,2,1.5,2.7s1.8,1,3.1,1c1.5,0,2.8-0.5,3.9-1.6l3.4,1.6
			c-0.8,1.2-1.8,2.1-3,2.6s-2.6,0.9-4.2,0.9c-2.5,0-4.5-0.8-6.1-2.4s-2.4-3.6-2.4-5.9c0-2.4,0.8-4.5,2.4-6.1s3.5-2.4,5.9-2.4
			c2.5,0,4.6,0.8,6.1,2.4s2.4,3.7,2.4,6.4L171.4,654.2z M167.4,651c-0.3-0.9-0.8-1.6-1.6-2.2c-0.8-0.6-1.7-0.8-2.7-0.8
			c-1.1,0-2.1,0.3-2.9,0.9c-0.5,0.4-1,1.1-1.5,2.1H167.4z"/>
		<path style="fill:#C41530;" d="M79.2,667.4h4l5,15l5-15h4l3.6,21.5h-4l-2.3-13.6L90,689h-3.6l-4.5-13.6L79.5,689h-4L79.2,667.4z"
			/>
		<path style="fill:#C41530;" d="M115.5,673h4V689h-4v-1.7c-0.8,0.7-1.6,1.3-2.3,1.6c-0.8,0.3-1.6,0.5-2.6,0.5
			c-2.1,0-3.8-0.8-5.3-2.4c-1.5-1.6-2.3-3.6-2.3-6c0-2.5,0.7-4.5,2.2-6c1.5-1.6,3.2-2.4,5.3-2.4c1,0,1.9,0.2,2.7,0.5
			s1.6,0.9,2.3,1.6V673z M111.3,676.3c-1.2,0-2.3,0.4-3.1,1.3c-0.8,0.9-1.2,2-1.2,3.4c0,1.4,0.4,2.5,1.2,3.4s1.9,1.3,3.1,1.3
			c1.3,0,2.3-0.4,3.1-1.3s1.2-2,1.2-3.4c0-1.4-0.4-2.5-1.2-3.4S112.6,676.3,111.3,676.3z"/>
		<path style="fill:#C41530;" d="M123.5,673h4v1.6c0.9-0.8,1.7-1.3,2.5-1.6c0.7-0.3,1.5-0.4,2.3-0.4c1.6,0,2.9,0.6,4,1.7
			c0.9,0.9,1.4,2.3,1.4,4.2V689h-4v-7c0-1.9-0.1-3.2-0.3-3.8c-0.2-0.6-0.5-1.1-0.9-1.4c-0.4-0.3-0.9-0.5-1.6-0.5
			c-0.8,0-1.5,0.3-2.1,0.8s-1,1.3-1.2,2.2c-0.1,0.5-0.2,1.6-0.2,3.2v6.4h-4V673z"/>
		<path style="fill:#C41530;" d="M153.3,673h4V689h-4v-1.7c-0.8,0.7-1.6,1.3-2.3,1.6c-0.8,0.3-1.6,0.5-2.6,0.5
			c-2.1,0-3.8-0.8-5.3-2.4c-1.5-1.6-2.3-3.6-2.3-6c0-2.5,0.7-4.5,2.2-6c1.5-1.6,3.2-2.4,5.3-2.4c1,0,1.9,0.2,2.7,0.5
			s1.6,0.9,2.3,1.6V673z M149.1,676.3c-1.2,0-2.3,0.4-3.1,1.3c-0.8,0.9-1.2,2-1.2,3.4c0,1.4,0.4,2.5,1.2,3.4s1.9,1.3,3.1,1.3
			c1.3,0,2.3-0.4,3.1-1.3s1.2-2,1.2-3.4c0-1.4-0.4-2.5-1.2-3.4S150.3,676.3,149.1,676.3z"/>
		<path style="fill:#C41530;" d="M173,673h4v13.7c0,2.7-0.5,4.7-1.6,5.9c-1.5,1.7-3.6,2.6-6.6,2.6c-1.6,0-2.9-0.2-3.9-0.6
			s-2-1-2.7-1.7s-1.3-1.7-1.6-2.8h4.4c0.4,0.4,0.9,0.8,1.5,1s1.3,0.3,2.2,0.3c1.1,0,1.9-0.2,2.6-0.5s1.1-0.8,1.4-1.3
			s0.4-1.4,0.4-2.7c-0.7,0.7-1.4,1.2-2.2,1.5s-1.6,0.5-2.6,0.5c-2.1,0-3.9-0.8-5.4-2.3s-2.2-3.5-2.2-5.9c0-2.5,0.8-4.6,2.3-6.1
			c1.4-1.4,3.1-2.1,5.1-2.1c0.9,0,1.8,0.2,2.6,0.5s1.6,0.9,2.5,1.7V673z M168.9,676.4c-1.3,0-2.3,0.4-3.1,1.3s-1.2,1.9-1.2,3.2
			c0,1.3,0.4,2.4,1.3,3.3s1.9,1.3,3.2,1.3c1.2,0,2.3-0.4,3.1-1.2s1.2-1.9,1.2-3.3c0-1.3-0.4-2.4-1.2-3.2S170.1,676.4,168.9,676.4z"
			/>
		<path style="fill:#C41530;" d="M181,673h4v1.8c0.7-0.8,1.4-1.3,2.3-1.7s1.7-0.6,2.7-0.6c1,0,1.9,0.2,2.7,0.7s1.4,1.2,1.9,2.1
			c0.6-0.9,1.4-1.6,2.3-2.1c0.9-0.5,1.9-0.7,3-0.7c1.1,0,2.1,0.3,3,0.8s1.5,1.2,1.9,2.1s0.6,2.2,0.6,4.1v9.3h-4v-8.1
			c0-1.8-0.2-3-0.7-3.7s-1.1-1-2-1c-0.7,0-1.3,0.2-1.8,0.6s-0.9,0.9-1.2,1.6s-0.4,1.8-0.4,3.3v7.2h-4v-7.7c0-1.4-0.1-2.5-0.3-3.1
			c-0.2-0.6-0.5-1.1-0.9-1.4s-0.9-0.5-1.5-0.5c-0.7,0-1.3,0.2-1.8,0.6c-0.5,0.4-0.9,0.9-1.2,1.7s-0.4,1.8-0.4,3.4v7.1h-4V673z"/>
		<path style="fill:#C41530;" d="M225.2,682.2h-12.8c0.2,1.1,0.7,2,1.5,2.7s1.8,1,3.1,1c1.5,0,2.8-0.5,3.9-1.6l3.4,1.6
			c-0.8,1.2-1.8,2.1-3,2.6s-2.6,0.9-4.2,0.9c-2.5,0-4.5-0.8-6.1-2.4s-2.4-3.6-2.4-5.9c0-2.4,0.8-4.5,2.4-6.1s3.5-2.4,5.9-2.4
			c2.5,0,4.6,0.8,6.1,2.4s2.4,3.7,2.4,6.4L225.2,682.2z M221.2,679c-0.3-0.9-0.8-1.6-1.6-2.2c-0.8-0.6-1.7-0.8-2.7-0.8
			c-1.1,0-2.1,0.3-2.9,0.9c-0.5,0.4-1,1.1-1.5,2.1H221.2z"/>
		<path style="fill:#C41530;" d="M228.3,673h4v1.6c0.9-0.8,1.7-1.3,2.5-1.6c0.7-0.3,1.5-0.4,2.3-0.4c1.6,0,2.9,0.6,4,1.7
			c0.9,0.9,1.4,2.3,1.4,4.2V689h-4v-7c0-1.9-0.1-3.2-0.3-3.8c-0.2-0.6-0.5-1.1-0.9-1.4c-0.4-0.3-0.9-0.5-1.6-0.5
			c-0.8,0-1.5,0.3-2.1,0.8s-1,1.3-1.2,2.2c-0.1,0.5-0.2,1.6-0.2,3.2v6.4h-4V673z"/>
		<path style="fill:#C41530;" d="M246.8,667.2h4v5.9h2.4v3.4h-2.4V689h-4v-12.5h-2.1V673h2.1V667.2z"/>
	</g>
	<g>
		<path style="fill:#C41530;" d="M408,814.1h4.4c2.4,0,4.1,0.2,5.1,0.7s1.9,1.1,2.5,2.1s0.9,2.1,0.9,3.5c0,1.5-0.4,2.8-1.2,3.8
			s-1.9,1.7-3.2,2.1c-0.8,0.2-2.2,0.3-4.3,0.3v9.1H408V814.1z M412.1,822.5h1.3c1,0,1.7-0.1,2.1-0.2c0.4-0.1,0.7-0.4,0.9-0.7
			s0.3-0.7,0.3-1.2c0-0.8-0.3-1.4-1-1.8c-0.5-0.3-1.3-0.4-2.6-0.4h-1.2V822.5z"/>
		<path style="fill:#C41530;" d="M423.5,813.5h4v22.1h-4V813.5z"/>
		<path style="fill:#C41530;" d="M443.1,819.7h4v15.9h-4V834c-0.8,0.7-1.6,1.3-2.3,1.6c-0.8,0.3-1.6,0.5-2.6,0.5
			c-2.1,0-3.8-0.8-5.3-2.4c-1.5-1.6-2.3-3.6-2.3-6c0-2.5,0.7-4.5,2.2-6c1.5-1.6,3.2-2.4,5.3-2.4c1,0,1.9,0.2,2.7,0.5
			s1.6,0.9,2.3,1.6V819.7z M438.9,823c-1.2,0-2.3,0.4-3.1,1.3c-0.8,0.9-1.2,2-1.2,3.4c0,1.4,0.4,2.5,1.2,3.4s1.9,1.3,3.1,1.3
			c1.3,0,2.3-0.4,3.1-1.3s1.2-2,1.2-3.4c0-1.4-0.4-2.5-1.2-3.4S440.2,823,438.9,823z"/>
		<path style="fill:#C41530;" d="M449.3,819.7h4.1l4.1,10l4.6-10h4.1l-10,21.8h-4.1l3.3-7L449.3,819.7z"/>
		<path style="fill:#C41530;" d="M469.7,813.8h4v5.9h2.4v3.4h-2.4v12.5h-4v-12.5h-2.1v-3.4h2.1V813.8z"/>
		<path style="fill:#C41530;" d="M480.1,813.1c0.7,0,1.3,0.3,1.8,0.8s0.8,1.1,0.8,1.8c0,0.7-0.2,1.3-0.7,1.8s-1.1,0.8-1.8,0.8
			c-0.7,0-1.3-0.3-1.8-0.8s-0.8-1.1-0.8-1.9c0-0.7,0.2-1.3,0.7-1.8S479.4,813.1,480.1,813.1z M478.1,819.7h4v15.9h-4V819.7z"/>
		<path style="fill:#C41530;" d="M486,819.7h4v1.8c0.7-0.8,1.4-1.3,2.3-1.7s1.7-0.6,2.7-0.6c1,0,1.9,0.2,2.7,0.7s1.4,1.2,1.9,2.1
			c0.6-0.9,1.4-1.7,2.3-2.1c0.9-0.5,1.9-0.7,3-0.7c1.1,0,2.1,0.3,3,0.8s1.5,1.2,1.9,2.1s0.6,2.2,0.6,4.1v9.3h-4v-8.1
			c0-1.8-0.2-3-0.7-3.7s-1.1-1-2-1c-0.7,0-1.3,0.2-1.8,0.6s-0.9,0.9-1.2,1.6s-0.4,1.8-0.4,3.3v7.2h-4v-7.7c0-1.4-0.1-2.5-0.3-3.1
			c-0.2-0.6-0.5-1.1-0.9-1.4s-0.9-0.5-1.5-0.5c-0.7,0-1.3,0.2-1.8,0.6c-0.5,0.4-0.9,1-1.2,1.7s-0.4,1.8-0.4,3.4v7.1h-4V819.7z"/>
		<path style="fill:#C41530;" d="M530.2,828.8h-12.8c0.2,1.1,0.7,2,1.5,2.7s1.8,1,3.1,1c1.5,0,2.8-0.5,3.9-1.6l3.4,1.6
			c-0.8,1.2-1.8,2.1-3,2.6s-2.6,0.9-4.2,0.9c-2.5,0-4.5-0.8-6.1-2.4s-2.4-3.6-2.4-5.9c0-2.4,0.8-4.5,2.4-6.1s3.5-2.4,5.9-2.4
			c2.5,0,4.6,0.8,6.1,2.4s2.4,3.7,2.4,6.4L530.2,828.8z M526.2,825.7c-0.3-0.9-0.8-1.6-1.6-2.2c-0.8-0.6-1.7-0.8-2.7-0.8
			c-1.1,0-2.1,0.3-2.9,0.9c-0.5,0.4-1,1.1-1.5,2.1H526.2z"/>
	</g>
	<g>
		<path style="fill:#C41530;" d="M641.3,628.9h11.9v4h-3.9v17.5h-4.2V633h-3.8V628.9z"/>
		<path style="fill:#C41530;" d="M655.6,628.4h4v7.8c0.8-0.7,1.6-1.2,2.4-1.5s1.6-0.5,2.4-0.5c1.6,0,2.9,0.5,4,1.6
			c0.9,0.9,1.4,2.3,1.4,4.2v10.5h-3.9v-7c0-1.8-0.1-3.1-0.3-3.8s-0.5-1.1-0.9-1.5s-0.9-0.5-1.6-0.5c-0.8,0-1.5,0.3-2.1,0.8
			s-1,1.3-1.2,2.2c-0.1,0.5-0.2,1.6-0.2,3.3v6.4h-4V628.4z"/>
		<path style="fill:#C41530;" d="M689.5,643.7h-12.8c0.2,1.1,0.7,2,1.5,2.7s1.8,1,3.1,1c1.5,0,2.8-0.5,3.9-1.6l3.4,1.6
			c-0.8,1.2-1.8,2.1-3,2.6s-2.6,0.9-4.2,0.9c-2.5,0-4.5-0.8-6.1-2.4s-2.4-3.6-2.4-5.9c0-2.4,0.8-4.5,2.4-6.1s3.5-2.4,5.9-2.4
			c2.5,0,4.6,0.8,6.1,2.4s2.4,3.7,2.4,6.4L689.5,643.7z M685.5,640.5c-0.3-0.9-0.8-1.6-1.6-2.2c-0.8-0.6-1.7-0.8-2.7-0.8
			c-1.1,0-2.1,0.3-2.9,0.9c-0.5,0.4-1,1.1-1.5,2.1H685.5z"/>
		<path style="fill:#C41530;" d="M701.6,628.9h11.8v4h-7.7v3.9h7.7v3.9h-7.7v5.7h7.7v4h-11.8V628.9z"/>
		<path style="fill:#C41530;" d="M718.9,628c0.7,0,1.3,0.3,1.8,0.8s0.8,1.1,0.8,1.8c0,0.7-0.2,1.3-0.7,1.8s-1.1,0.8-1.8,0.8
			c-0.7,0-1.3-0.3-1.8-0.8s-0.8-1.1-0.8-1.9c0-0.7,0.2-1.3,0.7-1.8S718.2,628,718.9,628z M716.9,634.5h4v15.9h-4V634.5z"/>
		<path style="fill:#C41530;" d="M736.3,634.5h4v13.7c0,2.7-0.5,4.7-1.6,5.9c-1.5,1.7-3.6,2.6-6.6,2.6c-1.6,0-2.9-0.2-3.9-0.6
			s-2-1-2.7-1.7s-1.3-1.7-1.6-2.8h4.4c0.4,0.4,0.9,0.8,1.5,1s1.3,0.3,2.2,0.3c1.1,0,1.9-0.2,2.6-0.5s1.1-0.8,1.4-1.3
			s0.4-1.4,0.4-2.7c-0.7,0.7-1.4,1.2-2.2,1.5s-1.6,0.5-2.6,0.5c-2.1,0-3.9-0.8-5.4-2.3s-2.2-3.5-2.2-5.9c0-2.5,0.8-4.6,2.3-6.1
			c1.4-1.4,3.1-2.1,5.1-2.1c0.9,0,1.8,0.2,2.6,0.5s1.6,0.9,2.5,1.7V634.5z M732.2,637.9c-1.3,0-2.3,0.4-3.1,1.3s-1.2,1.9-1.2,3.2
			c0,1.3,0.4,2.4,1.3,3.3s1.9,1.3,3.2,1.3c1.2,0,2.3-0.4,3.1-1.2s1.2-1.9,1.2-3.3c0-1.3-0.4-2.4-1.2-3.2S733.5,637.9,732.2,637.9z"
			/>
		<path style="fill:#C41530;" d="M744.4,628.4h4v7.8c0.8-0.7,1.6-1.2,2.4-1.5s1.6-0.5,2.4-0.5c1.6,0,2.9,0.5,4,1.6
			c0.9,0.9,1.4,2.3,1.4,4.2v10.5h-3.9v-7c0-1.8-0.1-3.1-0.3-3.8s-0.5-1.1-0.9-1.5s-0.9-0.5-1.6-0.5c-0.8,0-1.5,0.3-2.1,0.8
			s-1,1.3-1.2,2.2c-0.1,0.5-0.2,1.6-0.2,3.3v6.4h-4V628.4z"/>
		<path style="fill:#C41530;" d="M762.8,628.7h4v5.9h2.4v3.4h-2.4v12.5h-4V638h-2.1v-3.4h2.1V628.7z"/>
		<path style="fill:#C41530;" d="M645.5,656.9h4l5,15l5-15h4l3.6,21.5h-4l-2.3-13.6l-4.6,13.6h-3.6l-4.5-13.6l-2.4,13.6h-4
			L645.5,656.9z"/>
		<path style="fill:#C41530;" d="M677.5,662.1c1.5,0,2.9,0.4,4.2,1.1s2.4,1.8,3.1,3.1s1.1,2.7,1.1,4.2c0,1.5-0.4,2.9-1.1,4.2
			s-1.8,2.3-3.1,3.1s-2.7,1.1-4.3,1.1c-2.3,0-4.2-0.8-5.9-2.4s-2.4-3.6-2.4-5.9c0-2.5,0.9-4.6,2.7-6.2
			C673.6,662.8,675.4,662.1,677.5,662.1z M677.6,665.9c-1.2,0-2.3,0.4-3.1,1.3s-1.2,2-1.2,3.3c0,1.4,0.4,2.5,1.2,3.4
			s1.9,1.3,3.1,1.3c1.3,0,2.3-0.4,3.1-1.3c0.8-0.9,1.2-2,1.2-3.4s-0.4-2.5-1.2-3.3C679.9,666.3,678.9,665.9,677.6,665.9z"/>
		<path style="fill:#C41530;" d="M700.8,656.4h4v22.1h-4v-1.7c-0.8,0.7-1.6,1.3-2.3,1.6c-0.8,0.3-1.6,0.5-2.6,0.5
			c-2.1,0-3.8-0.8-5.3-2.4c-1.5-1.6-2.3-3.6-2.3-6c0-2.5,0.7-4.5,2.2-6c1.5-1.6,3.2-2.4,5.3-2.4c1,0,1.9,0.2,2.7,0.5
			s1.6,0.9,2.3,1.6V656.4z M696.6,665.8c-1.2,0-2.3,0.4-3.1,1.3c-0.8,0.9-1.2,2-1.2,3.4c0,1.4,0.4,2.5,1.2,3.4s1.9,1.3,3.1,1.3
			c1.3,0,2.3-0.4,3.1-1.3s1.2-2,1.2-3.4c0-1.4-0.4-2.5-1.2-3.4S697.9,665.8,696.6,665.8z"/>
		<path style="fill:#C41530;" d="M724.8,671.7h-12.8c0.2,1.1,0.7,2,1.5,2.7s1.8,1,3.1,1c1.5,0,2.8-0.5,3.9-1.6l3.4,1.6
			c-0.8,1.2-1.8,2.1-3,2.6s-2.6,0.9-4.2,0.9c-2.5,0-4.5-0.8-6.1-2.4s-2.4-3.6-2.4-5.9c0-2.4,0.8-4.5,2.4-6.1s3.5-2.4,5.9-2.4
			c2.5,0,4.6,0.8,6.1,2.4s2.4,3.7,2.4,6.4L724.8,671.7z M720.8,668.5c-0.3-0.9-0.8-1.6-1.6-2.2c-0.8-0.6-1.7-0.8-2.7-0.8
			c-1.1,0-2.1,0.3-2.9,0.9c-0.5,0.4-1,1.1-1.5,2.1H720.8z"/>
		<path style="fill:#C41530;" d="M727.4,662.5h3.4v2c0.4-0.8,0.9-1.4,1.5-1.8s1.3-0.6,2-0.6c0.5,0,1.1,0.1,1.6,0.4l-1.2,3.4
			c-0.5-0.2-0.9-0.4-1.2-0.4c-0.6,0-1.1,0.4-1.6,1.1s-0.6,2.3-0.6,4.5l0,0.8v6.4h-4V662.5z"/>
		<path style="fill:#C41530;" d="M738,662.5h4v1.6c0.9-0.8,1.7-1.3,2.5-1.6c0.7-0.3,1.5-0.4,2.3-0.4c1.6,0,2.9,0.6,4,1.7
			c0.9,0.9,1.4,2.3,1.4,4.2v10.5h-4v-7c0-1.9-0.1-3.2-0.3-3.8s-0.5-1.1-0.9-1.4s-0.9-0.5-1.6-0.5c-0.8,0-1.5,0.3-2.1,0.8
			c-0.6,0.5-1,1.3-1.2,2.2c-0.1,0.5-0.2,1.6-0.2,3.2v6.4h-4V662.5z"/>
		<path style="fill:#C41530;" d="M784.7,660.7l-2.9,2.7c-2-2.1-4.1-3.1-6.6-3.1c-2.1,0-3.8,0.7-5.2,2.1c-1.4,1.4-2.1,3.1-2.1,5.2
			c0,1.4,0.3,2.7,0.9,3.8s1.5,2,2.6,2.6c1.1,0.6,2.4,1,3.8,1c1.2,0,2.3-0.2,3.3-0.7c1-0.4,2.1-1.3,3.2-2.4l2.8,2.9
			c-1.6,1.6-3.1,2.6-4.5,3.2c-1.4,0.6-3,0.9-4.8,0.9c-3.3,0-6.1-1.1-8.2-3.2s-3.2-4.8-3.2-8.2c0-2.1,0.5-4.1,1.5-5.7s2.4-3,4.2-4
			s3.8-1.5,5.9-1.5c1.8,0,3.5,0.4,5.1,1.1C782.1,658.3,783.5,659.3,784.7,660.7z"/>
		<path style="fill:#C41530;" d="M787.4,656.4h4v7.8c0.8-0.7,1.6-1.2,2.4-1.5s1.6-0.5,2.4-0.5c1.6,0,2.9,0.5,4,1.6
			c0.9,0.9,1.4,2.3,1.4,4.2v10.5h-3.9v-7c0-1.8-0.1-3.1-0.3-3.8s-0.5-1.1-0.9-1.5s-0.9-0.5-1.6-0.5c-0.8,0-1.5,0.3-2.1,0.8
			s-1,1.3-1.2,2.2c-0.1,0.5-0.2,1.6-0.2,3.3v6.4h-4V656.4z"/>
		<path style="fill:#C41530;" d="M807.2,656c0.7,0,1.3,0.3,1.8,0.8s0.8,1.1,0.8,1.8c0,0.7-0.2,1.3-0.7,1.8s-1.1,0.8-1.8,0.8
			c-0.7,0-1.3-0.3-1.8-0.8s-0.8-1.1-0.8-1.9c0-0.7,0.2-1.3,0.7-1.8S806.5,656,807.2,656z M805.2,662.5h4v15.9h-4V662.5z"/>
		<path style="fill:#C41530;" d="M813.1,662.5h4v1.6c0.9-0.8,1.7-1.3,2.5-1.6c0.7-0.3,1.5-0.4,2.3-0.4c1.6,0,2.9,0.6,4,1.7
			c0.9,0.9,1.4,2.3,1.4,4.2v10.5h-4v-7c0-1.9-0.1-3.2-0.3-3.8s-0.5-1.1-0.9-1.4s-0.9-0.5-1.6-0.5c-0.8,0-1.5,0.3-2.1,0.8
			c-0.6,0.5-1,1.3-1.2,2.2c-0.1,0.5-0.2,1.6-0.2,3.2v6.4h-4V662.5z"/>
		<path style="fill:#C41530;" d="M847,671.7h-12.8c0.2,1.1,0.7,2,1.5,2.7s1.8,1,3.1,1c1.5,0,2.8-0.5,3.9-1.6l3.4,1.6
			c-0.8,1.2-1.8,2.1-3,2.6s-2.6,0.9-4.2,0.9c-2.5,0-4.5-0.8-6.1-2.4s-2.4-3.6-2.4-5.9c0-2.4,0.8-4.5,2.4-6.1s3.5-2.4,5.9-2.4
			c2.5,0,4.6,0.8,6.1,2.4s2.4,3.7,2.4,6.4L847,671.7z M843,668.5c-0.3-0.9-0.8-1.6-1.6-2.2c-0.8-0.6-1.7-0.8-2.7-0.8
			c-1.1,0-2.1,0.3-2.9,0.9c-0.5,0.4-1,1.1-1.5,2.1H843z"/>
		<path style="fill:#C41530;" d="M859.7,664.8l-2.5,2.5c-1-1-1.9-1.5-2.7-1.5c-0.4,0-0.8,0.1-1.1,0.3s-0.4,0.4-0.4,0.7
			c0,0.2,0.1,0.4,0.2,0.6s0.6,0.4,1.2,0.7l1.5,0.7c1.5,0.8,2.6,1.5,3.2,2.3s0.9,1.7,0.9,2.8c0,1.4-0.5,2.6-1.6,3.5s-2.4,1.4-4.2,1.4
			c-2.3,0-4.2-0.9-5.6-2.7l2.5-2.7c0.5,0.5,1,1,1.6,1.3s1.2,0.5,1.7,0.5c0.5,0,1-0.1,1.3-0.4s0.5-0.5,0.5-0.9c0-0.6-0.6-1.2-1.7-1.8
			l-1.3-0.7c-2.6-1.3-3.9-2.9-3.9-4.9c0-1.3,0.5-2.3,1.5-3.2s2.2-1.3,3.7-1.3c1,0,2,0.2,2.9,0.7S859,663.9,859.7,664.8z"/>
		<path style="fill:#C41530;" d="M878.8,671.7H866c0.2,1.1,0.7,2,1.5,2.7s1.8,1,3.1,1c1.5,0,2.8-0.5,3.9-1.6l3.4,1.6
			c-0.8,1.2-1.8,2.1-3,2.6s-2.6,0.9-4.2,0.9c-2.5,0-4.5-0.8-6.1-2.4s-2.4-3.6-2.4-5.9c0-2.4,0.8-4.5,2.4-6.1s3.5-2.4,5.9-2.4
			c2.5,0,4.6,0.8,6.1,2.4s2.4,3.7,2.4,6.4L878.8,671.7z M874.8,668.5c-0.3-0.9-0.8-1.6-1.6-2.2c-0.8-0.6-1.7-0.8-2.7-0.8
			c-1.1,0-2.1,0.3-2.9,0.9c-0.5,0.4-1,1.1-1.5,2.1H874.8z"/>
		<path style="fill:#C41530;" d="M643.7,684.9h4.3c2.4,0,4.1,0.2,5.1,0.6c1,0.4,1.8,1.1,2.4,2.1c0.6,1,0.9,2.2,0.9,3.5
			c0,1.4-0.3,2.6-1,3.6s-1.7,1.7-3.1,2.2l5.1,9.6H653l-4.8-9.1h-0.4v9.1h-4.1V684.9z M647.8,693.3h1.3c1.3,0,2.2-0.2,2.7-0.5
			s0.7-0.9,0.7-1.7c0-0.5-0.1-0.9-0.4-1.2c-0.2-0.3-0.6-0.6-1-0.7c-0.4-0.2-1.2-0.2-2.2-0.2h-1.1V693.3z"/>
		<path style="fill:#C41530;" d="M675.9,699.7H663c0.2,1.1,0.7,2,1.5,2.7s1.8,1,3.1,1c1.5,0,2.8-0.5,3.9-1.6l3.4,1.6
			c-0.8,1.2-1.8,2.1-3,2.6s-2.6,0.9-4.2,0.9c-2.5,0-4.5-0.8-6.1-2.4s-2.4-3.6-2.4-5.9c0-2.4,0.8-4.5,2.4-6.1s3.5-2.4,5.9-2.4
			c2.5,0,4.6,0.8,6.1,2.4s2.4,3.7,2.4,6.4L675.9,699.7z M671.9,696.5c-0.3-0.9-0.8-1.6-1.6-2.2c-0.8-0.6-1.7-0.8-2.7-0.8
			c-1.1,0-2.1,0.3-2.9,0.9c-0.5,0.4-1,1.1-1.5,2.1H671.9z"/>
		<path style="fill:#C41530;" d="M688.6,692.8l-2.5,2.5c-1-1-1.9-1.5-2.7-1.5c-0.4,0-0.8,0.1-1.1,0.3s-0.4,0.4-0.4,0.7
			c0,0.2,0.1,0.4,0.2,0.6s0.6,0.4,1.2,0.7l1.5,0.7c1.5,0.8,2.6,1.5,3.2,2.3s0.9,1.7,0.9,2.8c0,1.4-0.5,2.6-1.6,3.5s-2.4,1.4-4.2,1.4
			c-2.3,0-4.2-0.9-5.6-2.7l2.5-2.7c0.5,0.5,1,1,1.6,1.3s1.2,0.5,1.7,0.5c0.5,0,1-0.1,1.3-0.4s0.5-0.5,0.5-0.9c0-0.6-0.6-1.2-1.7-1.8
			l-1.3-0.7c-2.6-1.3-3.9-2.9-3.9-4.9c0-1.3,0.5-2.3,1.5-3.2s2.2-1.3,3.7-1.3c1,0,2,0.2,2.9,0.7S687.9,691.9,688.6,692.8z"/>
		<path style="fill:#C41530;" d="M692.6,684.7h4v5.9h2.4v3.4h-2.4v12.5h-4V694h-2.1v-3.4h2.1V684.7z"/>
		<path style="fill:#C41530;" d="M712.9,690.5h4v15.9h-4v-1.7c-0.8,0.7-1.6,1.3-2.3,1.6c-0.8,0.3-1.6,0.5-2.6,0.5
			c-2.1,0-3.8-0.8-5.3-2.4c-1.5-1.6-2.3-3.6-2.3-6c0-2.5,0.7-4.5,2.2-6c1.5-1.6,3.2-2.4,5.3-2.4c1,0,1.9,0.2,2.7,0.5
			s1.6,0.9,2.3,1.6V690.5z M708.7,693.8c-1.2,0-2.3,0.4-3.1,1.3c-0.8,0.9-1.2,2-1.2,3.4c0,1.4,0.4,2.5,1.2,3.4s1.9,1.3,3.1,1.3
			c1.3,0,2.3-0.4,3.1-1.3s1.2-2,1.2-3.4c0-1.4-0.4-2.5-1.2-3.4S709.9,693.8,708.7,693.8z"/>
		<path style="fill:#C41530;" d="M720.8,690.5h4v7.7c0,1.5,0.1,2.5,0.3,3.1s0.5,1,1,1.4c0.5,0.3,1,0.5,1.7,0.5
			c0.7,0,1.2-0.2,1.7-0.5c0.5-0.3,0.8-0.8,1-1.4c0.2-0.5,0.2-1.4,0.2-2.9v-7.8h4v6.8c0,2.8-0.2,4.7-0.7,5.7
			c-0.5,1.2-1.3,2.2-2.4,2.9s-2.4,1-4,1c-1.7,0-3.2-0.4-4.2-1.2s-1.8-1.9-2.3-3.3c-0.3-1-0.5-2.7-0.5-5.3V690.5z"/>
		<path style="fill:#C41530;" d="M738.3,690.5h3.4v2c0.4-0.8,0.9-1.4,1.5-1.8s1.3-0.6,2-0.6c0.5,0,1.1,0.1,1.6,0.4l-1.2,3.4
			c-0.5-0.2-0.9-0.4-1.2-0.4c-0.6,0-1.1,0.4-1.6,1.1s-0.6,2.3-0.6,4.5l0,0.8v6.4h-4V690.5z"/>
		<path style="fill:#C41530;" d="M760,690.5h4v15.9h-4v-1.7c-0.8,0.7-1.6,1.3-2.3,1.6c-0.8,0.3-1.6,0.5-2.6,0.5
			c-2.1,0-3.8-0.8-5.3-2.4c-1.5-1.6-2.3-3.6-2.3-6c0-2.5,0.7-4.5,2.2-6c1.5-1.6,3.2-2.4,5.3-2.4c1,0,1.9,0.2,2.7,0.5
			s1.6,0.9,2.3,1.6V690.5z M755.8,693.8c-1.2,0-2.3,0.4-3.1,1.3c-0.8,0.9-1.2,2-1.2,3.4c0,1.4,0.4,2.5,1.2,3.4s1.9,1.3,3.1,1.3
			c1.3,0,2.3-0.4,3.1-1.3s1.2-2,1.2-3.4c0-1.4-0.4-2.5-1.2-3.4S757.1,693.8,755.8,693.8z"/>
		<path style="fill:#C41530;" d="M768.1,690.5h4v1.6c0.9-0.8,1.7-1.3,2.5-1.6c0.7-0.3,1.5-0.4,2.3-0.4c1.6,0,2.9,0.6,4,1.7
			c0.9,0.9,1.4,2.3,1.4,4.2v10.5h-4v-7c0-1.9-0.1-3.2-0.3-3.8s-0.5-1.1-0.9-1.4s-0.9-0.5-1.6-0.5c-0.8,0-1.5,0.3-2.1,0.8
			c-0.6,0.5-1,1.3-1.2,2.2c-0.1,0.5-0.2,1.6-0.2,3.2v6.4h-4V690.5z"/>
		<path style="fill:#C41530;" d="M786.6,684.7h4v5.9h2.4v3.4h-2.4v12.5h-4V694h-2.1v-3.4h2.1V684.7z"/>
	</g>
	<g>
		<path style="fill:#C41530;" d="M312.8,860.3c0,2.1-1.8,3.8-3.8,3.8h-27.5c-2.1,0-3.8-1.7-3.8-3.8v-27.5c0-2.1,1.8-3.8,3.8-3.8H309
			c2.1,0,3.8,1.7,3.8,3.8V860.3"/>
		<g>
			<path style="fill:#FFFFFF;" d="M302.8,843.5v6.1c0,0.4-0.1,0.7-0.4,1c-0.3,0.3-0.6,0.4-1,0.4c-0.4,0-0.7-0.1-1-0.4
				c-0.3-0.3-0.4-0.6-0.4-1v-5.1H299v13.3c0,0.4-0.2,0.8-0.5,1.2c-0.3,0.3-0.7,0.5-1.2,0.5c-0.4,0-0.8-0.2-1.2-0.5
				c-0.3-0.3-0.5-0.7-0.5-1.2V851h-0.9v6.8c0,0.4-0.2,0.8-0.5,1.2c-0.3,0.3-0.7,0.5-1.2,0.5c-0.4,0-0.8-0.2-1.2-0.5
				c-0.3-0.3-0.5-0.7-0.5-1.2v-13.3h-0.9v5.1c0,0.4-0.1,0.7-0.4,1c-0.3,0.3-0.6,0.4-1,0.4c-0.4,0-0.7-0.1-1-0.4
				c-0.3-0.3-0.4-0.6-0.4-1v-6.1c0-0.8,0.3-1.4,0.8-2c0.5-0.5,1.2-0.8,2-0.8h9.3c0.8,0,1.4,0.3,2,0.8
				C302.5,842.1,302.8,842.7,302.8,843.5z M297.6,834.7c0.6,0.6,1,1.4,1,2.3c0,0.9-0.3,1.7-1,2.3c-0.6,0.6-1.4,1-2.3,1
				c-0.9,0-1.7-0.3-2.3-1c-0.6-0.6-1-1.4-1-2.3c0-0.9,0.3-1.7,1-2.3c0.6-0.6,1.4-1,2.3-1C296.2,833.7,297,834,297.6,834.7z"/>
		</g>
	</g>
	<g>
		<path style="fill:#C41530;" d="M312.9,815.8c0,2.1-1.8,3.8-3.8,3.8h-27.5c-2.1,0-3.8-1.7-3.8-3.8v-27.5c0-2.1,1.8-3.8,3.8-3.8
			h27.5c2.1,0,3.8,1.7,3.8,3.8V815.8"/>
		<g>
			<path style="fill:#FFFFFF;" d="M292,812.3c1,0,1.9-0.3,2.8-0.9l2,2c-1.4,1.1-2.9,1.6-4.7,1.6c-1.4,0-2.7-0.3-3.9-1
				c-1.2-0.7-2.1-1.6-2.8-2.8c-0.7-1.2-1-2.5-1-3.8c0-1.8,0.5-3.3,1.6-4.7l2,2c-0.6,0.8-0.8,1.8-0.8,2.8c0,1.4,0.5,2.5,1.4,3.5
				C289.5,811.8,290.6,812.3,292,812.3z M303.6,801.3c0.3,0.3,0.5,0.7,0.4,1.2l-0.6,7.8c0,0.4-0.2,0.7-0.5,1c-0.3,0.3-0.6,0.4-1,0.4
				c-0.1,0-0.1,0-0.1,0c-0.4,0-0.8-0.2-1-0.5c-0.3-0.3-0.4-0.7-0.4-1.1l0.5-6l-2,0.1c0.5,1.1,0.8,2.2,0.8,3.4c0,2-0.7,3.8-2.1,5.2
				l-1.9-1.9c0.9-0.9,1.3-2.1,1.3-3.3c0-1.4-0.5-2.5-1.4-3.5c-1-1-2.1-1.5-3.5-1.5c-1.3,0-2.4,0.4-3.3,1.3l-1.9-1.9
				c1.1-1.1,2.5-1.7,4-2l3.7-4.2l-2.1-1.2l-2.6,2.3c-0.3,0.3-0.7,0.4-1.1,0.4s-0.8-0.2-1-0.5c-0.3-0.3-0.4-0.7-0.4-1.1
				c0-0.4,0.2-0.8,0.5-1l3.4-3c0.2-0.2,0.5-0.3,0.8-0.4c0.3,0,0.6,0,0.9,0.2l6.9,4c0.3,0.2,0.6,0.5,0.7,1c0.2,0.6,0,1.2-0.4,1.6
				l-2.9,3.3l5.2-0.3C302.9,800.8,303.3,800.9,303.6,801.3z M302.6,794.1c-0.5,0.5-1.1,0.7-1.8,0.7s-1.3-0.2-1.8-0.7
				c-0.5-0.5-0.7-1.1-0.7-1.8s0.2-1.3,0.7-1.8c0.5-0.5,1.1-0.7,1.8-0.7s1.3,0.2,1.8,0.7c0.5,0.5,0.7,1.1,0.7,1.8
				S303.1,793.6,302.6,794.1z"/>
		</g>
	</g>
	<path style="fill:#C41530;" d="M312.9,771c0,2.1-1.8,3.8-3.8,3.8h-27.5c-2.1,0-3.8-1.7-3.8-3.8v-27.5c0-2.1,1.8-3.8,3.8-3.8h27.5
		c2.1,0,3.8,1.7,3.8,3.8V771"/>
	<circle style="fill:#FFFFFF;" cx="295.3" cy="748" r="3.1"/>
	<circle style="fill:#FFFFFF;" cx="306.2" cy="757.8" r="1.6"/>
	<g>
		<path style="fill:#FFFFFF;" d="M285.6,769.7c-0.9,0-1.7-0.8-1.7-1.7v-9.9c0-0.4,0.2-0.8,0.4-1.1l5.4-5.9c0.5-0.5,1.2-0.7,1.8-0.4
			c0.6,0.3,1.1,0.9,1.1,1.6v3.6h1.5c0.9,0,1.7,0.8,1.7,1.7s-0.8,1.7-1.7,1.7H291c-0.9,0-1.7-0.8-1.7-1.7v-0.9l-2.1,2.3v9.2
			C287.3,768.9,286.5,769.7,285.6,769.7z"/>
	</g>
	<g>
		<path style="fill:#FFFFFF;" d="M306.6,762.9h-15.5c-0.6,0-1.1-0.5-1.1-1.1c0-0.6,0.5-1.1,1.1-1.1h15.5c0.6,0,1.1,0.5,1.1,1.1
			C307.8,762.4,307.2,762.9,306.6,762.9z"/>
	</g>
	<g>
		<path style="fill:#FFFFFF;" d="M303,759.3h-3.4c-0.4,0-0.7-0.2-0.8-0.6l-1.2-3h-1.1c-0.5,0-0.9-0.4-0.9-0.9c0-0.5,0.4-0.9,0.9-0.9
			h1.8c0.4,0,0.7,0.2,0.8,0.6l1.2,3h1.5l-0.7-1.6c-0.2-0.5,0-1,0.5-1.2c0.5-0.2,1,0,1.2,0.5l1.2,2.9c0.1,0.3,0.1,0.6-0.1,0.9
			C303.6,759.2,303.4,759.3,303,759.3z"/>
	</g>
	<g>
		<path style="fill:#C41530;" d="M312.9,726.2c0,2.1-1.8,3.8-3.8,3.8h-27.5c-2.1,0-3.8-1.7-3.8-3.8v-27.5c0-2.1,1.8-3.8,3.8-3.8
			h27.5c2.1,0,3.8,1.7,3.8,3.8V726.2"/>
		<g>
			<path style="fill:#FFFFFF;" d="M304.7,714.5c0,0.4-0.1,0.7-0.4,1c-0.3,0.3-0.6,0.4-1,0.4c-0.5,0-0.9-0.2-1.2-0.6l-3.3-5h-0.7v1.9
				l3.6,6c0.1,0.1,0.1,0.3,0.1,0.5c0,0.3-0.1,0.5-0.3,0.7c-0.2,0.2-0.4,0.3-0.7,0.3h-2.8v4c0,0.4-0.2,0.8-0.5,1.2
				c-0.3,0.3-0.7,0.5-1.2,0.5h-2.3c-0.4,0-0.8-0.2-1.2-0.5c-0.3-0.3-0.5-0.7-0.5-1.2v-4h-2.8c-0.3,0-0.5-0.1-0.7-0.3
				c-0.2-0.2-0.3-0.4-0.3-0.7c0-0.2,0-0.3,0.1-0.5l3.6-6v-1.9h-0.7l-3.3,5c-0.3,0.4-0.7,0.6-1.2,0.6c-0.4,0-0.7-0.1-1-0.4
				c-0.3-0.3-0.4-0.6-0.4-1c0-0.3,0.1-0.5,0.2-0.8l3.7-5.6c0.7-1,1.6-1.6,2.6-1.6h5.6c1,0,1.9,0.5,2.6,1.6l3.7,5.6
				C304.6,714,304.7,714.2,304.7,714.5z M297.7,700.5c0.6,0.6,1,1.4,1,2.3c0,0.9-0.3,1.7-1,2.3c-0.6,0.6-1.4,1-2.3,1s-1.7-0.3-2.3-1
				c-0.6-0.6-1-1.4-1-2.3c0-0.9,0.3-1.7,1-2.3c0.6-0.6,1.4-1,2.3-1S297,699.9,297.7,700.5z"/>
		</g>
	</g>
	<g>
		<path style="fill:#C41530;" d="M234.4,769.4c0,2.1-1.8,3.8-3.8,3.8h-27.5c-2.1,0-3.8-1.7-3.8-3.8v-27.5c0-2.1,1.8-3.8,3.8-3.8
			h27.5c2.1,0,3.8,1.7,3.8,3.8V769.4"/>
		<g>
			<path style="fill:#FFFFFF;" d="M224.3,752.6v6.1c0,0.4-0.1,0.7-0.4,1c-0.3,0.3-0.6,0.4-1,0.4c-0.4,0-0.7-0.1-1-0.4
				c-0.3-0.3-0.4-0.6-0.4-1v-5.1h-0.9v13.3c0,0.4-0.2,0.8-0.5,1.2c-0.3,0.3-0.7,0.5-1.2,0.5c-0.4,0-0.8-0.2-1.2-0.5
				c-0.3-0.3-0.5-0.7-0.5-1.2v-6.8h-0.9v6.8c0,0.4-0.2,0.8-0.5,1.2c-0.3,0.3-0.7,0.5-1.2,0.5c-0.4,0-0.8-0.2-1.2-0.5
				c-0.3-0.3-0.5-0.7-0.5-1.2v-13.3h-0.9v5.1c0,0.4-0.1,0.7-0.4,1c-0.3,0.3-0.6,0.4-1,0.4c-0.4,0-0.7-0.1-1-0.4
				c-0.3-0.3-0.4-0.6-0.4-1v-6.1c0-0.8,0.3-1.4,0.8-2c0.5-0.5,1.2-0.8,2-0.8h9.3c0.8,0,1.4,0.3,2,0.8
				C224.1,751.2,224.3,751.8,224.3,752.6z M219.2,743.7c0.6,0.6,1,1.4,1,2.3c0,0.9-0.3,1.7-1,2.3c-0.6,0.6-1.4,1-2.3,1
				c-0.9,0-1.7-0.3-2.3-1c-0.6-0.6-1-1.4-1-2.3c0-0.9,0.3-1.7,1-2.3c0.6-0.6,1.4-1,2.3-1C217.8,742.8,218.5,743.1,219.2,743.7z"/>
		</g>
	</g>
	<g>
		<path style="fill:#C41530;" d="M227.4,734.8c-0.4,0-0.8-0.2-1.1-0.5l-8-8c-0.3-0.3-0.5-0.7-0.5-1.1c0-0.4,0.2-0.8,0.5-1.1l0.9-0.9
			c0.3-0.3,0.7-0.5,1.1-0.5c0.4,0,0.8,0.2,1.1,0.5l3.6,3.6v-8.7c0-0.4,0.2-0.8,0.5-1c0.3-0.3,0.7-0.4,1.1-0.4h1.6
			c0.4,0,0.8,0.1,1.1,0.4c0.3,0.3,0.5,0.6,0.5,1v8.7l3.6-3.6c0.3-0.3,0.7-0.5,1.1-0.5c0.4,0,0.8,0.2,1.1,0.5l0.9,0.9
			c0.3,0.3,0.5,0.7,0.5,1.1c0,0.4-0.2,0.8-0.5,1.1l-8,8C228.2,734.6,227.8,734.8,227.4,734.8z"/>
	</g>
	<g>
		<path style="fill:#C41530;" d="M206.3,716.6c0.4,0,0.8,0.2,1.1,0.5l8,8c0.3,0.3,0.5,0.7,0.5,1.1c0,0.4-0.2,0.8-0.5,1.1l-0.9,0.9
			c-0.3,0.3-0.7,0.5-1.1,0.5c-0.4,0-0.8-0.2-1.1-0.5l-3.6-3.6v8.7c0,0.4-0.2,0.8-0.5,1c-0.3,0.3-0.7,0.4-1.1,0.4h-1.6
			c-0.4,0-0.8-0.1-1.1-0.4c-0.3-0.3-0.5-0.6-0.5-1v-8.7l-3.6,3.6c-0.3,0.3-0.7,0.5-1.1,0.5c-0.4,0-0.8-0.2-1.1-0.5l-0.9-0.9
			c-0.3-0.3-0.5-0.7-0.5-1.1c0-0.4,0.2-0.8,0.5-1.1l8-8C205.5,716.8,205.9,716.6,206.3,716.6z"/>
	</g>
	<g>
		<path style="fill:#C41530;" d="M459.5,568.1c0,2.1-1.8,3.8-3.8,3.8h-27.5c-2.1,0-3.8-1.7-3.8-3.8v-27.5c0-2.1,1.8-3.8,3.8-3.8
			h27.5c2.1,0,3.8,1.7,3.8,3.8V568.1"/>
		<g>
			<path style="fill:#FFFFFF;" d="M449.5,551.3v6.1c0,0.4-0.1,0.7-0.4,1c-0.3,0.3-0.6,0.4-1,0.4c-0.4,0-0.7-0.1-1-0.4
				c-0.3-0.3-0.4-0.6-0.4-1v-5.1h-0.9v13.3c0,0.4-0.2,0.8-0.5,1.2c-0.3,0.3-0.7,0.5-1.2,0.5c-0.4,0-0.8-0.2-1.2-0.5
				c-0.3-0.3-0.5-0.7-0.5-1.2v-6.8h-0.9v6.8c0,0.4-0.2,0.8-0.5,1.2c-0.3,0.3-0.7,0.5-1.2,0.5c-0.4,0-0.8-0.2-1.2-0.5
				c-0.3-0.3-0.5-0.7-0.5-1.2v-13.3h-0.9v5.1c0,0.4-0.1,0.7-0.4,1c-0.3,0.3-0.6,0.4-1,0.4c-0.4,0-0.7-0.1-1-0.4
				c-0.3-0.3-0.4-0.6-0.4-1v-6.1c0-0.8,0.3-1.4,0.8-2c0.5-0.5,1.2-0.8,2-0.8h9.3c0.8,0,1.4,0.3,2,0.8
				C449.2,549.9,449.5,550.5,449.5,551.3z M444.3,542.4c0.6,0.6,1,1.4,1,2.3c0,0.9-0.3,1.7-1,2.3c-0.6,0.6-1.4,1-2.3,1
				c-0.9,0-1.7-0.3-2.3-1c-0.6-0.6-1-1.4-1-2.3c0-0.9,0.3-1.7,1-2.3c0.6-0.6,1.4-1,2.3-1C442.9,541.5,443.7,541.8,444.3,542.4z"/>
		</g>
	</g>
	<g>
		<path style="fill:#C41530;" d="M452.5,533.5c-0.4,0-0.8-0.2-1.1-0.5l-8-8c-0.3-0.3-0.5-0.7-0.5-1.1c0-0.4,0.2-0.8,0.5-1.1l0.9-0.9
			c0.3-0.3,0.7-0.5,1.1-0.5s0.8,0.2,1.1,0.5l3.6,3.6v-8.7c0-0.4,0.2-0.8,0.5-1c0.3-0.3,0.7-0.4,1.1-0.4h1.6c0.4,0,0.8,0.1,1.1,0.4
			c0.3,0.3,0.5,0.6,0.5,1v8.7l3.6-3.6c0.3-0.3,0.7-0.5,1.1-0.5c0.4,0,0.8,0.2,1.1,0.5l0.9,0.9c0.3,0.3,0.5,0.7,0.5,1.1
			c0,0.4-0.2,0.8-0.5,1.1l-8,8C453.4,533.3,453,533.5,452.5,533.5z"/>
	</g>
	<g>
		<path style="fill:#C41530;" d="M431.5,515.3c0.4,0,0.8,0.2,1.1,0.5l8,8c0.3,0.3,0.5,0.7,0.5,1.1c0,0.4-0.2,0.8-0.5,1.1l-0.9,0.9
			c-0.3,0.3-0.7,0.5-1.1,0.5s-0.8-0.2-1.1-0.5l-3.6-3.6v8.7c0,0.4-0.2,0.8-0.5,1c-0.3,0.3-0.7,0.4-1.1,0.4h-1.6
			c-0.4,0-0.8-0.1-1.1-0.4c-0.3-0.3-0.5-0.6-0.5-1v-8.7l-3.6,3.6c-0.3,0.3-0.7,0.5-1.1,0.5c-0.4,0-0.8-0.2-1.1-0.5l-0.9-0.9
			c-0.3-0.3-0.5-0.7-0.5-1.1c0-0.4,0.2-0.8,0.5-1.1l8-8C430.6,515.5,431,515.3,431.5,515.3z"/>
	</g>
	<g>
		<path style="fill:#C41530;" d="M741.4,814.3c0,2.1-1.8,3.8-3.8,3.8h-27.5c-2.1,0-3.8-1.7-3.8-3.8v-27.5c0-2.1,1.8-3.8,3.8-3.8
			h27.5c2.1,0,3.8,1.7,3.8,3.8V814.3"/>
		<g>
			<path style="fill:#FFFFFF;" d="M731.3,797.5v6.1c0,0.4-0.1,0.7-0.4,1c-0.3,0.3-0.6,0.4-1,0.4c-0.4,0-0.7-0.1-1-0.4
				c-0.3-0.3-0.4-0.6-0.4-1v-5.1h-0.9v13.3c0,0.4-0.2,0.8-0.5,1.2c-0.3,0.3-0.7,0.5-1.2,0.5c-0.4,0-0.8-0.2-1.2-0.5
				c-0.3-0.3-0.5-0.7-0.5-1.2v-6.8h-0.9v6.8c0,0.4-0.2,0.8-0.5,1.2c-0.3,0.3-0.7,0.5-1.2,0.5c-0.4,0-0.8-0.2-1.2-0.5
				c-0.3-0.3-0.5-0.7-0.5-1.2v-13.3h-0.9v5.1c0,0.4-0.1,0.7-0.4,1c-0.3,0.3-0.6,0.4-1,0.4c-0.4,0-0.7-0.1-1-0.4
				c-0.3-0.3-0.4-0.6-0.4-1v-6.1c0-0.8,0.3-1.4,0.8-2c0.5-0.5,1.2-0.8,2-0.8h9.3c0.8,0,1.4,0.3,2,0.8
				C731,796,731.3,796.7,731.3,797.5z M726.2,788.6c0.6,0.6,1,1.4,1,2.3c0,0.9-0.3,1.7-1,2.3c-0.6,0.6-1.4,1-2.3,1
				c-0.9,0-1.7-0.3-2.3-1c-0.6-0.6-1-1.4-1-2.3c0-0.9,0.3-1.7,1-2.3c0.6-0.6,1.4-1,2.3-1C724.7,787.7,725.5,788,726.2,788.6z"/>
		</g>
	</g>
	<g>
		<path style="fill:#C41530;" d="M734.4,779.7c-0.4,0-0.8-0.2-1.1-0.5l-8-8c-0.3-0.3-0.5-0.7-0.5-1.1c0-0.4,0.2-0.8,0.5-1.1l0.9-0.9
			c0.3-0.3,0.7-0.5,1.1-0.5c0.4,0,0.8,0.2,1.1,0.5l3.6,3.6V763c0-0.4,0.2-0.8,0.5-1c0.3-0.3,0.7-0.4,1.1-0.4h1.6
			c0.4,0,0.8,0.1,1.1,0.4c0.3,0.3,0.5,0.6,0.5,1v8.7l3.6-3.6c0.3-0.3,0.7-0.5,1.1-0.5c0.4,0,0.8,0.2,1.1,0.5l0.9,0.9
			c0.3,0.3,0.5,0.7,0.5,1.1c0,0.4-0.2,0.8-0.5,1.1l-8,8C735.2,779.5,734.8,779.7,734.4,779.7z"/>
	</g>
	<g>
		<path style="fill:#C41530;" d="M713.3,761.5c0.4,0,0.8,0.2,1.1,0.5l8,8c0.3,0.3,0.5,0.7,0.5,1.1c0,0.4-0.2,0.8-0.5,1.1l-0.9,0.9
			c-0.3,0.3-0.7,0.5-1.1,0.5c-0.4,0-0.8-0.2-1.1-0.5l-3.6-3.6v8.7c0,0.4-0.2,0.8-0.5,1c-0.3,0.3-0.7,0.4-1.1,0.4h-1.6
			c-0.4,0-0.8-0.1-1.1-0.4c-0.3-0.3-0.5-0.6-0.5-1v-8.7l-3.6,3.6c-0.3,0.3-0.7,0.5-1.1,0.5c-0.4,0-0.8-0.2-1.1-0.5l-0.9-0.9
			c-0.3-0.3-0.5-0.7-0.5-1.1c0-0.4,0.2-0.8,0.5-1.1l8-8C712.5,761.7,712.9,761.5,713.3,761.5z"/>
	</g>
	<g>
		<g>
			<path style="fill:#C41530;" d="M421.1,450.8c0,2.1-1.8,3.8-3.8,3.8h-27.5c-2.1,0-3.8-1.7-3.8-3.8v-27.5c0-2.1,1.8-3.8,3.8-3.8
				h27.5c2.1,0,3.8,1.7,3.8,3.8V450.8"/>
		</g>
		<path style="fill:#FFFFFF;" d="M414.3,428.4h-5.5c-0.8,0-1.6,0.4-2.1,1l-3.9,4.6v-0.2c0-1.3-1-2.3-2.3-2.3c-1.3,0-2.3,1-2.3,2.3
			v5.4c0,0,0,0.1,0,0.1l-1.4,1.7l-4.1,0c-1.5,0-2.7,1.2-2.7,2.7c0,1.5,1.2,2.7,2.7,2.7h0l5.4,0c0.8,0,1.6-0.4,2.1-1l9.9-11.6h4.2
			c1.5,0,2.7-1.2,2.7-2.7C417.1,429.6,415.8,428.4,414.3,428.4L414.3,428.4z M414.3,428.4"/>
		<path style="fill:#FFFFFF;" d="M412.5,438.4c-0.2-0.2-0.6-0.2-0.9,0L408,442c-0.1,0.1-0.1,0.3-0.1,0.4c0.1,0.1,0.2,0.2,0.4,0.2
			h1.7v4.6c0,0.3,0.3,0.6,0.6,0.6h2.8c0.3,0,0.6-0.3,0.6-0.6v-4.6h1.7c0.2,0,0.3-0.1,0.4-0.2c0.1-0.1,0-0.3-0.1-0.4L412.5,438.4z
			 M412.5,438.4"/>
		<path style="fill:#FFFFFF;" d="M400.6,430.6c1.2,0,2.2-1,2.2-2.2c0-1.2-1-2.2-2.2-2.2c-1.2,0-2.2,1-2.2,2.2
			C398.3,429.6,399.3,430.6,400.6,430.6L400.6,430.6z M400.6,430.6"/>
	</g>
	<g>
		<g>
			<path style="fill:#C41530;" d="M579.3,610.8c0,2.1-1.8,3.8-3.8,3.8H548c-2.1,0-3.8-1.7-3.8-3.8v-27.5c0-2.1,1.8-3.8,3.8-3.8h27.5
				c2.1,0,3.8,1.7,3.8,3.8V610.8"/>
		</g>
		<path style="fill:#FFFFFF;" d="M572.6,588.4h-5.5c-0.8,0-1.6,0.4-2.1,1l-3.9,4.6v-0.2c0-1.3-1-2.3-2.3-2.3s-2.3,1-2.3,2.3v5.4
			c0,0,0,0.1,0,0.1l-1.4,1.7l-4.1,0c-1.5,0-2.7,1.2-2.7,2.7c0,1.5,1.2,2.7,2.7,2.7h0l5.4,0c0.8,0,1.6-0.4,2.1-1l9.9-11.6h4.2
			c1.5,0,2.7-1.2,2.7-2.7C575.3,589.6,574.1,588.4,572.6,588.4L572.6,588.4z M572.6,588.4"/>
		<path style="fill:#FFFFFF;" d="M570.7,598.4c-0.2-0.2-0.6-0.2-0.9,0l-3.6,3.6c-0.1,0.1-0.1,0.3-0.1,0.4c0.1,0.1,0.2,0.2,0.4,0.2
			h1.7v4.6c0,0.3,0.3,0.6,0.6,0.6h2.8c0.3,0,0.6-0.3,0.6-0.6v-4.6h1.7c0.2,0,0.3-0.1,0.4-0.2c0.1-0.1,0-0.3-0.1-0.4L570.7,598.4z
			 M570.7,598.4"/>
		<path style="fill:#FFFFFF;" d="M558.8,590.6c1.2,0,2.2-1,2.2-2.2c0-1.2-1-2.2-2.2-2.2s-2.2,1-2.2,2.2
			C556.6,589.6,557.6,590.6,558.8,590.6L558.8,590.6z M558.8,590.6"/>
	</g>
	<g>
		<path style="fill:#C41530;" d="M484.5,388.4c0,2.1-1.8,3.8-3.8,3.8h-27.5c-2.1,0-3.8-1.7-3.8-3.8v-27.5c0-2.1,1.8-3.8,3.8-3.8
			h27.5c2.1,0,3.8,1.7,3.8,3.8V388.4"/>
		<g>
			<g>
				<path style="fill:#FFFFFF;" d="M477.7,380.4c0,0.3,0,0.6-0.1,1c-0.1,0.4-0.2,0.8-0.3,1c-0.2,0.5-0.8,1-1.8,1.5
					c-0.9,0.5-1.8,0.7-2.7,0.7c-0.3,0-0.5,0-0.8-0.1c-0.3,0-0.5-0.1-0.8-0.2c-0.3-0.1-0.5-0.2-0.7-0.2c-0.2-0.1-0.4-0.2-0.8-0.3
					c-0.4-0.1-0.6-0.2-0.7-0.3c-1-0.3-1.8-0.7-2.5-1.2c-1.2-0.8-2.5-1.8-3.8-3.1c-1.3-1.3-2.4-2.6-3.1-3.8c-0.5-0.7-0.9-1.6-1.2-2.5
					c0-0.1-0.1-0.3-0.3-0.7s-0.2-0.7-0.3-0.8c-0.1-0.1-0.1-0.4-0.2-0.7c-0.1-0.3-0.1-0.6-0.2-0.8s-0.1-0.5-0.1-0.8
					c0-0.9,0.2-1.8,0.7-2.7c0.5-1,1.1-1.6,1.5-1.8c0.2-0.1,0.6-0.2,1-0.3c0.4-0.1,0.8-0.1,1-0.1c0.1,0,0.2,0,0.3,0
					c0.2,0.1,0.4,0.4,0.8,1.1c0.1,0.2,0.3,0.4,0.4,0.8s0.4,0.6,0.5,0.9c0.2,0.3,0.3,0.5,0.5,0.8c0,0,0.1,0.2,0.3,0.4
					c0.1,0.2,0.2,0.4,0.3,0.5c0.1,0.1,0.1,0.3,0.1,0.4c0,0.2-0.1,0.4-0.4,0.7c-0.3,0.3-0.6,0.6-0.9,0.8c-0.3,0.2-0.6,0.5-0.9,0.8
					s-0.4,0.5-0.4,0.7c0,0.1,0,0.2,0.1,0.3c0,0.1,0.1,0.2,0.1,0.3c0,0.1,0.1,0.2,0.2,0.3c0.1,0.2,0.2,0.3,0.2,0.3
					c0.7,1.3,1.6,2.5,2.5,3.4c1,1,2.1,1.8,3.4,2.5c0,0,0.1,0.1,0.3,0.2c0.2,0.1,0.3,0.2,0.3,0.2c0.1,0,0.2,0.1,0.3,0.1
					c0.1,0,0.2,0.1,0.3,0.1c0.2,0,0.4-0.1,0.7-0.4s0.5-0.6,0.8-0.9c0.2-0.3,0.5-0.6,0.8-0.9c0.3-0.3,0.5-0.4,0.7-0.4
					c0.1,0,0.3,0,0.4,0.1c0.1,0.1,0.3,0.2,0.5,0.3c0.2,0.1,0.3,0.2,0.4,0.3c0.2,0.1,0.5,0.3,0.8,0.5s0.6,0.3,0.9,0.5
					s0.6,0.3,0.8,0.4c0.7,0.3,1,0.6,1.1,0.8C477.7,380.2,477.7,380.3,477.7,380.4z"/>
			</g>
		</g>
	</g>
	<g>
		<path style="fill:#C41530;" d="M416.3,350h2.2l4.3,11.2h-2.2l-0.9-2.3h-4.6l-0.9,2.3H412L416.3,350z M417.4,353l-1.5,3.8h3
			L417.4,353z"/>
		<path style="fill:#C41530;" d="M422.4,350h6.2v2.1h-2v9.1h-2.2v-9.1h-2V350z"/>
		<path style="fill:#C41530;" d="M430.5,350h2.1l2.6,7.8l2.6-7.8h2.1l1.9,11.2h-2.1l-1.2-7l-2.4,7h-1.9l-2.3-7l-1.2,7h-2.1
			L430.5,350z"/>
	</g>
	<g>
		<path style="fill:#FFFFFF;" d="M259.3,233.7h4.2l8.3,21.5h-4.3l-1.7-4.4H257l-1.8,4.4H251L259.3,233.7z M261.4,239.5l-2.9,7.4h5.8
			L261.4,239.5z"/>
		<path style="fill:#FFFFFF;" d="M273.8,239.4h3.4v2c0.4-0.8,0.9-1.4,1.5-1.8s1.3-0.6,2-0.6c0.5,0,1.1,0.1,1.6,0.4l-1.2,3.4
			c-0.5-0.2-0.9-0.4-1.2-0.4c-0.6,0-1.1,0.4-1.6,1.1c-0.4,0.8-0.6,2.3-0.6,4.5l0,0.8v6.4h-4V239.4z"/>
		<path style="fill:#FFFFFF;" d="M299.7,248.5h-12.8c0.2,1.1,0.7,2,1.5,2.7c0.8,0.7,1.8,1,3.1,1c1.5,0,2.8-0.5,3.9-1.6l3.4,1.6
			c-0.8,1.2-1.8,2.1-3,2.6s-2.6,0.9-4.2,0.9c-2.5,0-4.5-0.8-6.1-2.4s-2.4-3.6-2.4-5.9c0-2.4,0.8-4.5,2.4-6.1
			c1.6-1.6,3.5-2.4,5.9-2.4c2.5,0,4.6,0.8,6.1,2.4s2.4,3.7,2.4,6.4L299.7,248.5z M295.7,245.3c-0.3-0.9-0.8-1.6-1.6-2.2
			c-0.8-0.6-1.7-0.8-2.7-0.8c-1.1,0-2.1,0.3-2.9,0.9c-0.5,0.4-1,1.1-1.5,2.1H295.7z"/>
		<path style="fill:#FFFFFF;" d="M314.6,239.4h4v15.9h-4v-1.7c-0.8,0.7-1.6,1.3-2.3,1.6s-1.6,0.5-2.6,0.5c-2.1,0-3.8-0.8-5.3-2.4
			s-2.3-3.6-2.3-6c0-2.5,0.7-4.5,2.2-6c1.5-1.6,3.2-2.4,5.3-2.4c1,0,1.9,0.2,2.7,0.5s1.6,0.9,2.3,1.6V239.4z M310.4,242.6
			c-1.2,0-2.3,0.4-3.1,1.3s-1.2,2-1.2,3.4c0,1.4,0.4,2.5,1.2,3.4s1.9,1.3,3.1,1.3c1.3,0,2.3-0.4,3.1-1.3s1.2-2,1.2-3.4
			c0-1.4-0.4-2.5-1.2-3.4S311.6,242.6,310.4,242.6z"/>
		<path style="fill:#FFFFFF;" d="M331.3,233.7h4.1v13.9c0,1.2,0.1,2,0.3,2.5c0.2,0.5,0.6,0.9,1,1.2c0.5,0.3,1.1,0.4,1.8,0.4
			c0.7,0,1.3-0.2,1.9-0.5c0.5-0.3,0.9-0.8,1.1-1.3c0.2-0.5,0.3-1.5,0.3-2.9v-13.4h4.1v12.8c0,2.2-0.1,3.7-0.4,4.5s-0.7,1.7-1.4,2.4
			c-0.7,0.8-1.5,1.4-2.4,1.7s-1.9,0.6-3.1,0.6c-1.6,0-2.9-0.4-4.1-1.1c-1.2-0.7-2-1.6-2.5-2.7s-0.7-2.9-0.7-5.5V233.7z"/>
		<path style="fill:#FFFFFF;" d="M350.2,239.4h4v1.6c0.9-0.8,1.7-1.3,2.5-1.6c0.7-0.3,1.5-0.4,2.3-0.4c1.6,0,2.9,0.6,4,1.7
			c0.9,0.9,1.4,2.3,1.4,4.2v10.5h-4v-7c0-1.9-0.1-3.2-0.3-3.8s-0.5-1.1-0.9-1.4s-0.9-0.5-1.6-0.5c-0.8,0-1.5,0.3-2.1,0.8
			c-0.6,0.5-1,1.3-1.2,2.2c-0.1,0.5-0.2,1.6-0.2,3.2v6.4h-4V239.4z"/>
		<path style="fill:#FFFFFF;" d="M380,233.2h4v22.1h-4v-1.7c-0.8,0.7-1.6,1.3-2.3,1.6s-1.6,0.5-2.6,0.5c-2.1,0-3.8-0.8-5.3-2.4
			s-2.3-3.6-2.3-6c0-2.5,0.7-4.5,2.2-6c1.5-1.6,3.2-2.4,5.3-2.4c1,0,1.9,0.2,2.7,0.5s1.6,0.9,2.3,1.6V233.2z M375.8,242.6
			c-1.2,0-2.3,0.4-3.1,1.3s-1.2,2-1.2,3.4c0,1.4,0.4,2.5,1.2,3.4s1.9,1.3,3.1,1.3c1.3,0,2.3-0.4,3.1-1.3s1.2-2,1.2-3.4
			c0-1.4-0.4-2.5-1.2-3.4S377,242.6,375.8,242.6z"/>
		<path style="fill:#FFFFFF;" d="M403.9,248.5h-12.8c0.2,1.1,0.7,2,1.5,2.7c0.8,0.7,1.8,1,3.1,1c1.5,0,2.8-0.5,3.9-1.6l3.4,1.6
			c-0.8,1.2-1.8,2.1-3,2.6s-2.6,0.9-4.2,0.9c-2.5,0-4.5-0.8-6.1-2.4s-2.4-3.6-2.4-5.9c0-2.4,0.8-4.5,2.4-6.1
			c1.6-1.6,3.5-2.4,5.9-2.4c2.5,0,4.6,0.8,6.1,2.4s2.4,3.7,2.4,6.4L403.9,248.5z M399.9,245.3c-0.3-0.9-0.8-1.6-1.6-2.2
			c-0.8-0.6-1.7-0.8-2.7-0.8c-1.1,0-2.1,0.3-2.9,0.9c-0.5,0.4-1,1.1-1.5,2.1H399.9z"/>
		<path style="fill:#FFFFFF;" d="M406.5,239.4h3.4v2c0.4-0.8,0.9-1.4,1.5-1.8s1.3-0.6,2-0.6c0.5,0,1.1,0.1,1.6,0.4l-1.2,3.4
			c-0.5-0.2-0.9-0.4-1.2-0.4c-0.6,0-1.1,0.4-1.6,1.1c-0.4,0.8-0.6,2.3-0.6,4.5l0,0.8v6.4h-4V239.4z"/>
		<path style="fill:#FFFFFF;" d="M253,269.7h4.3c2.4,0,4.1,0.2,5.1,0.6s1.8,1.1,2.4,2.1s0.9,2.2,0.9,3.5c0,1.4-0.3,2.6-1,3.6
			c-0.7,1-1.7,1.7-3.1,2.2l5.1,9.6h-4.5l-4.8-9.1h-0.4v9.1H253V269.7z M257.1,278.2h1.3c1.3,0,2.2-0.2,2.7-0.5
			c0.5-0.3,0.7-0.9,0.7-1.7c0-0.5-0.1-0.9-0.4-1.2c-0.2-0.3-0.6-0.6-1-0.7c-0.4-0.2-1.2-0.2-2.2-0.2h-1.1V278.2z"/>
		<path style="fill:#FFFFFF;" d="M285.2,284.5h-12.8c0.2,1.1,0.7,2,1.5,2.7c0.8,0.7,1.8,1,3.1,1c1.5,0,2.8-0.5,3.9-1.6l3.4,1.6
			c-0.8,1.2-1.8,2.1-3,2.6s-2.6,0.9-4.2,0.9c-2.5,0-4.5-0.8-6.1-2.4s-2.4-3.6-2.4-5.9c0-2.4,0.8-4.5,2.4-6.1
			c1.6-1.6,3.5-2.4,5.9-2.4c2.5,0,4.6,0.8,6.1,2.4s2.4,3.7,2.4,6.4L285.2,284.5z M281.2,281.3c-0.3-0.9-0.8-1.6-1.6-2.2
			c-0.8-0.6-1.7-0.8-2.7-0.8c-1.1,0-2.1,0.3-2.9,0.9c-0.5,0.4-1,1.1-1.5,2.1H281.2z"/>
		<path style="fill:#FFFFFF;" d="M300.1,269.2h4v22.1h-4v-1.7c-0.8,0.7-1.6,1.3-2.3,1.6s-1.6,0.5-2.6,0.5c-2.1,0-3.8-0.8-5.3-2.4
			s-2.3-3.6-2.3-6c0-2.5,0.7-4.5,2.2-6c1.5-1.6,3.2-2.4,5.3-2.4c1,0,1.9,0.2,2.7,0.5s1.6,0.9,2.3,1.6V269.2z M295.9,278.6
			c-1.2,0-2.3,0.4-3.1,1.3s-1.2,2-1.2,3.4c0,1.4,0.4,2.5,1.2,3.4s1.9,1.3,3.1,1.3c1.3,0,2.3-0.4,3.1-1.3s1.2-2,1.2-3.4
			c0-1.4-0.4-2.5-1.2-3.4S297.1,278.6,295.9,278.6z"/>
		<path style="fill:#FFFFFF;" d="M324,284.5h-12.8c0.2,1.1,0.7,2,1.5,2.7c0.8,0.7,1.8,1,3.1,1c1.5,0,2.8-0.5,3.9-1.6l3.4,1.6
			c-0.8,1.2-1.8,2.1-3,2.6s-2.6,0.9-4.2,0.9c-2.5,0-4.5-0.8-6.1-2.4s-2.4-3.6-2.4-5.9c0-2.4,0.8-4.5,2.4-6.1
			c1.6-1.6,3.5-2.4,5.9-2.4c2.5,0,4.6,0.8,6.1,2.4s2.4,3.7,2.4,6.4L324,284.5z M320,281.3c-0.3-0.9-0.8-1.6-1.6-2.2
			c-0.8-0.6-1.7-0.8-2.7-0.8c-1.1,0-2.1,0.3-2.9,0.9c-0.5,0.4-1,1.1-1.5,2.1H320z"/>
		<path style="fill:#FFFFFF;" d="M324.7,275.4h4.1l4,9.4l4-9.4h4.1l-6.8,15.9h-2.6L324.7,275.4z"/>
		<path style="fill:#FFFFFF;" d="M358.2,284.5h-12.8c0.2,1.1,0.7,2,1.5,2.7c0.8,0.7,1.8,1,3.1,1c1.5,0,2.8-0.5,3.9-1.6l3.4,1.6
			c-0.8,1.2-1.8,2.1-3,2.6s-2.6,0.9-4.2,0.9c-2.5,0-4.5-0.8-6.1-2.4s-2.4-3.6-2.4-5.9c0-2.4,0.8-4.5,2.4-6.1
			c1.6-1.6,3.5-2.4,5.9-2.4c2.5,0,4.6,0.8,6.1,2.4s2.4,3.7,2.4,6.4L358.2,284.5z M354.2,281.3c-0.3-0.9-0.8-1.6-1.6-2.2
			c-0.8-0.6-1.7-0.8-2.7-0.8c-1.1,0-2.1,0.3-2.9,0.9c-0.5,0.4-1,1.1-1.5,2.1H354.2z"/>
		<path style="fill:#FFFFFF;" d="M361.2,269.2h4v22.1h-4V269.2z"/>
		<path style="fill:#FFFFFF;" d="M376.4,274.9c1.5,0,2.9,0.4,4.2,1.1c1.3,0.8,2.4,1.8,3.1,3.1s1.1,2.7,1.1,4.2
			c0,1.5-0.4,2.9-1.1,4.2c-0.7,1.3-1.8,2.3-3.1,3.1s-2.7,1.1-4.3,1.1c-2.3,0-4.2-0.8-5.9-2.4c-1.6-1.6-2.4-3.6-2.4-5.9
			c0-2.5,0.9-4.6,2.7-6.2C372.5,275.7,374.3,274.9,376.4,274.9z M376.5,278.7c-1.2,0-2.3,0.4-3.1,1.3c-0.8,0.9-1.2,2-1.2,3.3
			c0,1.4,0.4,2.5,1.2,3.4c0.8,0.9,1.9,1.3,3.1,1.3c1.3,0,2.3-0.4,3.1-1.3c0.8-0.9,1.2-2,1.2-3.4s-0.4-2.5-1.2-3.3
			C378.8,279.1,377.8,278.7,376.5,278.7z"/>
		<path style="fill:#FFFFFF;" d="M392,275.4v1.8c0.7-0.7,1.5-1.3,2.3-1.6s1.7-0.5,2.7-0.5c2.1,0,3.8,0.8,5.3,2.4s2.2,3.6,2.2,6
			c0,2.4-0.8,4.4-2.3,6s-3.3,2.4-5.3,2.4c-0.9,0-1.8-0.2-2.6-0.5s-1.6-0.9-2.4-1.6v7.5h-4v-21.8H392z M396.2,278.6
			c-1.3,0-2.3,0.4-3.1,1.3s-1.2,2-1.2,3.4c0,1.4,0.4,2.6,1.2,3.4s1.9,1.3,3.1,1.3c1.2,0,2.2-0.4,3.1-1.3c0.8-0.9,1.3-2,1.3-3.4
			c0-1.4-0.4-2.5-1.2-3.4S397.5,278.6,396.2,278.6z"/>
		<path style="fill:#FFFFFF;" d="M407.7,275.4h4v1.8c0.7-0.8,1.4-1.3,2.3-1.7s1.7-0.6,2.7-0.6c1,0,1.9,0.2,2.7,0.7
			c0.8,0.5,1.4,1.2,1.9,2.1c0.6-0.9,1.4-1.7,2.3-2.1s1.9-0.7,3-0.7c1.1,0,2.1,0.3,3,0.8s1.5,1.2,1.9,2.1s0.6,2.2,0.6,4.1v9.3h-4
			v-8.1c0-1.8-0.2-3-0.7-3.7s-1.1-1-2-1c-0.7,0-1.3,0.2-1.8,0.6c-0.5,0.4-0.9,0.9-1.2,1.6s-0.4,1.8-0.4,3.3v7.2h-4v-7.7
			c0-1.4-0.1-2.5-0.3-3.1c-0.2-0.6-0.5-1.1-0.9-1.4s-0.9-0.5-1.5-0.5c-0.7,0-1.3,0.2-1.8,0.6c-0.5,0.4-0.9,0.9-1.2,1.7
			c-0.3,0.7-0.4,1.8-0.4,3.4v7.1h-4V275.4z"/>
		<path style="fill:#FFFFFF;" d="M451.9,284.5h-12.8c0.2,1.1,0.7,2,1.5,2.7c0.8,0.7,1.8,1,3.1,1c1.5,0,2.8-0.5,3.9-1.6l3.4,1.6
			c-0.8,1.2-1.8,2.1-3,2.6s-2.6,0.9-4.2,0.9c-2.5,0-4.5-0.8-6.1-2.4s-2.4-3.6-2.4-5.9c0-2.4,0.8-4.5,2.4-6.1
			c1.6-1.6,3.5-2.4,5.9-2.4c2.5,0,4.6,0.8,6.1,2.4s2.4,3.7,2.4,6.4L451.9,284.5z M447.9,281.3c-0.3-0.9-0.8-1.6-1.6-2.2
			c-0.8-0.6-1.7-0.8-2.7-0.8c-1.1,0-2.1,0.3-2.9,0.9c-0.5,0.4-1,1.1-1.5,2.1H447.9z"/>
		<path style="fill:#FFFFFF;" d="M455,275.4h4v1.6c0.9-0.8,1.7-1.3,2.5-1.6c0.7-0.3,1.5-0.4,2.3-0.4c1.6,0,2.9,0.6,4,1.7
			c0.9,0.9,1.4,2.3,1.4,4.2v10.5h-4v-7c0-1.9-0.1-3.2-0.3-3.8s-0.5-1.1-0.9-1.4s-0.9-0.5-1.6-0.5c-0.8,0-1.5,0.3-2.1,0.8
			c-0.6,0.5-1,1.3-1.2,2.2c-0.1,0.5-0.2,1.6-0.2,3.2v6.4h-4V275.4z"/>
		<path style="fill:#FFFFFF;" d="M473.5,269.5h4v5.9h2.4v3.4h-2.4v12.5h-4v-12.5h-2.1v-3.4h2.1V269.5z"/>
	</g>
</g>
</svg>
