<?xml version="1.0" encoding="utf-8"?>
<!-- Generator: Adobe Illustrator 21.0.2, SVG Export Plug-In . SVG Version: 6.00 Build 0)  -->
<svg version="1.1" id="Layer_1" xmlns="http://www.w3.org/2000/svg" xmlns:xlink="http://www.w3.org/1999/xlink" x="0px" y="0px"
	 viewBox="0 0 100 100" style="enable-background:new 0 0 100 100;" xml:space="preserve">
<style type="text/css">
	.st0{clip-path:url(#SVGID_2_);fill:#252525;}
</style>
<g>
	<defs>
		<rect id="SVGID_1_" x="1.8" y="0.7" width="97.2" height="97.5"/>
	</defs>
	<clipPath id="SVGID_2_">
		<use xlink:href="#SVGID_1_"  style="overflow:visible;"/>
	</clipPath>
	<path class="st0" d="M99,66.9v27.9c0,0.9-0.3,1.8-1,2.4c-0.7,0.7-1.5,1-2.4,1H67.8c-0.9,0-1.8-0.3-2.4-1c-0.7-0.7-1-1.5-1-2.4V63.4
		c-0.9,0-1.8-0.3-2.4-1c-0.7-0.7-1-1.5-1-2.4V18.2h23c0.9,0,1.4,0.4,1.7,1.3L99,66.9z M78.2,2.5v12.2H59.1V2.5
		c0-0.5,0.2-0.9,0.5-1.3c0.3-0.3,0.7-0.5,1.2-0.5h15.6c0.5,0,0.9,0.2,1.2,0.5C78,1.6,78.2,2,78.2,2.5 M57.3,56.5H43.5V18.2h13.9
		V56.5z M41.7,2.5v12.2H22.6V2.5c0-0.5,0.2-0.9,0.5-1.3c0.3-0.3,0.7-0.5,1.2-0.5H40c0.5,0,0.9,0.2,1.2,0.5C41.6,1.6,41.7,2,41.7,2.5
		 M40,18.2v41.8c0,0.9-0.3,1.8-1,2.4c-0.7,0.7-1.5,1-2.4,1v31.3c0,0.9-0.3,1.8-1,2.4c-0.7,0.7-1.5,1-2.4,1H5.3c-0.9,0-1.8-0.3-2.4-1
		c-0.7-0.7-1-1.5-1-2.4V66.9l13.5-47.5c0.3-0.8,0.8-1.3,1.7-1.3H40z"/>
</g>
</svg>
