<?xml version="1.0" encoding="utf-8"?>
<!-- Generator: Adobe Illustrator 21.0.2, SVG Export Plug-In . SVG Version: 6.00 Build 0)  -->
<svg version="1.1" id="Layer_1" xmlns="http://www.w3.org/2000/svg" xmlns:xlink="http://www.w3.org/1999/xlink" x="0px" y="0px"
	 viewBox="0 0 100 100" style="enable-background:new 0 0 100 100;" xml:space="preserve">
<style type="text/css">
	.st0{clip-path:url(#SVGID_2_);fill:#252525;}
</style>
<g>
	<defs>
		<rect id="SVGID_1_" x="3" y="1" width="94.4" height="99"/>
	</defs>
	<clipPath id="SVGID_2_">
		<use xlink:href="#SVGID_1_"  style="overflow:visible;"/>
	</clipPath>
	<path class="st0" d="M73.8,92.9h16.3V77H73.8V92.9z M73.8,73.5h16.3V55.8H73.8V73.5z M73.8,52.3h16.3V36.4H73.8V52.3z M75.6,25.8
		V9.8c0-0.5-0.2-0.9-0.5-1.2c-0.4-0.4-0.8-0.5-1.3-0.5h-3.6c-0.5,0-0.9,0.2-1.3,0.5c-0.4,0.3-0.5,0.8-0.5,1.2v15.9
		c0,0.5,0.2,0.9,0.5,1.2c0.4,0.3,0.8,0.5,1.3,0.5h3.6c0.5,0,0.9-0.2,1.3-0.5C75.4,26.6,75.6,26.2,75.6,25.8 M52,92.9h18.2V77H52
		V92.9z M52,73.5h18.2V55.8H52V73.5z M52,52.3h18.2V36.4H52V52.3z M30.2,92.9h18.2V77H30.2V92.9z M30.2,73.5h18.2V55.8H30.2V73.5z
		 M30.2,52.3h18.2V36.4H30.2V52.3z M32,25.8V9.8c0-0.5-0.2-0.9-0.5-1.2c-0.4-0.4-0.8-0.5-1.3-0.5h-3.6c-0.5,0-0.9,0.2-1.3,0.5
		c-0.4,0.3-0.5,0.8-0.5,1.2v15.9c0,0.5,0.2,0.9,0.5,1.2c0.4,0.3,0.8,0.5,1.3,0.5h3.6c0.5,0,0.9-0.2,1.3-0.5
		C31.9,26.6,32,26.2,32,25.8 M10.3,92.9h16.3V77H10.3V92.9z M10.3,73.5h16.3V55.8H10.3V73.5z M10.3,52.3h16.3V36.4H10.3V52.3z
		 M97.4,22.2v70.7c0,1.9-0.7,3.6-2.2,5s-3.1,2.1-5.1,2.1H10.3c-2,0-3.7-0.7-5.1-2.1c-1.4-1.4-2.2-3.1-2.2-5V22.2
		c0-1.9,0.7-3.6,2.2-5c1.4-1.4,3.1-2.1,5.1-2.1h7.3V9.8c0-2.4,0.9-4.5,2.7-6.2C22,1.9,24.1,1,26.6,1h3.6c2.5,0,4.6,0.9,6.4,2.6
		c1.8,1.7,2.7,3.8,2.7,6.2v5.3h21.8V9.8c0-2.4,0.9-4.5,2.7-6.2C65.5,1.9,67.7,1,70.2,1h3.6c2.5,0,4.6,0.9,6.4,2.6
		c1.8,1.7,2.7,3.8,2.7,6.2v5.3h7.3c2,0,3.7,0.7,5.1,2.1C96.7,18.6,97.4,20.3,97.4,22.2"/>
</g>
</svg>
