<?xml version="1.0" encoding="utf-8"?>
<!-- Generator: Adobe Illustrator 21.0.2, SVG Export Plug-In . SVG Version: 6.00 Build 0)  -->
<svg version="1.1" id="Layer_1" xmlns="http://www.w3.org/2000/svg" xmlns:xlink="http://www.w3.org/1999/xlink" x="0px" y="0px"
	 viewBox="0 0 100 100" style="enable-background:new 0 0 100 100;" xml:space="preserve">
<style type="text/css">
	.st0{clip-path:url(#SVGID_2_);fill:#252525;}
	.st1{fill:#252525;}
</style>
<g>
	<defs>
		<rect id="SVGID_1_" x="4.7" y="1.2" width="91.3" height="96.9"/>
	</defs>
	<clipPath id="SVGID_2_">
		<use xlink:href="#SVGID_1_"  style="overflow:visible;"/>
	</clipPath>
	<path class="st0" d="M65,46.9h-6.1c0-10.3-8.5-18.6-18.9-18.6C29.5,28.2,21,36.6,21,46.9h-6.1c0-13.6,11.2-24.7,25.1-24.7
		S65,33.3,65,46.9"/>
	<path class="st0" d="M56.2,46.9h-6.1c0-5.5-4.5-9.9-10.1-9.9s-10.1,4.5-10.1,9.9h-6.1c0-8.8,7.3-15.9,16.2-15.9
		S56.2,38.1,56.2,46.9"/>
	<path class="st0" d="M84.4,47.6h-6.1c0-6.3-5.2-11.4-11.6-11.4c-2.5,0-4.9,0.8-6.9,2.2l-3.6-4.8c3.1-2.3,6.7-3.4,10.6-3.4
		C76.4,30.2,84.4,38,84.4,47.6"/>
	<path class="st0" d="M75.5,46.9h-6.1c0-1.5-1.2-2.7-2.7-2.7c-0.7,0-1.4,0.3-1.9,0.8l-4.3-4.3c1.7-1.6,3.9-2.5,6.2-2.5
		C71.5,38.2,75.5,42.1,75.5,46.9"/>
	<path class="st0" d="M47.4,46.9h-6.1c0-0.7-0.6-1.3-1.3-1.3c-0.7,0-1.3,0.6-1.3,1.3h-6.1c0-4,3.3-7.3,7.4-7.3S47.4,42.9,47.4,46.9"
		/>
	<path class="st0" d="M32.9,80.4c-0.4,0.9-1.3,1.3-2.2,1.3c-0.4,0-0.7-0.1-1.1-0.2c-9.7-4.7-15.8-13.3-16.4-23
		c-0.1-1.3,0.9-2.5,2.3-2.5c1.4-0.1,2.5,0.9,2.6,2.3c0.5,8,5.6,15.1,13.7,19C33,77.8,33.5,79.2,32.9,80.4 M96,50.9H4.7
		c0,19,12,35.2,28.9,41.8v3.5c0,1,0.8,1.8,1.8,1.8h31.2c1,0,1.8-0.8,1.8-1.8v-4.1C84.7,85.2,96,69.4,96,50.9"/>
</g>
<polygon class="st1" points="63.7,32.7 69.7,33.7 75.4,2.9 69.4,1.8 "/>
<polygon class="st1" points="84.3,1.2 69.6,33.1 75.2,35.6 89.8,3.6 "/>
</svg>
